SplineFontDB: 3.2
FontName: NewCMUncial10-Regular
FullName: NewComputerModernUncial10-Regular
FamilyName: NewComputerModernUncial10
Weight: Regular
Copyright: Copyright (c) 2021, Antonis Tsolomitis
UComments: "2021-11-3: Created with FontForge (http://fontforge.org)"
Version: 4.1
ItalicAngle: 0
UnderlinePosition: -100
UnderlineWidth: 50
Ascent: 800
Descent: 200
InvalidEm: 0
LayerCount: 2
Layer: 0 0 "Back" 1
Layer: 1 0 "Fore" 0
XUID: [1021 441 -2064408260 3275959]
StyleMap: 0x0000
FSType: 0
OS2Version: 0
OS2_WeightWidthSlopeOnly: 0
OS2_UseTypoMetrics: 1
CreationTime: 1635940176
ModificationTime: 1637128959
OS2TypoAscent: 0
OS2TypoAOffset: 1
OS2TypoDescent: 0
OS2TypoDOffset: 1
OS2TypoLinegap: 90
OS2WinAscent: 0
OS2WinAOffset: 1
OS2WinDescent: 0
OS2WinDOffset: 1
HheadAscent: 0
HheadAOffset: 1
HheadDescent: 0
HheadDOffset: 1
Lookup: 4 0 1 "'liga' Standard Ligatures lookup 1" { "'liga' Standard Ligatures lookup 1-1"  } ['liga' ('DFLT' <'dflt' > 'grek' <'dflt' > 'latn' <'dflt' > ) ]
Lookup: 1 0 0 "'salt' Stylistic Alternatives lookup 1" { "'salt' Stylistic Alternatives lookup 1-1"  } ['salt' ('DFLT' <'dflt' > 'grek' <'dflt' > 'latn' <'dflt' > ) ]
MarkAttachClasses: 1
DEI: 91125
LangName: 1033
Encoding: UnicodeFull
UnicodeInterp: none
NameList: AGL For New Fonts
DisplaySize: -72
AntiAlias: 1
FitToEm: 0
WinInfo: 0 16 8
BeginPrivate: 0
EndPrivate
BeginChars: 1114121 169

StartChar: B
Encoding: 66 66 0
Width: 708
Flags: W
HStem: -22 50<230.518 458.037> 344 22<310 314.879> 652 41<335.036 460.182> 668 34<23.8545 127.397>
VStem: 139 83<41.428 545.192 584.446 658.374> 497 97<499.997 618.168> 541 100<101.57 245.64>
LayerCount: 2
Fore
SplineSet
23.8544921875 668 m 1xda
 23.8544921875 702 l 1xda
 92.0634765625 699.012695312 158.112304688 699.345703125 222 703 c 1
 222 584.446252944 l 1
 282.560331468 658.368053343 344.11951078 693 442 693 c 0
 500 693 594 651 594 564 c 0xec
 594 490 486 388 408 357 c 1
 519 345 641 270 641 183 c 0
 641 82.55078125 554 -22 326 -22 c 0
 170.842015997 -22 139 33.4325977444 139 78 c 2
 139 605 l 2
 139 641 137 668 60 668 c 2
 23.8544921875 668 l 1xda
222 518.713040497 m 1
 222 71 l 2
 222 43 248 28 332 28 c 0
 395 28 541 30.654296875 541 184 c 0xea
 541 290 402 344 310 344 c 1
 270 366 l 1
 440 394 497 500 497 564 c 0
 497 617 450 652 395 652 c 0xec
 348.630884052 652 280.124462261 603.407966355 222 518.713040497 c 1
EndSplineSet
EndChar

StartChar: A
Encoding: 65 65 1
Width: 710
Flags: W
HStem: 0 32<604.263 691> 649 34<120.394 200.196>
LayerCount: 2
Fore
SplineSet
465 139 m 5
 321.451171875 107.961914062 206.940429688 82.8544921875 66 -20 c 5
 50 -20 31 -13 26 9 c 5
 128 176 302 420 302 502 c 4
 302 525.76953125 295 546 280 568 c 4
 243.21484375 621.952148438 178.393554688 649 120.393554688 649 c 5
 120.393554688 683 l 5
 177.68359375 680.491210938 245.327148438 679.8125 318.5390625 684 c 5
 597.92578125 58 l 6
 607.787109375 35.9052734375 623.200195312 32 675.200195312 32 c 6
 691 32 l 5
 691 0 l 5
 685 0 l 5
 665.650390625 4 526.737304688 3 514 0 c 4
 512.045898438 -0.4599609375 483.6796875 96.0087890625 465 139 c 5
452 179 m 5
 427.478515625 235.24609375 365.356445312 368.604492188 343 416 c 5
 333 416 323 416 323 416 c 5
 257 310 144 132.810546875 144 125.810546875 c 4
 144 120 150.27734375 121.525390625 154 123 c 4
 251.997070312 161.818359375 421 181 452 179 c 5
EndSplineSet
EndChar

StartChar: C
Encoding: 67 67 2
Width: 722
Flags: W
HStem: -22 31<335.141 507.57> 674 31<334.604 502.446>
VStem: 56 103<217.113 465.425> 623 32<500.003 557.532>
LayerCount: 2
Fore
SplineSet
655 591 m 1
 655 524 l 2
 655 503 655 500 639 500 c 0
 625 500 627.076171875 503.458007812 623 517 c 0
 592 620 524 674 415 674 c 0
 354 674 159 640 159 341 c 0
 159 43 355 9 416 9 c 0
 525 9 581.71875 57.5146484375 632.755859375 131.109375 c 4
 638.483398438 139.368164062 641.229492188 144.71875 650.912109375 139.498046875 c 4
 662.354492188 133.329101562 659.033203125 127.16796875 654.287109375 118.365234375 c 4
 608.254882812 32.9833984375 537 -22 404 -22 c 4
 218 -22 56 135 56 342 c 0
 56 546 217 705 404 705 c 0
 500 705 587 700 655 591 c 1
EndSplineSet
EndChar

StartChar: D
Encoding: 68 68 3
Width: 666
Flags: W
HStem: -15 29<267.594 395.447> 649 34<64 189.098>
VStem: 45 93<168.891 386.993> 527 94<167.448 398.004>
LayerCount: 2
Fore
SplineSet
182 459 m 1
 156 420 138 364 138 288 c 0
 138 75 254 14 332 14 c 0
 410 14 527 75 527 288 c 0
 527 482 366 551 274 601 c 0
 258 610 172 649 64 649 c 1
 64 683 l 1
 121 680 273 684 273 684 c 1
 413 618 621 520 621 274 c 0
 621 109 486 -15 332 -15 c 0
 171 -15 45 116 45 274 c 0
 45 344 68 406 106 456 c 1
 182 487 l 1
 182 459 l 1
EndSplineSet
EndChar

StartChar: E
Encoding: 69 69 4
Width: 722
Flags: W
HStem: -22 31<335.309 507.57> 328 51<227.215 473.485> 338 31<159.593 317.202> 674 31<336.194 502.446>
VStem: 56 103.007<217.893 338 369 460.529> 493 25<221 296.71 409.87 486> 623 32<500.003 557.532>
LayerCount: 2
Fore
SplineSet
655 591 m 1xbe
 655 524 l 2
 655 503 655 500 639 500 c 0
 625 500 627.076171875 503.458007812 623 517 c 0
 592 620 524 674 415 674 c 0
 355.959385 674 171.388959353 642.149152522 159.592677774 369 c 1xbe
 385 379 l 6
 480.811426238 383.250590677 493 400 493 486 c 1
 518 486 l 1
 518 221 l 1
 493 221 l 1
 493 306 480.812401053 323.76038851 385 328 c 6xde
 159.006648327 338 l 1
 160.31783708 42.7715154789 355.205309564 9 416 9 c 0
 525 9 581.71875 57.5146484375 632.755859375 131.109375 c 0
 638.483398438 139.368164062 641.229492188 144.71875 650.912109375 139.498046875 c 0
 662.354492188 133.329101562 659.033203125 127.16796875 654.287109375 118.365234375 c 0
 608.254882812 32.9833984375 537 -22 404 -22 c 0
 218 -22 56 135 56 342 c 0
 56 546 217 705 404 705 c 0
 500 705 587 700 655 591 c 1xbe
EndSplineSet
EndChar

StartChar: F
Encoding: 70 70 5
Width: 653
Flags: W
HStem: -100 31<33 130.733 232.133 353> 649 31<33 130.733 227.165 497.578>
VStem: 136 89<-62.5126 233.709 251.805 643.836> 415.755 26<108.12 193.487 288.763 372.72>
LayerCount: 2
Fore
SplineSet
225 233.709397715 m 1
 225 -21 l 2
 225 -56 225 -69 320 -69 c 2
 353 -69 l 1
 353 -100 l 5
 317 -97 226 -97 185 -97 c 4
 146 -97 68 -97 33 -100 c 5
 33 -69 l 1
 57 -69 l 2
 134 -69 136 -58 136 -22 c 2
 136 602 l 2
 136 638 134 649 57 649 c 2
 33 649 l 1
 33 680 l 1
 582 680 l 1
 610 455 l 1
 585 455 l 1
 569 593 544 649 394 649 c 2
 274 649 l 2
 227 649 225 642 225 609 c 2
 225 251.805099063 l 1
 356.635742188 263.239257812 l 2
 415.036490156 268.312070198 415.754882812 317.6796875 415.754882812 372.719726562 c 1
 441.754882812 372.719726562 l 1
 441.754882812 108.120117188 l 1
 415.754882812 108.120117188 l 1
 415.754882812 162.51953125 414.986889911 214.788336666 356.635742188 220.599609375 c 2
 225 233.709397715 l 1
EndSplineSet
EndChar

StartChar: G
Encoding: 71 71 6
Width: 785
Flags: W
HStem: -22 31<335.141 491.807> 329 52<436.093 561.717> 674 31<334.604 502.446>
VStem: 56 103<217.113 465.425> 623 32<500.002 557.532> 636 38<128.002 258.718>
LayerCount: 2
Fore
SplineSet
498 329 m 4xf4
 437.969726562 329 401 279 378 232 c 1
 344.3359375 258.83984375 333.67578125 293.553710938 331 331 c 1
 365 365 406.735351562 381 454 381 c 4
 639 381 674 234 674 190 c 0xf4
 674 72 557 -22 404 -22 c 0
 218 -22 56 135 56 342 c 0
 56 546 217 705 404 705 c 0
 500 705 587 700 655 591 c 1
 655 524 l 2
 655 503 655 500 639 500 c 0
 625 500 627 503 623 517 c 0xf8
 592 620 524 674 415 674 c 0
 354 674 159 640 159 341 c 0
 159 43 355 9 416 9 c 0
 525 9 636 104 636 190 c 0
 636 242 600 329 498 329 c 4xf4
EndSplineSet
EndChar

StartChar: H
Encoding: 72 72 7
Width: 698
Flags: W
HStem: -85 22<317.152 396.123> 0 32<31 132.251 233.342 335> 538 23<344.582 460.569> 651 32<31 131.758 233.95 335>
VStem: 138 91<37.1292 454.891 472.109 645.641> 570 81<148.729 397.575>
LayerCount: 2
Fore
SplineSet
352 -63 m 4
 456 -63 570 103.209960938 570 286 c 0
 570 506 463 538 403 538 c 0
 362 538 229 506 229 373 c 2
 229 58 l 1
 235 39 242 32 317 32 c 2
 335 32 l 1
 335 0 l 1
 325 0 l 2
 307 3 61 3 41 0 c 2
 31 0 l 1
 31 32 l 1
 49 32 l 2
 114 32 128 35 138 58 c 1
 138 626 l 1
 126 645 124 651 49 651 c 2
 31 651 l 1
 31 683 l 1
 41 683 l 2
 59 680 305 680 325 683 c 2
 335 683 l 1
 335 651 l 1
 317 651 l 2
 247 651 238 646 229 626 c 1
 229 472.109375 l 1
 252.125976562 517.068359375 338.291992188 561 411 561 c 0
 545 561 651 444 651 274 c 0
 651 96.2080078125 550.42578125 -85 353 -85 c 4
 330 -85 317 -80 317 -73 c 4
 317 -65 331 -63 352 -63 c 4
EndSplineSet
EndChar

StartChar: I
Encoding: 73 73 8
Width: 361
Flags: W
HStem: 0 31<28 54> 652 31<28 54 28 28>
VStem: 136 89<78 605>
LayerCount: 2
Fore
SplineSet
333 0 m 1
 298 3 219 3 180 3 c 0
 142 3 63 3 28 0 c 1
 28 31 l 1
 54 31 l 2
 133 31 136 42 136 78 c 2
 136 605 l 2
 136 641 133 652 54 652 c 2
 28 652 l 1
 28 683 l 1
 63 680 142 680 181 680 c 0
 219 680 298 680 333 683 c 1
 333 652 l 1
 307 652 l 2
 228 652 225 641 225 605 c 2
 225 78 l 2
 225 42 228 31 307 31 c 2
 333 31 l 1
 333 0 l 1
EndSplineSet
EndChar

StartChar: J
Encoding: 74 74 9
Width: 514
Flags: W
HStem: -22 22<154.978 237.453> 652 31<168 294.642 392.101 465>
VStem: 302 86<68.7031 644.96>
LayerCount: 2
Fore
SplineSet
388 167 m 6
 388 133 388 131 387 123 c 4
 376 48 303 -22 201 -22 c 4
 182 -22 148 -16 148 0 c 4
 148 20.880859375 177 0 199 0 c 4
 252 0 302 56 302 148 c 6
 302 604 l 2
 302 639 302 652 204 652 c 2
 168 652 l 1
 168 683 l 1
 206 680 294 680 336 680 c 2
 465 683 l 1
 465 652 l 1
 402 652 388 652 388 611 c 2
 388 167 l 6
EndSplineSet
EndChar

StartChar: K
Encoding: 75 75 10
Width: 778
Flags: W
HStem: 0 31<33 57> 652 31<33 57 33 33>
VStem: 136 89<78 253 287 605>
LayerCount: 2
Fore
SplineSet
736 0 m 1
 736 0 621 3 621 3 c 2
 583 3 513 3 478 0 c 1
 478 31 l 1
 498 31 537 31 537 61 c 0
 537 73 528 86 522 95 c 2
 341 363 l 1
 225 253 l 1
 225 78 l 2
 225 42 227 31 304 31 c 2
 328 31 l 1
 328 0 l 1
 293 3 218 3 180 3 c 0
 142 3 68 3 33 0 c 1
 33 31 l 1
 57 31 l 2
 134 31 136 42 136 78 c 2
 136 605 l 2
 136 641 134 652 57 652 c 2
 33 652 l 1
 33 683 l 1
 68 680 143 680 181 680 c 0
 219 680 293 680 328 683 c 1
 328 652 l 1
 304 652 l 2
 227 652 225 641 225 605 c 2
 225 287 l 1
 538 586 l 2
 546 593 556 603 556 619 c 0
 556 628 550 651 510 652 c 1
 510 683 l 1
 544 680 601 680 637 680 c 0
 664 680 696 680 722 683 c 1
 722 652 l 1
 641 651 588 600 580 592 c 2
 400 419 l 1
 631 79 l 2
 661 35 682 31 736 31 c 1
 736 0 l 1
EndSplineSet
EndChar

StartChar: L
Encoding: 76 76 11
Width: 625
Flags: W
HStem: 0 31<33 57 57 95.5 274 356 356 444 33 57> 238 20G<557 582 582 582> 652 31<33 57 33 33>
VStem: 136 89<78 604> 185 89 557 25<258 258>
LayerCount: 2
Fore
SplineSet
582 258 m 1xcc
 554 0 l 1
 33 0 l 1
 33 31 l 1
 57 31 l 2
 134 31 136 42 136 78 c 2
 136 605 l 2xd4
 136 641 134 652 57 652 c 2
 33 652 l 1
 33 683 l 1
 68 680 146 680 185 680 c 0
 226 680 317 680 353 683 c 1
 353 652 l 1
 320 652 l 2
 225 652 225 638 225 604 c 2
 225 71 l 2x30
 225 38 227 31 274 31 c 2
 356 31 l 2
 532 31 546 156 557 258 c 1
 582 258 l 1xcc
EndSplineSet
EndChar

StartChar: M
Encoding: 77 77 12
Width: 1166
Flags: W
HStem: 0 31<56 149.474 442 539.733 631.267 729 994.4 1108> 654 38<289.701 428.191 736.136 875.441>
VStem: 64 98<231.447 464.603> 545 81<35.9133 511.11> 1008 96<241.708 492.789>
LayerCount: 2
Fore
SplineSet
176 74 m 0
 129 125 64 240 64 339 c 0
 64 523.491192202 194.827107815 692 380 692 c 0
 468 692 537 647 585 578 c 9
 609 577 l 17
 665 646 739.08 696 839 696 c 0
 990 696 1104 540.124175716 1104 379 c 0
 1104 249 1041 122 988 65 c 4
 962.124137678 37.1712424084 1076 30 1108 31 c 9
 1110 0 l 25
 878 0 l 25
 878 31 l 17
 962 101 1008 221 1008 355 c 0
 1008 489.952148438 949 652 805 652 c 0
 715.110351562 652 626 565 626 475 c 18
 626 78 l 2
 626 42.00087156 628 31 705 31 c 2
 729 31 l 1
 729 0 l 1
 692 3 625 3 586 3 c 0
 547 3 479 3 442 0 c 1
 442 31 l 1
 466 31 l 2
 543 31 545 42.0063687246 545 78 c 2
 545 397 l 2
 545 520 473 654 362 654 c 0
 230.41015625 654 162 496.197265625 162 364 c 0
 162 240 195 120 290 31 c 1
 290 0 l 1
 173 3 l 1
 56 0 l 1
 56 31 l 1
 129 31 192.264094441 56.3517273091 176 74 c 0
EndSplineSet
EndChar

StartChar: N
Encoding: 78 78 13
Width: 750
Flags: W
HStem: 0 31<33 84.5> 652 31<33 62 33 203>
VStem: 136 28<105 625> 585 28<151 578>
LayerCount: 2
Fore
SplineSet
716 652 m 1
 613 652 613 605 613 578 c 2
 613 26 l 6
 613 7 613 0 599 0 c 4
 592 0 591 1 582 13 c 6
 174 613 l 2
 170 619 169 620 164 625 c 1
 164 105 l 2
 164 78 164 31 267 31 c 1
 267 0 l 1
 150 3 l 1
 33 0 l 1
 33 31 l 1
 136 31 136 78 136 105 c 2
 136 627 l 2
 136 646 135 647 112 650 c 0
 97 651 77 652 62 652 c 2
 33 652 l 1
 33 683 l 1
 203 683 l 2
 222 683 223 682 232 670 c 2
 585 151 l 1
 585 578 l 2
 585 605 585 652 482 652 c 1
 482 683 l 1
 599 680 l 1
 716 683 l 1
 716 652 l 1
EndSplineSet
EndChar

StartChar: O
Encoding: 79 79 14
Width: 778
Flags: W
HStem: -22 26<328.932 447.778> 680 25<328.52 448.749>
VStem: 56 103<213.639 468.318> 618 103<213.466 467.387>
LayerCount: 2
Fore
SplineSet
721 339 m 4
 721 137 570 -22 388 -22 c 4
 210 -22 56 134 56 339 c 4
 56 545 209 705 388 705 c 4
 570 705 721 543 721 339 c 4
618 353 m 4
 618 609 475 680 388 680 c 4
 305 680 159 612 159 353 c 4
 159 92 293 4 389 4 c 4
 481 4 618 88 618 353 c 4
EndSplineSet
EndChar

StartChar: P
Encoding: 80 80 15
Width: 751
Flags: W
HStem: -101 31<35 132.733 232.267 330> 86 42<403.103 519.554> 649 44<365.133 512.83> 652 31<35 132.733>
VStem: 138 89<-65.0882 460.019 535 646.329> 615 97<289.25 519.508>
LayerCount: 2
Fore
SplineSet
227 316 m 18xec
 227 -23 l 2
 227 -59.0020981755 229 -70 306 -70 c 2
 330 -70 l 1
 330 -101 l 1
 295 -98 220 -98 182 -98 c 0
 144 -98 70 -98 35 -101 c 1
 35 -70 l 1
 59 -70 l 2
 136 -70 138 -59 138 -23 c 2
 138 605 l 2
 138 641 136 652 59 652 c 2
 35 652 l 1
 35 683 l 1
 168 683 l 2xdc
 216.599459917 683 224 659.350939515 224 612 c 2
 224 535 l 1
 238 535 l 17
 268 601 346 693 453 693 c 0
 603.42 693 712 556.209186483 712 405 c 0
 712 234 578 86 420 86 c 4
 372.735737447 86 331 92 297 126 c 5
 299.676199429 163.446761042 310.336286209 198.160561168 344 225 c 5
 367 178 403.969726562 128 464 128 c 4
 567 128 615 267 615 382 c 0
 615 501.205704561 573 649 434 649 c 0
 298.700195312 649 224 451 227 316 c 18xec
EndSplineSet
EndChar

StartChar: Q
Encoding: 81 81 16
Width: 778
Flags: W
HStem: -164 56<819.185 950.085> -22 26<328.932 450.827> 680 25<328.52 448.749>
VStem: 56 103<213.639 468.318> 618 103<212.075 467.387>
LayerCount: 2
Fore
SplineSet
618 353 m 0
 618 609 475 680 388 680 c 0
 305 680 159 612 159 353 c 0
 159 92 293 4 389 4 c 0
 481 4 618 88 618 353 c 0
506 1 m 5
 469 -14 430 -22 388 -22 c 0
 210 -22 56 134 56 339 c 0
 56 545 209 705 388 705 c 0
 570 705 721 543 721 339 c 0
 721 213 662 104 574 40 c 5
 667 -15 801 -108 934 -108 c 4
 954 -108 966 -106 986 -105 c 5
 986 -122 l 5
 960 -143 905 -164 850 -164 c 4
 719 -164 580 -62 506 1 c 5
EndSplineSet
EndChar

StartChar: R
Encoding: 82 82 17
Width: 723
Flags: W
HStem: -1 31<35 132.733 232.267 330> 0 21<650.723 704.984> 331 25<296 357.39> 649 44<313.253 430.527> 652 31<35 132.733>
VStem: 138 89<34.9118 549.626 575 646.329> 470 97<441.855 598.402>
LayerCount: 2
Fore
SplineSet
688 0 m 0x76
 658 0 607.208007812 -9.0146484375 561 20 c 0
 518 47 471 100 450 163 c 0
 430.27734375 222.168945312 430 261 392 297 c 0
 356.577148438 330.55859375 312 331 296 331 c 1
 296 356 l 1
 396 356 470 432 470 517 c 0
 470 596.206054688 433 649 374 649 c 0x76
 268.700195312 649 227 521 227 456 c 2
 227 77 l 2
 227 40.998046875 229 30 306 30 c 2
 330 30 l 1
 330 -1 l 1
 295 2 220 2 182 2 c 0
 144 2 70 2 35 -1 c 1
 35 30 l 1
 59 30 l 2
 136 30 138 41 138 77 c 2
 138 605 l 2
 138 641 136 652 59 652 c 2
 35 652 l 1
 35 683 l 1
 168 683 l 2xae
 216.599459917 683 224 659.350939515 224 612 c 2
 224 575 l 1
 234 575 l 17
 265 644 317 693 384 693 c 0
 464.419921875 693 567 631.208984375 567 510 c 0
 567 339 433 339 395 339 c 1
 450 320 502 297 537 224 c 0
 550.840820312 195.130859375 563.774414062 132.561523438 578 105 c 0
 594 74 639 21 688 21 c 0
 699.65234375 21 705 17.296875 705 10 c 0
 705 4 702.72265625 0 688 0 c 0x76
EndSplineSet
EndChar

StartChar: S
Encoding: 83 83 18
Width: 556
Flags: W
HStem: -22 31<286.5 343 286.5 360.5> 186 31 388 31 480 31 677 28<213 295.5 195.5 335.5>
VStem: 56 64<517 564> 187 64 435 64<131 168.5>
LayerCount: 2
Fore
SplineSet
499 186 m 0
 499 76 419 -22 302 -22 c 0
 213 -22 149 14 118 48 c 1
 85 -5 82 -9 82 -9 c 2
 75 -20 74 -22 67 -22 c 0
 56 -22 56 -15 56 2 c 2
 56 202 l 2
 56 220 56 227 69 227 c 0
 72 227 80 227 81 217 c 0
 82 181 85 117 143 63 c 0
 196 14 272 9 301 9 c 0
 385 9 435 81 435 152 c 0
 435 185 425 218 404 244 c 0
 376 281 346 288 319 295 c 0
 249 312 198 324 187 328 c 0
 109 355 56 428 56 511 c 0
 56 617 140 705 251 705 c 0
 340 705 381 664 411 635 c 1
 446 692 l 2
 453 704 454 705 461 705 c 0
 472 705 472 698 472 681 c 2
 472 480 l 2
 472 461 472 456 459 456 c 0
 448 456 448 462 447 468 c 0
 441 513 419 677 252 677 c 0
 174 677 120 616 120 546 c 0
 120 488 159 434 221 419 c 2
 349 388 l 2
 433 368 499 286 499 186 c 0
EndSplineSet
EndChar

StartChar: T
Encoding: 84 84 19
Width: 722
Flags: W
HStem: -12 23<354.518 480.664> 622 55<98.6674 380 467.804 663.157>
VStem: 36 25<452 534.895> 120 100<150.552 360.969> 682.448 24.5518<709.287 733.343>
LayerCount: 2
Fore
SplineSet
402 -12 m 4
 235 -12 120 82.809669235 120 235 c 0
 120 440.07 256 527 380 607 c 9
 380 622 l 1
 216 622 l 2
 85 622 75 613 61 452 c 1
 36 452 l 1
 55 677 l 1
 576 677 l 2
 589.83203125 677 663 659 682.448242188 736.708984375 c 1
 707 732 l 1
 674 606 l 1
 639 619 629 622 584 622 c 0
 384.387695312 622 220 440 220 261 c 0
 220 144.580078125 293 11 408 11 c 4
 487.480007836 11 566.921875 45.25390625 626 157 c 5
 658 136 670 122 677.19921875 86.3681640625 c 5
 572 -8 452.802404886 -12 402 -12 c 4
EndSplineSet
EndChar

StartChar: U
Encoding: 85 85 20
Width: 803
Flags: W
HStem: -22 31<325.06 459.935> 0 31<679.332 764> 652 31<33 130.733 230.267 328 479.065 573.375 669.625 763.931>
VStem: 136 89<129.453 647.088> 582 79<43.5799 102.024 126.301 643.766>
LayerCount: 2
Fore
SplineSet
661 604 m 2xb8
 661 109 l 6
 661 56.0029296875 661 31 764 31 c 1
 764 0 l 1x78
 583 3 l 1
 583 102.024446619 l 1
 544.78502207 29.123160041 473.263903514 -22 388 -22 c 0
 252 -22 136 87 136 228 c 2
 136 605 l 2
 136 641 134 652 57 652 c 2
 33 652 l 1
 33 683 l 1
 68 680 143 680 181 680 c 0
 219 680 293 680 328 683 c 1
 328 652 l 1
 304 652 l 2
 227 652 225 641 225 605 c 2
 225 224 l 2
 225 34 343 9 390 9 c 0
 485 9 582 89 582 231 c 2
 582 608 l 2
 582 635 582 652 479 652 c 1
 479 683 l 1
 479 683 568 680 621 680 c 28
 669 680 764 683 764 683 c 1
 764 652 l 1
 661 652 661 637 661 604 c 2xb8
EndSplineSet
EndChar

StartChar: V
Encoding: 86 86 21
Width: 750
Flags: W
HStem: -22 21G<367.5 382.5> 652 31<19 51.5>
VStem: 19 711<652 683 652 683>
LayerCount: 2
Fore
SplineSet
730 652 m 1
 662 651 635 622 621 585 c 2
 398 -3 l 2
 393 -17 391 -22 374 -22 c 0
 361 -22 356 -19 349 0 c 2
 117 614 l 2
 103 652 84 652 19 652 c 1
 19 683 l 1
 19 683 146 680 146 680 c 2
 184 680 253 680 289 683 c 1
 289 652 l 1
 264 652 207 652 207 623 c 1
 207 623 207 619 213 605 c 2
 404 100 l 1
 587 582 l 2
 589 588 592 594 592 602 c 0
 592 625 571 651 519 652 c 1
 519 683 l 1
 519 683 633 680 633 680 c 2
 659 680 699 681 730 683 c 1
 730 652 l 1
EndSplineSet
EndChar

StartChar: W
Encoding: 87 87 22
Width: 1173
Flags: W
HStem: -14 26<283.203 419.071 717.936 831.492> -3 31<1068.58 1139>
VStem: 115 80<80.0861 636.223> 564 79<116.625 643.261> 982 79<33.2905 91 112.193 643.261>
LayerCount: 2
Fore
SplineSet
115 176 m 2xb8
 115 600 l 2
 115 630.048828125 90 647 38 647 c 1
 38 678 l 1
 38 678 109 675 155 675 c 24
 201 675 273 678 273 678 c 1
 273 647 l 1
 206 647 195 645 195 600 c 2
 195 123 l 2
 195 56 281 12 344 12 c 0xb8
 443 12 564 84 564 188 c 2
 564 600 l 2
 564 645 553 647 486 647 c 1
 486 678 l 1
 486 678 557 675 603 675 c 24
 649 675 721 678 721 678 c 1
 721 647 l 1
 654 647 643 645 643 600 c 2
 643 119 l 2
 643 62 709 13 772 13 c 0
 836 13 982 74 982 178 c 2
 982 600 l 2
 982 645 971 647 904 647 c 1
 904 678 l 1
 904 678 975 675 1021 675 c 24
 1067 675 1139 678 1139 678 c 1
 1139 647 l 1
 1072 647 1061 645 1061 600 c 2
 1061 84 l 2
 1061 35 1069 28 1139 28 c 1
 1139 -3 l 1x78
 988 -14 l 1
 988 91 l 1
 960 29 848 -14 775 -14 c 0
 730 -14 642 -8 572 84 c 1
 500 16 421 -14 337 -14 c 0
 208.02734375 -14 115 40 115 176 c 2xb8
EndSplineSet
EndChar

StartChar: X
Encoding: 88 88 23
Width: 750
Flags: W
HStem: 0 31<24 74.5> 652 31<37 56 37 37>
VStem: 24 702<0 31 0 31>
LayerCount: 2
Fore
SplineSet
726 0 m 1
 726 0 596 3 596 3 c 2
 558 3 485 3 450 0 c 1
 450 31 l 1
 493 32 515 49 515 61 c 0
 515 64 512 68 510 72 c 2
 352 311 l 1
 210 101 l 2
 203 90 200 86 200 77 c 0
 200 59 217 32 263 31 c 1
 263 0 l 1
 227 3 172 3 135 3 c 2
 24 0 l 1
 24 31 l 1
 125 31 155 77 169 97 c 2
 333 339 l 1
 149 617 l 2
 130 645 111 652 56 652 c 2
 37 652 l 1
 37 683 l 1
 37 683 167 680 167 680 c 2
 205 680 278 680 313 683 c 1
 313 652 l 1
 270 651 248 634 248 622 c 0
 248 618 253 610 255 607 c 2
 384 414 l 1
 498 583 l 2
 505 594 507 596 507 606 c 0
 507 629 485 651 445 652 c 1
 445 683 l 1
 485 680 533 680 573 680 c 2
 684 683 l 1
 684 652 l 1
 595 651 561 619 539 587 c 2
 402 386 l 1
 613 67 l 2
 634 36 655 31 707 31 c 2
 726 31 l 1
 726 0 l 1
EndSplineSet
EndChar

StartChar: Y
Encoding: 89 89 24
Width: 750
Flags: W
HStem: 0 31<228 252> 652 31<11 29 11 11>
VStem: 331 86<78 80 80 273>
LayerCount: 2
Fore
SplineSet
738 652 m 1
 706 652 647 648 610 587 c 2
 417 273 l 1
 417 80 l 2
 417 41 420 31 497 31 c 2
 520 31 l 1
 520 0 l 1
 484 3 413 3 374 3 c 0
 335 3 264 3 228 0 c 1
 228 31 l 1
 252 31 l 2
 329 31 331 42 331 78 c 2
 331 273 l 1
 121 615 l 2
 105 641 97 652 29 652 c 2
 11 652 l 1
 11 683 l 1
 11 683 141 680 141 680 c 2
 180 680 253 680 289 683 c 1
 289 652 l 1
 244 652 219 648 219 627 c 0
 219 622 219 620 226 610 c 2
 407 315 l 1
 572 583 l 2
 576 589 582 602 582 613 c 0
 582 633 566 652 525 652 c 1
 525 683 l 1
 525 683 640 680 640 680 c 2
 667 680 707 681 738 683 c 1
 738 652 l 1
EndSplineSet
EndChar

StartChar: Z
Encoding: 90 90 25
Width: 611
Flags: W
HStem: 0 34<159 323 323 415.5> 652 31<213 295 295 452>
VStem: 56 504<8.5 267>
LayerCount: 2
Fore
SplineSet
560 267 m 1
 543 0 l 1
 82 0 l 2
 61 0 56 0 56 17 c 0
 56 25 56 26 63 37 c 2
 452 652 l 1
 295 652 l 2
 131 652 101 571 94 458 c 1
 69 458 l 1
 80 683 l 1
 528 683 l 2
 548 683 554 683 554 667 c 0
 554 660 554 659 547 648 c 2
 159 34 l 1
 323 34 l 2
 508 34 527 128 535 267 c 1
 560 267 l 1
EndSplineSet
EndChar

StartChar: five
Encoding: 53 53 26
Width: 547
Flags: W
HStem: -216 28<216.5 276 216.5 313> -78 98<117.5 139.5> -76 83 204 22<259 307> 357 83<260 302.5> 370 98 440 28 447 22 451 20G<130 135> 452 20G<424 427.5>
VStem: 74 61 125 31<175 370 175 447> 152 89 384 89<-3.5 39>
LayerCount: 2
Fore
SplineSet
473 7 m 0x1410
 473 -120 371 -216 255 -216 c 0
 143 -216 74 -119 74 -33 c 0
 74 13 109 20 123 20 c 0
 156 20 173 -5 173 -29 c 0
 173 -53 156 -78 123 -78 c 0xc020
 112 -78 109 -77 106 -76 c 1
 123 -135 180 -188 253 -188 c 0
 299 -188 336 -162 360 -123 c 0
 384 -81 384 -21 384 14 c 0
 384 64 382 103 366 140 c 0
 358 158 333 204 281 204 c 0
 200 204 163 150 152 134 c 0xb00c
 148 128 146 125 139 125 c 0
 125 125 125 133 125 151 c 2
 125 447 l 2x0110
 125 463 125 471 135 471 c 2x00a0
 135 471 139 471 147 468 c 0x02
 194 447 240 440 280 440 c 0
 347 440 396 460 416 469 c 0x09
 421 472 424 472 424 472 c 2
 431 472 434 467 434 461 c 0
 434 448 364 357 241 357 c 0x0848
 209 357 176 364 156 370 c 1
 156 175 l 1
 192 210 235 226 283 226 c 0
 391 226 473 126 473 7 c 0x1410
EndSplineSet
EndChar

StartChar: comma
Encoding: 44 44 27
Width: 278
Flags: W
HStem: -193 21G<109.5 118> 0 106<121.5 146.5>
VStem: 181 22
LayerCount: 2
Fore
SplineSet
203 1 m 0
 203 -114 124 -193 112 -193 c 0
 107 -193 102 -189 102 -182 c 0
 102 -178 103 -177 109 -171 c 0
 153 -124 181 -63 179 16 c 1
 168 6 154 0 139 0 c 0
 103 0 86 27 86 53 c 0
 86 79 104 106 139 106 c 0
 179 106 203 65 203 1 c 0
EndSplineSet
EndChar

StartChar: period
Encoding: 46 46 28
Width: 278
Flags: W
HStem: 0 106<124.5 153.5>
VStem: 86 106<38.5 67.5>
LayerCount: 2
Fore
SplineSet
192 53 m 0
 192 24 168 0 139 0 c 0
 110 0 86 24 86 53 c 0
 86 82 110 106 139 106 c 0
 168 106 192 82 192 53 c 0
EndSplineSet
EndChar

StartChar: k
Encoding: 107 107 29
Width: 550
Flags: W
HStem: -12 18.7998<490.53 535.972> 0 31<28 101.404 173.596 247> 400 31<306 332.902 424.016 488> 652 31<28 98.4185>
VStem: 106 66<34.0171 179 214 646.709>
LayerCount: 2
Fore
SplineSet
254.62109375 252.65234375 m 1xb8
 169 179 l 1
 169 76 l 6
 169 31 180 31 247 31 c 5
 247 0 l 5
 137 3 l 5
 28 0 l 5
 28 31 l 5x78
 95 31 106 31 106 76 c 6
 106 596 l 2
 106 645 98 652 28 652 c 1
 28 683 l 1
 172 694 l 1
 172 214 l 1
 313 336 l 2
 321 343 335 355 335 375 c 0
 335 388 325 399 306 400 c 1
 306 431 l 1
 320 430 382 428 418 428 c 0
 446 428 459 428 488 431 c 1
 488 400 l 1
 467 399 425 397 362 346 c 0
 352.04640906 337.942331144 278 275.200195312 278 271.200195312 c 1
 322 256 363.599609375 237.599609375 391.599609375 179.200195312 c 0
 402.672974529 156.104551144 423.01953125 96.048828125 434.400390625 74 c 0
 447.200195312 49.2001953125 483.200195312 6.7998046875 522.400390625 6.7998046875 c 0
 531.721679688 6.7998046875 536 3.837890625 536 -2 c 0
 536 -6.7998046875 533.665983619 -8.5654497958 522.400390625 -12 c 0
 506 -17 457.766601562 -17.2119140625 420.799804688 6 c 0
 386.400390625 27.599609375 338.799804688 80 322 130.400390625 c 0
 306.221679688 177.735351562 306 208.799804687 275.599609375 237.599609375 c 0
 268.88792633 243.957921122 261.752929688 248.91796875 254.62109375 252.65234375 c 1xb8
EndSplineSet
EndChar

StartChar: l
Encoding: 108 108 30
Width: 490
Flags: W
HStem: 0 26<35 99.4062 180.357 354.698> 656 26<35 98.7221 184.478 264>
VStem: 107 70<30.0793 650.864> 437 26<126.75 195>
LayerCount: 2
Back
SplineSet
32 0 m 1
 32 26 l 1
 40 26 l 2
 88 26 104 31 104 68 c 2
 104 613 l 2
 104 650 88 656 40 656 c 2
 32 656 l 1
 32 682 l 1
 68 680 105 679 142 679 c 0
 184 679 225 680 267 682 c 1
 267 656 l 1
 256 656 l 2
 179 656 177 643 177 604 c 2
 177 67 l 2
 177 28 182 26 231 26 c 2
 264 26 l 2
 333 26 374 38 403 75 c 0
 429 109 433 154 437 195 c 1
 463 195 l 1
 443 0 l 1
 32 0 l 1
EndSplineSet
Fore
SplineSet
35 0 m 1
 35 26 l 1
 43 26 l 2
 91 26 107 31 107 68 c 2
 107 613 l 2
 107 650 91 656 43 656 c 2
 35 656 l 1
 35 682 l 1
 71 680 108 679 145 679 c 0
 187 679 222 680 264 682 c 1
 264 656 l 1
 253 656 l 2
 176 656 177 643 177 604 c 2
 177 67 l 2
 177 28 182 26 231 26 c 2
 264 26 l 2
 333 26 374 38 403 75 c 0
 429 109 433 154 437 195 c 1
 463 195 l 1
 443 0 l 1
 35 0 l 1
EndSplineSet
Substitution2: "'salt' Stylistic Alternatives lookup 1-1" l.alt
EndChar

StartChar: n
Encoding: 110 110 31
Width: 552
Flags: W
HStem: 0 31<23 78.6578 150.75 207> 401 31<23 101 342 397.723 470.72 526>
VStem: 101 28<53.6637 371> 420 28<98 378.165>
LayerCount: 2
Fore
SplineSet
448 35 m 6
 448 11 440 0 429 0 c 4
 417 0 398.95240507 20.1711658805 376 50 c 6
 129 371 l 1
 129 103 l 2
 129 45 161 32 207 31 c 1
 207 0 l 1
 176 2 144 3 113 3 c 0
 83 3 53 2 23 0 c 1
 23 31 l 1
 87 33 101 61 101 104 c 2
 101 395 l 1
 77 401 51 401 26 401 c 2
 23 401 l 1
 23 432 l 1
 138 432 l 2
 161 432 171.328928677 423.769962432 191 398 c 6
 420 98 l 1
 420 323 l 2
 420 361 416 399 342 401 c 1
 342 432 l 1
 373 430 405 429 436 429 c 0
 466 429 496 430 526 432 c 1
 526 401 l 1
 453 399 448 359.998514925 448 327 c 2
 448 35 l 6
EndSplineSet
EndChar

StartChar: o
Encoding: 111 111 32
Width: 500
Flags: W
HStem: -11 25<194.976 303.41> 426 22<198.857 300.319>
VStem: 28 83<117.95 313.472> 388 83<118.022 313.836>
LayerCount: 2
Fore
SplineSet
28 214 m 0
 28 339 125 448 250 448 c 0
 371 448 471 342 471 214 c 0
 471 87 370 -11 249 -11 c 0
 132 -11 28 85 28 214 c 0
111 222 m 0
 111 186 111 125 136 81 c 0
 163 35 207 14 250 14 c 0
 300 14 344 43 366 88 c 0
 388 132 388 186 388 222 c 0
 388 260 388 318 362 361 c 0
 336 404 293 426 249 426 c 0
 209 426 162 405 135 359 c 0
 111 315 111 261 111 222 c 0
EndSplineSet
EndChar

StartChar: p
Encoding: 112 112 33
Width: 556
Flags: W
HStem: -194 31<28 61.5> -11 22<274 331 274 357.5> 400 31<28 63.5> 417 25<278.5 340.5>
VStem: 106 69<-118 50 50 59 104 114 114 337> 438 83<155.5 272.5>
LayerCount: 2
Fore
SplineSet
521 216 m 0x10
 521 87 417 -11 298 -11 c 0
 222 -11 180 43 175 59 c 1
 175 50 l 1
 175 -118 l 2
 175 -163 186 -163 253 -163 c 1
 253 -194 l 1
 140 -191 l 1
 28 -194 l 1
 28 -163 l 1
 95 -163 106 -163 106 -118 c 2
 106 350 l 6
 106 394 99 400 28 400 c 5
 28 431 l 5xec
 172 442 l 5
 172 376 l 5
 192 398 234 442 312 442 c 0
 424 442 521 343 521 216 c 0x10
438 216 m 0
 438 329 377 417 304 417 c 0x14
 253 417 204 388 175 337 c 1
 175 114 l 2
 175 94 175 93 189 72 c 0
 216 31 254 11 294 11 c 0
 368 11 438 95 438 216 c 0
EndSplineSet
EndChar

StartChar: q
Encoding: 113 113 34
Width: 500
Flags: W
HStem: -121.5 73.1006<360.794 446.263> -11 25.25<220.525 303.457> 82.25 19.5508<223.577 277.8> 426 22<198.857 300.319>
VStem: 28 83<117.95 313.472> 191.9 19.5498<25.54 70.1637> 388 83<116.323 313.836> 459.801 19.5498<-24.8304 8.37637>
LayerCount: 2
Fore
SplineSet
111 222 m 0xfe
 111 186 111 125 136 81 c 0
 151.795670809 54.0888571409 173.40966079 35.7340660065 197.23788154 25.1347180626 c 1
 197 25.30078125 l 1
 194.450195312 32.9501953125 191.900390625 39.75 191.900390625 48.25 c 0
 191.900390625 71.2001953125 212.30078125 101.80078125 249.700195312 101.80078125 c 0
 294.75 101.80078125 316.850585938 55.05078125 325.350585938 38.900390625 c 2
 325.365373239 38.8668366846 l 1
 342.281466887 51.3786798578 356.285528091 68.1294892764 366 88 c 0
 388 132 388 186 388 222 c 0
 388 260 388 318 362 361 c 0
 336 404 293 426 249 426 c 0
 209 426 162 405 135 359 c 0
 111 315 111 261 111 222 c 0xfe
28 214 m 0
 28 339 125 448 250 448 c 0
 371 448 471 342 471 214 c 0xfe
 471 120.430565714 416.174583527 42.6030826919 338.918592672 8.11315716165 c 1
 339.100585938 7.7001953125 l 2
 348.450195312 -11 365.450195312 -48.3994140625 402 -48.3994140625 c 0
 427.5 -48.3994140625 454.700195312 -33.099609375 459.80078125 -5.8994140625 c 0
 461.5 1.75 462.350585938 8.55078125 471.700195312 8.55078125 c 0
 473.400390625 8.55078125 479.350585938 6 479.350585938 -5.8994140625 c 0xfd
 479.350585938 -39.8994140625 462.350585938 -121.5 396.05078125 -121.5 c 0
 332.30078125 -121.5 321.25 -51.7998046875 311.05078125 -2.5 c 1
 307.754116072 -3.28489451579 304.399495479 -4.06978903157 300.965494735 -4.82791412234 c 0
 284.251752434 -8.86888089631 266.843337117 -10.9999989533 249 -11 c 0
 132 -11 28 85 28 214 c 0
211.450195312 47.400390625 m 0
 211.450195312 34.650390625 220.80078125 14.25 249.700195312 14.25 c 0
 260.75 14.25 278.600585938 15.9501953125 304.100585938 26.150390625 c 1
 296.450195312 51.650390625 283.700195312 82.25 249.700195312 82.25 c 0
 227.600585938 82.25 211.450195312 66.1005859375 211.450195312 47.400390625 c 0
EndSplineSet
EndChar

StartChar: s
Encoding: 115 115 35
Width: 394
Flags: W
HStem: -11 22<143.93 258.167> 429 19<133.425 245.344>
VStem: 33 48<307.481 392.947> 33 27<108.332 169.988> 310 25<299.004 367.549> 312 48<51.5869 155.881>
LayerCount: 2
Fore
SplineSet
33 13 m 2xd4
 33 145 l 2
 33 163 33 170 46 170 c 0
 56 170 57 166 60 153 c 0
 79 68 115 11 199 11 c 0
 277 11 312 51 312 102 c 0xd4
 312 174 230 190 208 194 c 0
 136 208 108 214 76 240 c 0
 49 262 33 290 33 325 c 0
 33 381 71 448 193 448 c 4
 208 448 249 448 287 420 c 1
 291 423 301 432 304 436 c 0
 317 448 319 448 324 448 c 0
 335 448 335 441 335 424 c 2
 335 323 l 2
 335 304 335 299 322 299 c 0
 320 299 311 299 310 308 c 0
 308 339 303 429 193 429 c 0
 107 429 81 388 81 353 c 0xe8
 81 295 148 282 204 271 c 0
 246 263 285 255 318 223 c 0
 330 211 360 181 360 128 c 0
 360 56 314 -11 199 -11 c 0
 178 -11 133 -10 89 32 c 1
 71 13 71 11 69 9 c 0
 50 -10 49 -11 44 -11 c 0
 33 -11 33 -4 33 13 c 2xd4
EndSplineSet
EndChar

StartChar: x
Encoding: 120 120 36
Width: 528
Flags: W
HStem: 0 23<12 12> 408 22<17 23 17 17>
LayerCount: 2
Fore
SplineSet
12 0 m 1
 12 23 l 1
 113 28 139 99 234 209 c 1
 111 368 l 2
 87 398 72 408 23 408 c 2
 17 408 l 1
 17 430 l 1
 45 429 73 428 110 428 c 0
 147 428 184 428 221 430 c 1
 221 408 l 1
 197 405 185 392 185 379 c 0
 185 369 181 374 272 256 c 1
 325 327 350 344 350 374 c 0
 350 402 326 406 319 408 c 1
 319 430 l 1
 351 428 384 428 416 428 c 0
 444 428 471 428 498 430 c 1
 498 408 l 1
 399 404 371 332 288 236 c 1
 288 235 l 1
 421 63 l 2
 445 33 460 23 509 23 c 2
 516 23 l 1
 516 0 l 1
 484 2 452 3 419 3 c 0
 383 3 347 2 311 0 c 1
 311 23 l 1
 335 26 347 37 347 52 c 0
 347 71 301 117 250 188 c 1
 172 91 160 81 160 57 c 0
 160 30 184 25 191 23 c 1
 191 0 l 1
 159 2 127 3 95 3 c 0
 67 3 40 2 12 0 c 1
EndSplineSet
EndChar

StartChar: y
Encoding: 121 121 37
Width: 528
Flags: W
HStem: -195 31<152 156> 408 22<8 31>
VStem: 230 67<-117 -16>
LayerCount: 2
Fore
SplineSet
8 408 m 1
 8 430 l 1
 40 428 72 428 104 428 c 0
 141 428 177 428 214 430 c 1
 214 408 l 1
 200 408 157 409 157 378 c 0
 157 374 158 370 159 365 c 0
 163 352 280 55 286 41 c 1
 291 55 297 69 302 82 c 2
 394 318 l 2
 399 332 406 346 406 361 c 0
 406 389 387 405 358 408 c 1
 358 430 l 1
 387 428 416 428 445 428 c 0
 470 428 495 428 519 430 c 1
 519 408 l 1
 451 403 436 355 415 300 c 2
 304 16 l 2
 298 1 297 -3 297 -16 c 2
 297 -117 l 2
 297 -156 302 -164 368 -164 c 2
 375 -164 l 1
 375 -195 l 1
 337 -193 298 -192 260 -192 c 0
 238 -192 206 -192 152 -195 c 1
 152 -164 l 1
 156 -164 l 2
 223 -164 230 -157 230 -117 c 2
 230 -16 l 2
 230 -3 229 1 223 16 c 2
 88 362 l 2
 70 407 54 408 8 408 c 1
EndSplineSet
EndChar

StartChar: z
Encoding: 122 122 38
Width: 444
Flags: W
HStem: 0 25<112 310.366> 409 22<126.051 316>
VStem: 42 25<270 347.437> 376 25<110 187>
LayerCount: 2
Fore
SplineSet
401 187 m 5
 384 0 l 5
 54 0 l 6
 35 0 28 0 28 14 c 4
 28 19 28 21 37 32 c 6
 316 409 l 5
 202 409 l 6
 92 409 73 372 67 270 c 5
 42 270 l 5
 53 431 l 5
 373 431 l 6
 391 431 399 431 399 418 c 4
 399 414 399 412 390 401 c 6
 112 25 l 5
 230 25 l 6
 346 25 367 69 376 187 c 5
 401 187 l 5
EndSplineSet
EndChar

StartChar: a
Encoding: 97 97 39
Width: 526
Flags: W
HStem: 0 31<436.258 512> 401 31<77 155.818>
LayerCount: 2
Fore
SplineSet
320 88 m 5
 228.12890625 68.1357421875 138.041992188 53.02734375 47.83984375 -12.7998046875 c 1
 37.599609375 -12.7998046875 25.4404296875 -8.3203125 22.240234375 5.759765625 c 1
 87.51953125 112.639648438 176 181 195 320 c 24
 203 377 145 401 77 401 c 1
 77 432 l 1
 188 430 l 2
 212 430 219.007608115 423.547906531 233 398 c 2
 411 73 l 6
 433.650858349 31.6430957119 479 31 512 31 c 5
 512 0 l 5
 369 0 l 5
 328 88 l 5
 320 88 l 5
310 122 m 1
 294.306640625 157.997070312 251.98828125 236.947265625 238.959960938 267.280273438 c 1
 232.559570312 267.280273438 228.719726562 267.280273438 228.719726562 267.280273438 c 25
 186.479492188 199.440429688 130.799804688 97.6796875 130.799804688 93.2001953125 c 0
 130.799804688 89.4814453125 134.817382812 90.45703125 137.200195312 91.4013671875 c 0
 199.919921875 116.240234375 290.16015625 123.280273438 310 122 c 1
EndSplineSet
EndChar

StartChar: b
Encoding: 98 98 40
Width: 453
VWidth: 640
Flags: W
HStem: -14.0801 32<145.455 299.181> 417.28 26.2393<8.2666 66.3041 212.447 294.714>
VStem: 71.96 70.1201<23.788 369.054 374.046 414.46> 318.08 78.0801<302.331 403.31> 346.24 77<58.1977 167.098>
LayerCount: 2
Fore
SplineSet
8.2666015625 417.51953125 m 5xe8
 7.2666015625 449.280273438 l 1
 50.9208984375 447.368164062 101.19140625 447.581054688 142.080078125 449.919921875 c 1
 142.080078125 374.045898438 l 1
 180.838867188 421.35546875 220.236328125 443.51953125 282.879882812 443.51953125 c 0
 320 443.51953125 396.16015625 416.639648438 396.16015625 360.959960938 c 0xf0
 396.16015625 313.599609375 350 251 261.120117188 228.48046875 c 1
 344 226 423.240234375 172.799804688 423.240234375 117.120117188 c 0
 423.240234375 52.83203125 354.559570312 -14.080078125 208.639648438 -14.080078125 c 0
 109.338867188 -14.080078125 71.9599609375 21.396484375 71.9599609375 49.919921875 c 2
 71.9599609375 377.200195312 l 6
 71.9599609375 400.240234375 70.6796875 417.51953125 21.400390625 417.51953125 c 6
 8.2666015625 417.51953125 l 5xe8
142.080078125 341.9765625 m 1
 142.080078125 45.4404296875 l 2
 142.080078125 27.51953125 158.719726562 17.919921875 212.48046875 17.919921875 c 0
 252.799804688 17.919921875 346.240234375 19.619140625 346.240234375 117.759765625 c 0xe8
 346.240234375 185.599609375 257.280273438 220.16015625 198.400390625 220.16015625 c 1
 172.799804688 234.240234375 l 1
 281.599609375 252.16015625 318.080078125 320 318.080078125 360.959960938 c 0
 318.080078125 394.879882812 288 417.280273438 252.799804688 417.280273438 c 0
 223.124023438 417.280273438 179.279296875 396.180664062 142.080078125 341.9765625 c 1
EndSplineSet
EndChar

StartChar: c
Encoding: 99 99 41
Width: 457
Flags: W
HStem: -14 25<213.829 333.343> 427 24<209.952 324.954>
VStem: 36 81<121.812 314.993> 395 24<317.131 359.324>
LayerCount: 2
Fore
SplineSet
419 378 m 1
 419 335 l 2
 419 322 419 317 409 317 c 0
 400 317 398 322 395 331 c 0
 375 397 329 427 259 427 c 0
 230 427 117 409 117 218 c 0
 117 27 237 11 266 11 c 0
 336 11 368 37 401 84 c 0
 405 89 411 92 417 89 c 0
 424 85 422 82 419 76 c 0
 390 21 344 -14 259 -14 c 0
 140 -14 36 87 36 219 c 0
 36 350 139 451 259 451 c 0
 320 451 375 448 419 378 c 1
EndSplineSet
EndChar

StartChar: d
Encoding: 100 100 42
Width: 488
VWidth: 640
Flags: W
HStem: -9.67676 18.6621<179.905 253.556> 405.36 31.7598<41.2119 146.483>
VStem: 28.8516 79.8428<88.256 265.226> 337.126 70.1348<92.5499 268.01>
LayerCount: 2
Fore
SplineSet
128 316.61328125 m 1
 128 295.088867188 l 1
 116.06640625 265.112304688 108.694335938 221.884618296 108.694335938 184.55078125 c 0
 108.694335938 68.3837890625 162.943359375 8.9853515625 212.7109375 8.9853515625 c 0
 262.4765625 8.9853515625 337.125976562 48.3837890625 337.125976562 184.55078125 c 0
 337.125976562 308.965820312 225 360 175.360351562 379.639648438 c 4
 164.763828898 383.832103186 110.33203125 405.360351562 41.2119140625 405.360351562 c 1
 41.2119140625 437.120117188 l 1
 77.8779296875 435.514648438 174.424804688 437.759765625 174.424804688 437.759765625 c 1
 263 404 407.260742188 333.208984375 407.260742188 175.565429688 c 0
 407.260742188 69.8115234375 311.551757812 -9.6767578125 212.7109375 -9.6767578125 c 0
 109.721679688 -9.6767578125 28.8515625 74.6494140625 28.8515625 175.565429688 c 0
 28.8515625 220.083984375 43.53125 260.305664062 67.783203125 292.115234375 c 1
 128 316.61328125 l 1
EndSplineSet
EndChar

StartChar: e
Encoding: 101 101 43
Width: 457
Flags: W
HStem: -14 25<213.829 333.343> 427 24<209.952 324.954>
VStem: 101.765 15.2354<218.32 236.16> 305.52 26<141.44 197.292 254.657 311.04> 395 24<317.131 359.324>
LayerCount: 2
Fore
SplineSet
101.764648438 218.3203125 m 5
 102.139648438 236.16015625 l 5
 246.400390625 245.559570312 l 6
 304.916919213 249.372257488 305.51953125 256 305.51953125 311.040039062 c 5
 331.51953125 311.040039062 l 5
 331.51953125 141.440429688 l 5
 305.51953125 141.440429688 l 5
 305.51953125 195.83984375 304.878449628 202.310599825 246.400390625 206.919921875 c 6
 101.764648438 218.3203125 l 5
419 378 m 1
 419 335 l 2
 419 322 419 317 409 317 c 0
 400 317 398 322 395 331 c 0
 375 397 329 427 259 427 c 0
 230 427 117 409 117 218 c 0
 117 27 237 11 266 11 c 0
 336 11 368 37 401 84 c 0
 405 89 411 92 417 89 c 0
 424 85 422 82 419 76 c 0
 390 21 344 -14 259 -14 c 0
 140 -14 36 87 36 219 c 0
 36 350 139 451 259 451 c 0
 320 451 375 448 419 378 c 1
EndSplineSet
EndChar

StartChar: f
Encoding: 102 102 44
Width: 444
Flags: W
HStem: -100 23<25 93.5852 185.223 270> 199.135 27.2857<173 246.4> 408 22<25 91.9456 179 349.289>
VStem: 103 70<-70.3623 199.135 226.421 403.306> 305.52 26<127.44 182.525 241.402 297.04> 393 25<285 361.384>
LayerCount: 2
Fore
SplineSet
25 -100 m 5
 25 -77 l 5
 33 -77 l 6
 92 -77 103 -70 103 -31 c 6
 103 362 l 2
 102 401 91 408 32 408 c 2
 25 408 l 1
 25 430 l 1
 407 430 l 1
 418 285 l 1
 393 285 l 1
 385 393 370 408 264 408 c 2
 215 408 l 2
 175 408 173 398 173 350 c 2
 173 226.420907643 l 1
 246.400390625 231.559570312 l 2
 303.90234375 235.584960938 305.51953125 242 305.51953125 297.040039062 c 1
 331.51953125 297.040039062 l 1
 331.51953125 127.440429688 l 1
 305.51953125 127.440429688 l 1
 305.51953125 181.83984375 303.857421875 188.0546875 246.400390625 192.919921875 c 2
 173 199.13515946 l 1
 173 -29 l 6
 174 -70 187 -77 260 -77 c 6
 270 -77 l 5
 270 -100 l 5
 226 -98 183 -97 139 -97 c 4
 128 -97 93 -97 25 -100 c 5
EndSplineSet
EndChar

StartChar: i
Encoding: 105 105 45
Width: 286
Flags: W
HStem: 0 23<33 101.585 191.12 259> 410 22<33 100.042 191.12 259>
VStem: 111 70<27.6945 405.266>
LayerCount: 2
Fore
SplineSet
33 0 m 1
 33 23 l 1
 41 23 l 2
 100 23 111 30 111 69 c 2
 111 364 l 6
 111 405 96 410 38 410 c 6
 33 410 l 5
 33 432 l 5
 69 430 105 430 142 430 c 4
 181 430 220 430 259 432 c 5
 259 410 l 5
 252 410 l 6
 182 410 181 401 181 345 c 6
 181 89 l 2
 181 33 182 23 252 23 c 2
 259 23 l 1
 259 0 l 1
 220 2 182 3 143 3 c 0
 99 3 66 1 33 0 c 1
EndSplineSet
EndChar

StartChar: j
Encoding: 106 106 46
Width: 300
Flags: W
HStem: -101 22<-32.0218 50.2042> 410 22<37 104.042 196.042 263>
VStem: 115 70<-15.9361 405.003>
LayerCount: 2
Fore
SplineSet
115 69 m 2
 115 364 l 6
 115 405 100 410 42 410 c 6
 37 410 l 5
 37 432 l 5
 73 430 109 430 146 430 c 4
 185 430 224 430 263 432 c 5
 263 410 l 5
 256 410 l 6
 186 410 185 399 185 343 c 2
 185 89 l 2
 185 55 185 53 184 45 c 0
 174.597872581 -30.2170193507 116 -101 14 -101 c 0
 -5 -101 -39 -95 -39 -79 c 0
 -39 -58.119140625 -10 -79 12 -79 c 0
 65 -79 115 -23 115 69 c 2
EndSplineSet
EndChar

StartChar: at
Encoding: 64 64 47
Width: 798
Flags: W
HStem: -201 31<178.632 241> -153 42.7197<296.039 506.24> 0 26.9199<605.522 653.465> 401 31<248 326.752> 548.28 42.7197<296.039 502.428>
VStem: 43 44.3604<101.37 336.63> 710.64 44.3604<109.499 336.63>
LayerCount: 2
Fore
SplineSet
170 -117 m 2
 146.912296113 -155.546427359 208 -170 241 -170 c 1
 241 -201 l 1
 108 -201 l 2
 86 -201 73.4035263083 -174.279043058 86 -153 c 2
 86 -153 347 181 366 320 c 0
 373.795243848 377.028362885 316 401 248 401 c 1
 248 432 l 1
 359 430 l 2
 383 430 390 424 404 398 c 2
 582 73 l 2
 605 32 619.5 26.919921875 633.219726562 26.919921875 c 0
 668.5 26.919921875 710.639648438 151.379882812 710.639648438 219 c 0
 710.639648438 406.1796875 560.700195312 548.280273438 399.98046875 548.280273438 c 0
 237.299804688 548.280273438 87.3603515625 406.1796875 87.3603515625 219 c 0
 87.3603515625 31.8203125 237.299804688 -110.280273438 399.98046875 -110.280273438 c 0
 456.8203125 -110.280273438 505.8203125 -95.580078125 559.719726562 -61.2802734375 c 0
 569.146484375 -55.28125 585.549801544 -54.6568026464 592 -66 c 4
 598.86718267 -78.076497927 591.163263585 -93.3380523768 580 -100 c 0
 518 -137 464 -153 399 -153 c 0
 209 -153 43 12 43 219 c 0
 43 426 209 591 399 591 c 0
 589 591 755 426 755 219 c 0
 755 139 731 63 689 0 c 1
 540 0 l 1
 499 88 l 1
 483 124 423 237 410 267 c 1
 404 267 400 267 400 267 c 1
 361.507508308 204.678822974 170 -117 170 -117 c 2
EndSplineSet
EndChar

StartChar: g
Encoding: 103 103 48
Width: 457
Flags: W
HStem: -14 25<213.829 321.994> 219.626 34.6113<276.268 368.6> 427 24<209.952 324.954>
VStem: 36 81<121.812 314.993> 395 24<317.131 359.324> 409.42 29.293<81.9485 179.657>
LayerCount: 2
Fore
SplineSet
266 11 m 0xf8
 338.549804688 11 409.419921875 69.865234375 409.419921875 127.107421875 c 4
 409.419921875 161.71875 389.458007812 219.625976562 321.56640625 219.625976562 c 0
 281.610351562 219.625976562 257.002929688 186.345703125 241.694335938 155.063476562 c 1
 219.288085938 172.926757812 212.192382812 196.032226562 210.411132812 220.95703125 c 1
 233.041992188 243.586914062 260.821289062 254.237304688 292.280273438 254.237304688 c 0
 415.416015625 254.237304688 438.712890625 156.393554688 438.712890625 127.107421875 c 0xf4
 438.712890625 48.56640625 360.837890625 -14 259 -14 c 0
 140 -14 36 87 36 219 c 0
 36 350 139 451 259 451 c 0
 320 451 375 448 419 378 c 1
 419 335 l 2
 419 322 419 317 409 317 c 0
 400 317 398 322 395 331 c 0
 375 397 329 427 259 427 c 0
 230 427 117 409 117 218 c 0
 117 27 237 11 266 11 c 0xf8
EndSplineSet
EndChar

StartChar: h
Encoding: 104 104 49
Width: 558
Flags: W
HStem: -155 22<267.152 346.109> 0 23<34 102.585 188.621 257> 358 23<265.127 358.657> 437 22<34 101.352 190.577 257>
VStem: 112 67<27.745 431.858> 454 70<13.967 246.863>
LayerCount: 2
Fore
SplineSet
302 -133 m 0
 406 -133 454 23.21 454 136 c 0
 454 306 373 358 313 358 c 0
 272 358 179 325.935546875 179 193 c 2
 179 94 l 2
 179 31 178 23 252 23 c 2
 257 23 l 1
 257 0 l 1
 219 2 181 3 143 3 c 0
 121 3 88 3 34 0 c 1
 34 23 l 1
 42 23 l 2
 101 23 112 30 112 69 c 2
 112 391 l 2
 112 429.999143622 100 437 41 437 c 2
 34 437 l 1
 34 459 l 1
 72 457 110 457 149 457 c 0
 170 457 203 456 257 459 c 1
 257 437 l 1
 252 437 l 2
 192 437 180 431 179 388 c 2
 176 286 l 1
 198 333 245 381 321 381 c 0
 455 381 524 256 524 136 c 0
 524 -0.7197265625 452.02734375 -79.97265625 434 -98 c 4
 415 -117 363 -155 303 -155 c 0
 280 -155 267 -150 267 -143 c 0
 267 -135 281 -133 302 -133 c 0
EndSplineSet
EndChar

StartChar: r
Encoding: 114 114 50
Width: 477
Flags: W
HStem: 0 31<12 69.5647 144.509 211> 1.52051 19.4404<422.92 462.51> 213.36 16<197.761 229.749> 417.28 26.2393<8.2666 66.3029 211.698 275.46>
VStem: 72 70<32.5898 365.565 374.046 414.426> 308.08 78.0801<280.639 394.642>
LayerCount: 2
Fore
SplineSet
72 76 m 2xbc
 71.9599609375 377.200195312 l 2
 71.9569301208 399.999994275 70.6796875 417.51953125 21.400390625 417.51953125 c 2
 8.2666015625 417.51953125 l 1
 7.2666015625 449.280273438 l 1
 50.9208984375 447.368164062 101.19140625 447.581054688 142.080078125 449.919921875 c 1
 142.080078125 374.045898438 l 1
 180.838867188 421.35546875 223.236328125 443.51953125 272.879882812 443.51953125 c 0
 310 443.51953125 386.16015625 413.639648438 386.16015625 340.959960938 c 0
 386.16015625 293.599609375 350 241 261.120117188 218.48046875 c 1
 296.3203125 206.3203125 335.600585938 197.600585938 358 150.880859375 c 0
 366.858398438 132.404296875 375.135742188 92.3603515625 384.240234375 74.720703125 c 0
 394.48046875 54.880859375 420.280273438 20.9609375 451.640625 20.9609375 c 0
 459.09765625 20.9609375 462.520507812 15.5908203125 462.520507812 10.9208984375 c 0
 462.520507812 7.080078125 461.0625 1.5205078125 451.640625 1.5205078125 c 0x7c
 432.440429688 1.5205078125 399.93359375 -4.2490234375 370.360351562 14.3203125 c 0
 342.83984375 31.6005859375 309.760742188 65.5205078125 296.3203125 105.840820312 c 0
 283.698242188 143.708984375 283.520462091 168.560498613 259.200195312 191.600585938 c 0
 236.529296875 213.078125 208 213.360351562 197.760742188 213.360351562 c 1
 197.760742188 229.360351562 l 1
 306.560546875 247.280273438 308.080078125 300 308.080078125 340.959960938 c 0
 308.080078125 374.879882812 278 417.280273438 242.799804688 417.280273438 c 0
 206.124023438 417.280273438 168 376 142.080078125 335.9765625 c 1
 142 76 l 2
 142 31 144 31 211 31 c 1
 211 0 l 1
 110 3 l 1
 12 0 l 1
 12 31 l 1
 69 31 72 31 72 76 c 2xbc
EndSplineSet
EndChar

StartChar: m
Encoding: 109 109 51
Width: 786
Flags: W
HStem: 0 24<61 133.069 283 354.493 435.264 508 651.116 724> 412 24<211.719 294.881 490.613 576.79>
VStem: 66 82<125.611 312.109> 359 71<27.1113 350.234> 641 81<129.993 334.95>
LayerCount: 2
Fore
SplineSet
137 47 m 0
 107 79 66 152 66 214 c 0
 66 330 148 436 265 436 c 0
 320 436 365 407 395 364 c 9
 410 364 l 17
 445 407 492 438 555 438 c 0
 650 438 722 341 722 239 c 0
 722 157 681 77 648 41 c 0
 632 23 704 19 724 20 c 9
 725 0 l 25
 559 0 l 25
 559 20 l 17
 612 64 641 140 641 224 c 0
 641 309 624 411 533 411 c 0
 476 411 430 356 430 299 c 18
 430 53 l 2
 430 30 444 24 493 24 c 2
 508 24 l 1
 508 0 l 1
 485 2 420 2 395 2 c 0
 370 2 306 2 283 0 c 1
 283 24 l 1
 299 24 l 2
 348 24 359 30 359 53 c 2
 359 250 l 2
 359 327 324 412 254 412 c 0
 171 412 148 312 148 229 c 0
 148 151 169 76 229 20 c 1
 229 0 l 1
 135 2 l 1
 61 0 l 1
 61 20 l 1
 107 20 147 36 137 47 c 0
EndSplineSet
EndChar

StartChar: t
Encoding: 116 116 52
Width: 484
Flags: W
HStem: -7.67969 24.7197<233.612 326.438> 388.08 45.2002<62.4752 226.2 281.588 418.163>
VStem: 23.04 25<289.28 362.04> 76.7998 83<78.5511 254.909> 426.767 25.7139<450.127 469.301>
LayerCount: 2
Fore
SplineSet
257.280273438 -7.6796875 m 0
 150.400390625 -7.6796875 76.7998046875 52.998046875 76.7998046875 150.400390625 c 0
 76.7998046875 281.64453125 146.639648438 326.799804688 226 378 c 9
 226.200195312 388.080078125 l 1
 148.240234375 388.080078125 l 2
 64.400390625 388.080078125 57 392.3203125 48.0400390625 289.280273438 c 1
 23.0400390625 289.280273438 l 1
 35.2001953125 433.280273438 l 1
 368.639648438 433.280273438 l 2
 377.4921875 433.280273438 416 435 426.766601562 471.494140625 c 5
 452.48046875 468.48046875 l 1
 431.360351562 377.83984375 l 1
 408.959960938 386.16015625 402.559570312 388.080078125 373.759765625 388.080078125 c 0
 246.0078125 388.080078125 159.799804688 281.599609375 159.799804688 167.040039062 c 0
 159.799804688 62.53125 227.51953125 17.0400390625 281.120117188 17.0400390625 c 0
 321.987304688 17.0400390625 355.830078125 39.962890625 393.639648438 111.48046875 c 1
 414.120117188 98.0400390625 428.799804688 78.080078125 433.407226562 55.275390625 c 1
 366.080078125 -5.1201171875 289.793945312 -7.6796875 257.280273438 -7.6796875 c 0
EndSplineSet
EndChar

StartChar: w
Encoding: 119 119 53
Width: 786
Flags: W
HStem: 0 27<207.885 299.772 488.296 581.882> 414 24<61 133.069 283 354.493 483 554.001>
VStem: 66 82<125.891 312.389> 359 71<87.7153 410.541> 641 81<109.746 315.491>
LayerCount: 2
Fore
SplineSet
564 439 m 6
 642.839835416 439 722 321 722 219 c 4
 722 97 650 0 555 0 c 0
 492 0 445 31 410 74 c 9
 395 74 l 17
 365 31 320 2 265 2 c 0
 148 2 66 108 66 224 c 0
 66 286 107 359 137 391 c 0
 147 402 107 418 61 418 c 1
 61 438 l 1
 135 436 l 1
 229 438 l 1
 229 418 l 1
 169 362 148 287 148 209 c 0
 148 126 171 26 254 26 c 0
 324 26 359 111 359 188 c 2
 359 385 l 2
 359 408 348 414 299 414 c 2
 283 414 l 1
 283 438 l 1
 306 436 395 436 395 436 c 2
 421.446017279 435.527749691 428.907253022 416.557732503 429 393 c 2
 430 139 l 2
 430.224858599 81.885915899 476 27 533 27 c 0
 624 27 641 129 641 214 c 0
 641 358 576 416 483 418 c 1
 483 439 l 5
 564 439 l 6
EndSplineSet
EndChar

StartChar: u
Encoding: 117 117 54
Width: 556
Flags: W
HStem: -11 22<202.265 284.353> 0 31<464.581 535> 410 31<58 122.626 310 380.419>
VStem: 58 74<75.0584 296.487> 388 69<36.2905 109 120.133 404.709>
LayerCount: 2
Fore
SplineSet
58 180 m 0xb8
 58 290.289163843 122.638671875 386.728515625 122.638671875 397 c 0
 122.638671875 404.58203125 105.955078125 410 58 410 c 1
 58 441 l 1
 205 442 l 1
 205 442 132 312 132 182 c 0
 132 100.030273438 163 11 247 11 c 0xb8
 320 11 388 139 388 196 c 2
 388 354 l 6
 388 403 380 410 310 410 c 5
 310 441 l 1
 457 442 l 1
 457 87 l 2
 457 38 465 31 535 31 c 1
 535 0 l 1
 391 0 l 1x78
 391 109 l 1
 362 47 298 -11 242 -11 c 0
 90 -11 58 96 58 180 c 0xb8
EndSplineSet
EndChar

StartChar: v
Encoding: 118 118 55
Width: 564
Flags: W
HStem: -11 22<232.474 335.787> 410 32<32 101.966> 422 20<303 373.163>
VStem: 110 69<63.4739 404.985> 441 81<147.49 360.045>
LayerCount: 2
Fore
SplineSet
290 -11 m 0xb8
 138 -11 110 80 110 158 c 2
 110 318 l 2
 110 407 110 410 32 410 c 1
 32 442 l 1xd8
 179 442 l 1
 179 110 l 2
 179 58 206 11 290 11 c 0
 381 11 441 109 441 274 c 0
 441 398 396 420 303 422 c 1
 303 442 l 1
 364 443 l 2
 462.989790435 444.62278345 522 356 522 274 c 0
 522 142 455 -11 290 -11 c 0xb8
EndSplineSet
EndChar

StartChar: hyphen
Encoding: 45 45 56
Width: 333
Flags: W
HStem: 187 58<11 276 11 276>
VStem: 11 265<187 245 187 245>
LayerCount: 2
Fore
SplineSet
276 187 m 1
 11 187 l 1
 11 245 l 1
 276 245 l 1
 276 187 l 1
EndSplineSet
EndChar

StartChar: zero
Encoding: 48 48 57
Width: 570
Flags: W
HStem: -22 22<265 305 265 314.5> 450 22<265 305>
VStem: 74 84<196 254 196 258> 412 84<196 254>
LayerCount: 2
Fore
SplineSet
496 225 m 0
 496 159 486 91 443 40 c 0
 404 -5 344 -22 285 -22 c 0
 226 -22 166 -5 127 40 c 0
 84 91 74 159 74 225 c 0
 74 291 84 359 127 410 c 0
 166 455 226 472 285 472 c 0
 344 472 404 455 443 410 c 0
 486 359 496 291 496 225 c 0
412 225 m 0
 412 283 409 343 380 393 c 0
 360 428 325 450 285 450 c 0
 245 450 210 428 190 393 c 0
 161 343 158 283 158 225 c 0
 158 167 161 107 190 57 c 0
 210 22 245 0 285 0 c 0
 325 0 360 22 380 57 c 0
 409 107 412 167 412 225 c 0
EndSplineSet
EndChar

StartChar: one
Encoding: 49 49 58
Width: 404
Flags: W
HStem: 0 31<42 90> 4 27 397 31<37 58> 452 20G<221 234.5>
VStem: 167 75<80 414 414 414>
LayerCount: 2
Fore
SplineSet
367 0 m 1x78
 367 0 208 4 208 4 c 1x78
 208 4 42 0 42 0 c 1x80
 42 31 l 1
 90 31 l 2
 125 31 167 37 167 80 c 2
 167 414 l 1
 128 397 79 397 37 397 c 1
 37 428 l 1
 87 428 139 432 186 452 c 0
 197 458 215 472 227 472 c 0
 242 472 242 451 242 438 c 2
 242 79 l 2
 242 34 286 31 322 31 c 2
 367 31 l 1
 367 0 l 1x78
EndSplineSet
EndChar

StartChar: two
Encoding: 50 50 59
Width: 554
Flags: W
HStem: 0 73<180 386 386 394 180 443> 441 31<227.5 281.5>
VStem: 86 79<336 357.5 336 394.5> 388 92<295.5 369.5>
LayerCount: 2
Fore
SplineSet
480 138 m 1
 455 13 l 2
 453 6 450 0 443 0 c 2
 75 0 l 1
 75 4 74 9 74 14 c 0
 74 32 89 37 102 47 c 2
 260 157 l 2
 313 194 388 258 388 333 c 0
 388 406 314 441 249 441 c 0
 202 441 156 425 128 386 c 1
 149 382 165 369 165 346 c 0
 165 326 150 307 126 307 c 0
 104 307 86 322 86 349 c 0
 86 440 194 472 261 472 c 0
 352 472 480 443 480 332 c 0
 480 255 420 210 357 174 c 2
 180 73 l 1
 386 73 l 2
 402 73 415 73 427 76 c 0
 449 80 444 138 464 138 c 2
 480 138 l 1
EndSplineSet
EndChar

StartChar: three
Encoding: 51 51 60
Width: 563
Flags: W
HStem: -216 28<251.5 295 251.5 337> -1 21G<118 144.5> 143 26 284 101<141 148.5 141 167.5> 284 188<137.5 326> 447 25<256 294.5>
VStem: 74 112<-76 -39 -76 -37> 101 102<320.5 360 320.5 374> 120 103 141 112 186 92 267 103 274 112 370 92<329 375 294.5 380> 386 103<-74 18 -74 26>
LayerCount: 2
Fore
SplineSet
489 -23 m 0x0824
 489 -125 398 -216 276 -216 c 0
 167 -216 74 -150 74 -59 c 0x8202
 74 -15 106 -1 130 -1 c 0
 159 -1 186 -21 186 -57 c 0x4020
 186 -95 155 -117 120 -112 c 1
 155 -171 230 -188 273 -188 c 0
 317 -188 386 -159 386 -23 c 0
 386 75 349 143 267 143 c 2
 223 143 l 2xa092
 206 143 199 143 199 154 c 0
 199 164 206 165 214 166 c 0
 221 166 245 168 253 169 c 0
 278 170 312 173 342 221 c 0
 368 265 370 323 370 335 c 0x2044
 370 425 315 447 274 447 c 0
 238 447 172 434 141 385 c 1x1448
 156 385 203 385 203 335 c 0
 203 306 183 284 152 284 c 0
 123 284 101 303 101 336 c 0x11
 101 412 177 472 278 472 c 0
 374 472 462 416 462 334 c 0
 462 255 404 185 322 158 c 1
 426 137 489 59 489 -23 c 0x0824
EndSplineSet
EndChar

StartChar: four
Encoding: 52 52 61
Width: 517
Flags: W
HStem: -194 31<206 227> -191 28 0 31<65 303 37 37 380 480> 465 20G<359.5 372>
VStem: 303 77<-116 0> 309 71<31 377 377 377>
LayerCount: 2
Fore
SplineSet
480 0 m 1x78
 380 0 l 1
 380 -116 l 2
 380 -152 382 -163 456 -163 c 2
 477 -163 l 1
 477 -194 l 1
 436 -191 383 -191 341 -191 c 0xa8
 299 -191 247 -191 206 -194 c 1x80
 206 -163 l 1
 227 -163 l 2
 301 -163 303 -152 303 -116 c 2
 303 0 l 1
 37 0 l 1
 37 31 l 1
 344 473 l 2
 352 485 355 485 364 485 c 0
 380 485 380 479 380 459 c 2
 380 31 l 1
 480 31 l 1
 480 0 l 1x78
309 31 m 1
 309 377 l 1x24
 65 31 l 1
 309 31 l 1
EndSplineSet
EndChar

StartChar: six
Encoding: 54 54 62
Width: 563
Flags: W
HStem: -22 28<251.5 294.5 251.5 338.5> 404 23<255 296> 510 91<419.5 426> 641 25<313.5 351>
VStem: 74 90<328 352 328 426.5> 74 92<217 265 217 426.5> 289 92 337 90 372 92<540.5 578.5> 399 90<181 229.5>
LayerCount: 2
Fore
SplineSet
489 204 m 0x5a
 489 72 394 -22 283 -22 c 0
 190 -22 74 49 74 316 c 0
 74 537 209 666 337 666 c 0x99
 420 666 464 618 464 558 c 0
 464 519 434 510 418 510 c 0
 396 510 372 525 372 556 c 0x2080
 372 601 412 601 427 601 c 1x21
 405 635 363 641 339 641 c 0
 288 641 164 605 164 352 c 2
 164 328 l 1
 184 376 221 427 289 427 c 0
 400 427 489 331 489 204 c 0x5a
399 205 m 0
 399 254 399 305 381 342 c 0
 350 404 304 404 288 404 c 0
 198 404 166 304 166 226 c 0
 166 208 166 128 184 81 c 0
 190 66 220 6 283 6 c 0
 306 6 352 11 382 71 c 0
 399 107 399 157 399 205 c 0
EndSplineSet
EndChar

StartChar: seven
Encoding: 55 55 63
Width: 503
Flags: W
HStem: -213 21G<180 226> 376 77<178.5 466 223 392> 465 20G<70 95 95 95>
VStem: 157 92<-163 -158 -158 -107>
LayerCount: 2
Fore
SplineSet
466 453 m 1
 466 432 466 430 457 418 c 2
 322 228 l 2
 278 166 264 80 260 57 c 0
 252 3 249 -52 249 -107 c 2
 249 -158 l 2
 249 -168 249 -213 203 -213 c 0
 157 -213 157 -168 157 -158 c 0
 157 -56 190 83 280 218 c 1
 392 376 l 1
 185 376 l 2
 172 376 94 376 87 370 c 0
 74 358 65 295 62 279 c 1
 37 279 l 1
 70 485 l 1
 95 485 l 1
 99 466 101 453 223 453 c 2
 466 453 l 1
EndSplineSet
EndChar

StartChar: eight
Encoding: 56 56 64
Width: 563
Flags: W
HStem: -22 28<239 323 239 337.5> 641 25<245.5 317.5>
VStem: 74 50<109.5 180 109.5 200.5> 101 44<529.5 545.5> 145 50 418 44<488.5 553> 439 50<114.5 162.5>
LayerCount: 2
Fore
SplineSet
489 168 m 0x54
 489 61 394 -22 281 -22 c 0
 176 -22 74 45 74 151 c 0xea
 74 250 160 306 218 335 c 1
 193 352 156 377 145 389 c 0
 103 436 101 481 101 499 c 0
 101 592 182 666 282 666 c 0
 373 666 462 609 462 517 c 0
 462 451 413 399 341 362 c 1
 405 322 421 312 440 291 c 0
 478 249 489 204 489 168 c 0x54
418 517 m 0
 418 589 354 641 281 641 c 0
 210 641 145 599 145 538 c 0
 145 521 149 487 195 457 c 2
 319 377 l 1
 379 412 418 460 418 517 c 0
439 132 m 0
 439 193 392 223 364 242 c 2
 241 320 l 1
 156 273 124 209 124 151 c 0
 124 68 196 6 282 6 c 0
 364 6 439 58 439 132 c 0
EndSplineSet
EndChar

StartChar: nine
Encoding: 57 57 65
Width: 563
Flags: W
HStem: -216 28<228.5 266 228.5 302.5> -152 92<139 156 137 161> 24 23<267 304.5> 110 25 135 92 384 25 447 25<267.5 308>
VStem: 74 90<221.5 273 221.5 284.5> 99 92<-114.5 -90.5 -114.5 -88.5> 145 92 182 92 185 90 397 92<185.5 250> 399 90<92 124 124 124>
LayerCount: 2
Fore
SplineSet
489 135 m 0x2724
 489 -80 367 -216 238 -216 c 0
 153 -216 99 -175 99 -108 c 0x8884
 99 -69 129 -60 145 -60 c 0x4040
 167 -60 191 -75 191 -106 c 0x0080
 191 -123 183 -152 139 -152 c 1
 166 -186 220 -188 237 -188 c 0xc040
 295 -188 399 -142 399 92 c 2
 399 124 l 1
 376 66 335 24 274 24 c 0
 162 24 74 122 74 247 c 0
 74 322 97 364 138 409 c 0
 181 454 230 472 285 472 c 0
 374 472 489 404 489 135 c 0x2724
397 227 m 0
 397 273 393 336 381 368 c 0
 364 413 331 447 285 447 c 0
 250 447 212 434 185 384 c 0x0e18
 164 347 164 300 164 246 c 0
 164 197 164 147 182 110 c 0x1120
 213 47 259 47 275 47 c 0x2010
 363 47 397 144 397 227 c 0
EndSplineSet
EndChar

StartChar: colon
Encoding: 58 58 66
Width: 278
Flags: W
HStem: 0 106<124.5 153.5> 325 106<124.5 153.5>
VStem: 86 106<38.5 67.5 363.5 392.5>
LayerCount: 2
Fore
SplineSet
192 378 m 0
 192 349 168 325 139 325 c 0
 110 325 86 349 86 378 c 0
 86 407 110 431 139 431 c 0
 168 431 192 407 192 378 c 0
192 53 m 0
 192 24 168 0 139 0 c 0
 110 0 86 24 86 53 c 0
 86 82 110 106 139 106 c 0
 168 106 192 82 192 53 c 0
EndSplineSet
EndChar

StartChar: semicolon
Encoding: 59 59 67
Width: 278
Flags: W
HStem: -193 21G<109.5 117.5> 0 106<121.5 141.5> 325 106<124.5 153.5>
VStem: 86 106<363.5 392.5>
LayerCount: 2
Fore
SplineSet
192 378 m 0
 192 349 168 325 139 325 c 0
 110 325 86 349 86 378 c 0
 86 407 110 431 139 431 c 0
 168 431 192 407 192 378 c 0
195 3 m 0
 195 -113 123 -193 112 -193 c 0
 107 -193 102 -189 102 -182 c 0
 102 -179 102 -177 109 -169 c 0
 173 -95 173 -17 173 11 c 1
 165 4 154 2 147 1 c 2
 147 1 144 0 139 0 c 0
 103 0 86 27 86 53 c 0
 86 79 104 106 139 106 c 0
 193 106 195 32 195 3 c 0
EndSplineSet
EndChar

StartChar: less
Encoding: 60 60 68
Width: 778
Flags: W
VStem: 83 611<-25.5 256>
LayerCount: 2
Fore
SplineSet
694 -20 m 0
 694 -31 685 -40 674 -40 c 0
 671 -40 669 -40 656 -33 c 2
 102 228 l 2
 91 233 83 238 83 250 c 0
 83 262 91 267 102 272 c 2
 656 533 l 2
 669 540 671 540 674 540 c 0
 685 540 694 531 694 520 c 0
 694 509 687 504 675 498 c 2
 150 250 l 1
 675 2 l 2
 687 -4 694 -9 694 -20 c 0
EndSplineSet
EndChar

StartChar: equal
Encoding: 61 61 69
Width: 778
Flags: W
HStem: 133 40<82 687 90 687 687 688> 327 40<89 90 90 687>
VStem: 56 665<143 163 337 357>
LayerCount: 2
Fore
SplineSet
721 347 m 0
 721 327 702 327 687 327 c 2
 90 327 l 2
 75 327 56 327 56 347 c 0
 56 367 75 367 89 367 c 2
 688 367 l 2
 702 367 721 367 721 347 c 0
721 153 m 0
 721 133 702 133 688 133 c 2
 89 133 l 2
 75 133 56 133 56 153 c 0
 56 173 75 173 90 173 c 2
 687 173 l 2
 702 173 721 173 721 153 c 0
EndSplineSet
EndChar

StartChar: greater
Encoding: 62 62 70
Width: 778
Flags: W
VStem: 83 611<-25.5 256 244 525.5>
LayerCount: 2
Fore
SplineSet
694 250 m 0
 694 238 686 233 675 228 c 2
 121 -33 l 2
 108 -40 106 -40 103 -40 c 0
 92 -40 83 -31 83 -20 c 0
 83 -11 88 -5 102 2 c 2
 627 250 l 1
 102 498 l 2
 88 505 83 511 83 520 c 0
 83 531 92 540 103 540 c 0
 106 540 108 540 121 533 c 2
 675 272 l 2
 686 267 694 262 694 250 c 0
EndSplineSet
EndChar

StartChar: plus
Encoding: 43 43 71
Width: 778
Flags: W
HStem: -83 21G<379 399> 230 40<82 369 89 369 409 688> 563 20G<379 399>
VStem: 369 40<-50 230 270 550>
LayerCount: 2
Fore
SplineSet
721 250 m 0
 721 230 702 230 688 230 c 2
 409 230 l 1
 409 -50 l 2
 409 -64 409 -83 389 -83 c 0
 369 -83 369 -64 369 -50 c 2
 369 230 l 1
 89 230 l 2
 75 230 56 230 56 250 c 0
 56 270 75 270 89 270 c 2
 369 270 l 1
 369 550 l 2
 369 564 369 583 389 583 c 0
 409 583 409 564 409 550 c 2
 409 270 l 1
 688 270 l 2
 702 270 721 270 721 250 c 0
EndSplineSet
EndChar

StartChar: exclam
Encoding: 33 33 72
Width: 278
Flags: W
HStem: 0 106<124.5 153.5>
LayerCount: 2
Fore
SplineSet
192 665 m 2
 153 209 l 2
 152 192 149 187 139 187 c 0
 127 187 126 195 125 210 c 2
 86 665 l 2
 86 698 113 716 139 716 c 0
 165 716 192 698 192 665 c 2
192 53 m 0
 192 24 168 0 139 0 c 0
 110 0 86 24 86 53 c 0
 86 82 110 106 139 106 c 0
 168 106 192 82 192 53 c 0
EndSplineSet
EndChar

StartChar: quotedbl
Encoding: 34 34 73
Width: 374
Flags: W
HStem: 423 21G<126 152 126 126 222 222 222 248> 685 20G<129.539 149 225 245>
LayerCount: 2
Fore
SplineSet
174 670 m 2
 152 423 l 1
 126 423 l 1
 104 670 l 2
 103.892578125 671.077148438 103.83984375 672.139648438 103.83984375 673.186523438 c 0
 103.83984375 691.572265625 120.077148438 705 139 705 c 0
 159 705 176 690 174 670 c 2
270 670 m 2
 248 423 l 1
 222 423 l 1
 200 670 l 2
 198 690 215 705 235 705 c 0
 255 705 272 690 270 670 c 2
EndSplineSet
EndChar

StartChar: numbersign
Encoding: 35 35 74
Width: 833
Flags: W
HStem: -194 21G<181.5 195 410.5 424> 133 40<82 261 90 249 302 478 90 290 531 742 742 743> 327 40<89 90 90 301 89 342 354 530 583 742> 674 20G<408 421.5 637 650.5>
VStem: 56 720<143 163 337 357>
LayerCount: 2
Fore
SplineSet
776 153 m 0
 776 133 757 133 743 133 c 2
 519 133 l 1
 438 -170 l 2
 435 -181 432 -194 416 -194 c 0
 405 -194 396 -185 396 -174 c 0
 396 -170 399 -158 400 -156 c 2
 478 133 l 1
 290 133 l 1
 209 -170 l 2
 206 -181 203 -194 187 -194 c 0
 176 -194 167 -185 167 -174 c 0
 167 -170 170 -158 171 -156 c 2
 249 133 l 1
 89 133 l 2
 75 133 56 133 56 153 c 0
 56 173 75 173 90 173 c 2
 261 173 l 1
 301 327 l 1
 90 327 l 2
 75 327 56 327 56 347 c 0
 56 367 75 367 89 367 c 2
 313 367 l 1
 394 670 l 2
 397 681 400 694 416 694 c 0
 427 694 436 685 436 674 c 0
 436 670 433 658 432 656 c 2
 354 367 l 1
 542 367 l 1
 623 670 l 2
 626 681 629 694 645 694 c 0
 656 694 665 685 665 674 c 0
 665 670 662 658 661 656 c 2
 583 367 l 1
 743 367 l 2
 757 367 776 367 776 347 c 0
 776 327 757 327 742 327 c 2
 571 327 l 1
 531 173 l 1
 742 173 l 2
 757 173 776 173 776 153 c 0
530 327 m 1
 342 327 l 1
 302 173 l 1
 490 173 l 1
 530 327 l 1
EndSplineSet
EndChar

StartChar: dollar
Encoding: 36 36 75
Width: 500
Flags: W
HStem: -56 21G<234 265 234 234> -10 31<265 265> 137 92<100 114.5 99 115.5> 311 92<265 265> 319 92<234 234> 479 92<386.5 398.5> 673 31<234 234> 730 20G<234 265 265 265>
VStem: 56 51<533 558.5> 234 31<-56 -11 -11 -11 21 311 411 673 705 750> 392 51<143.5 177>
LayerCount: 2
Fore
SplineSet
443 195 m 0x17e0
 443 92 370 -1 265 -10 c 1
 265 -56 l 1
 234 -56 l 1
 234 -11 l 1
 109 -3 56 89 56 178 c 0
 56 227 96 229 102 229 c 0
 127 229 148 211 148 183 c 0
 148 156 129 137 102 137 c 0
 98 137 90 138 86 139 c 1
 99 77 146 26 234 21 c 1
 234 319 l 1xe8e0
 183 332 149 340 111 379 c 0
 93 396 56 444 56 513 c 0
 56 604 123 694 234 704 c 1
 234 750 l 1
 265 750 l 1
 265 705 l 1
 377 699 443 626 443 529 c 0
 443 480 400 479 397 479 c 0
 376 479 351 494 351 525 c 0
 351 553 371 571 397 571 c 0
 407 571 409 570 413 569 c 1
 398 625 350 669 265 673 c 1
 265 403 l 1
 313 391 349 382 389 338 c 0
 398 329 443 278 443 195 c 0x17e0
392 165 m 0
 392 189 385 286 265 311 c 1x12e0
 265 21 l 1
 344 31 392 98 392 165 c 0
234 411 m 1
 234 673 l 1
 154 665 107 603 107 543 c 0
 107 523 111 437 234 411 c 1
EndSplineSet
EndChar

StartChar: percent
Encoding: 37 37 76
Width: 833
Flags: W
HStem: -56 22<637 673 637 682.5> 325 22<636.5 673.5> 347 22<194 230 194 239.5> 619 22<445 498.5 427 501> 728 22<193.5 219 165 230.5>
VStem: 56 62<488.5 607.5> 179 25 308 25<495 555 492 601.5> 499 62<85.5 204.5> 751 25<92 198.5>
LayerCount: 2
Fore
SplineSet
693 730 m 0xbfc0
 693 724 691 721 685 712 c 2
 179 -41 l 2
 171 -52 169 -56 159 -56 c 0
 149 -56 139 -47 139 -36 c 1
 139 -36 139 -29 148 -16 c 2
 597 653 l 1
 596 654 l 1
 590 650 539 619 463 619 c 0
 427 619 377 624 312 661 c 1
 333 609 333 562 333 548 c 0
 333 436 276 347 203 347 c 0
 128 347 56 428 56 549 c 0
 56 666 127 750 203 750 c 0
 235 750 256 735 275 718 c 0
 330 666 392 641 462 641 c 0
 535 641 602 668 652 736 c 0
 658 743 663 750 673 750 c 0
 684 750 693 741 693 730 c 0xbfc0
776 145 m 0
 776 33 719 -56 646 -56 c 0
 571 -56 499 25 499 146 c 0
 499 263 570 347 646 347 c 0
 717 347 776 260 776 145 c 0
308 549 m 0
 308 654 257 728 204 728 c 0
 183 728 118 715 118 548 c 0
 118 382 184 369 204 369 c 0
 256 369 308 441 308 549 c 0
751 146 m 0
 751 251 700 325 647 325 c 0x4040
 626 325 561 312 561 145 c 0
 561 -21 627 -34 647 -34 c 0
 699 -34 751 38 751 146 c 0
EndSplineSet
EndChar

StartChar: ampersand
Encoding: 38 38 77
Width: 912
Flags: W
HStem: -22 31<335.141 509.42> 425.233 20G<854.078 887.053> 674 31<334.604 503.183>
VStem: 56 103<217.113 465.425> 436.19 24.7363<322.374 353.355> 610 58<473.002 586.952>
LayerCount: 2
Fore
SplineSet
627 453.901367188 m 9
 627 441.008789062 l 1
 798.999023438 415.838867188 l 2
 807.931472187 414.531714201 846.109375 410.682617188 862.046875 445.233398438 c 1
 887.052734375 438.52734375 l 1
 853.03125 351.900390625 l 1
 832.071289062 363.376953125 826.016601562 366.203125 797.520507812 370.373046875 c 0
 671.114257812 388.872070312 570.396484375 295.99609375 553.80859375 182.64453125 c 0
 538.67578125 79.236328125 599.094726562 24.4189453125 652.130859375 16.658203125 c 0
 692.567382812 10.740234375 729.372070312 28.521484375 777.138671875 93.810546875 c 1
 795.45703125 77.5458984375 807.092773438 55.6708984375 808.348632812 32.439453125 c 1
 732.986328125 -17.5712890625 657.133789062 -9.0576171875 624.962890625 -4.349609375 c 0
 600.711923563 -0.800599974547 578.65454878 5.65211018948 559.230046584 14.6523322993 c 1
 519.429387683 -8.82092233814 469.114597428 -22 404 -22 c 0
 218 -22 56 135 56 342 c 0
 56 546 217 705 404 705 c 0
 500 705 668 678.78555004 668 539 c 0
 668 503.264670633 653.359679469 474.141098924 627 453.901367188 c 9
610 513 m 0
 610 582 554 674 415 674 c 0
 354 674 159 640 159 341 c 0
 159 43 355 9 416 9 c 0
 461.450501192 9 497.810867658 17.4352361607 528.459412397 32.6065581934 c 1
 483.158286688 65.5117722874 460.261297292 116.611627154 469.274414062 178.198242188 c 0
 488.278320312 308.059570312 563.919921875 342.625976562 649.858398438 381.794921875 c 1
 651.515625 391.740234375 l 1
 574.376953125 403.028320312 l 2
 491.420898438 415.16796875 484.712890625 420.435546875 460.926757812 319.778320312 c 1
 436.190429688 323.3984375 l 1
 469.073242188 464.120117188 l 1
 511 460 610 441.153320312 610 513 c 0
EndSplineSet
Substitution2: "'salt' Stylistic Alternatives lookup 1-1" ampersand.alt
EndChar

StartChar: quotesingle
Encoding: 39 39 78
Width: 278
Flags: W
HStem: 423 21G<126 152 126 126> 685 20G<129 149>
VStem: 126 26<423 423>
LayerCount: 2
Fore
SplineSet
174 670 m 2
 152 423 l 1
 126 423 l 1
 104 670 l 2
 102 690 119 705 139 705 c 0
 159 705 176 690 174 670 c 2
EndSplineSet
EndChar

StartChar: parenleft
Encoding: 40 40 79
Width: 389
Flags: W
HStem: -250 21G<316 324> 730 20G<316 324>
VStem: 99 58<211 292>
LayerCount: 2
Fore
SplineSet
331 -240 m 0
 331 -247 327 -250 321 -250 c 0
 311 -250 225 -185 165 -62 c 0
 110 51 99 172 99 250 c 0
 99 334 111 445 162 555 c 0
 221 682 311 750 321 750 c 0
 327 750 331 747 331 740 c 0
 331 737 331 735 318 723 c 0
 195 598 157 424 157 250 c 0
 157 97 189 -92 314 -218 c 0
 331 -235 331 -237 331 -240 c 0
EndSplineSet
EndChar

StartChar: parenright
Encoding: 41 41 80
Width: 389
Flags: W
HStem: -250 21G<64 72> 730 20G<64 72>
VStem: 231 58<208 289 208 354.5>
LayerCount: 2
Fore
SplineSet
289 250 m 0
 289 166 277 55 226 -55 c 0
 167 -182 77 -250 67 -250 c 0
 61 -250 57 -246 57 -240 c 0
 57 -237 57 -235 70 -223 c 0
 194 -97 231 79 231 250 c 0
 231 459 174 618 76 717 c 0
 57 735 57 737 57 740 c 0
 57 746 61 750 67 750 c 0
 77 750 163 685 223 562 c 0
 278 449 289 328 289 250 c 0
EndSplineSet
EndChar

StartChar: asterisk
Encoding: 42 42 81
Width: 500
Flags: W
HStem: 319 21G<242.5 257> 730 20G<242 256.5>
VStem: 65 369<441 446.5 434.5 447 622.5 634.5>
LayerCount: 2
Fore
SplineSet
434 441 m 0
 434 428 423 413 407 413 c 0
 399 413 396 416 391 419 c 2
 261 514 l 1
 276 344 l 2
 276 331 265 319 249 319 c 0
 236 319 223 329 223 344 c 2
 238 514 l 1
 98 413 l 1
 65 413 65 441 65 441 c 1
 65 453 69 460 88 469 c 2
 227 535 l 1
 86 601 l 2
 69 609 65 617 65 628 c 0
 65 641 76 656 92 656 c 0
 98 656 100 656 114 645 c 2
 238 555 l 1
 223 725 l 2
 223 738 234 750 250 750 c 0
 263 750 276 740 276 725 c 2
 261 555 l 1
 372 637 l 2
 398 656 400 656 407 656 c 0
 423 656 434 641 434 628 c 0
 434 616 430 609 411 600 c 2
 272 534 l 1
 413 468 l 2
 430 460 434 452 434 441 c 0
EndSplineSet
EndChar

StartChar: Alpha
Encoding: 913 913 82
Width: 710
Flags: W
HStem: 0 32<604.263 691> 649 34<120.394 200.196>
LayerCount: 2
Fore
SplineSet
465 139 m 5
 321.451171875 107.961914062 206.940429688 82.8544921875 66 -20 c 5
 50 -20 31 -13 26 9 c 5
 128 176 302 420 302 502 c 4
 302 525.76953125 295 546 280 568 c 4
 243.21484375 621.952148438 178.393554688 649 120.393554688 649 c 5
 120.393554688 683 l 5
 177.68359375 680.491210938 245.327148438 679.8125 318.5390625 684 c 5
 597.92578125 58 l 6
 607.787109375 35.9052734375 623.200195312 32 675.200195312 32 c 6
 691 32 l 5
 691 0 l 5
 685 0 l 5
 665.650390625 4 526.737304688 3 514 0 c 4
 512.045898438 -0.4599609375 483.6796875 96.0087890625 465 139 c 5
452 179 m 5
 427.478515625 235.24609375 365.356445312 368.604492188 343 416 c 5
 333 416 323 416 323 416 c 5
 257 310 144 132.810546875 144 125.810546875 c 4
 144 120 150.27734375 121.525390625 154 123 c 4
 251.997070312 161.818359375 421 181 452 179 c 5
EndSplineSet
EndChar

StartChar: Beta
Encoding: 914 914 83
Width: 708
Flags: W
HStem: -22 50<230.518 458.037> 344 22<310 314.879> 652 41<335.036 460.182> 668 34<23.8545 127.397>
VStem: 139 83<41.428 545.192 584.446 658.374> 497 97<499.997 618.168> 541 100<101.57 245.64>
LayerCount: 2
Fore
SplineSet
23.8544921875 668 m 1xda
 23.8544921875 702 l 1xda
 92.0634765625 699.012695312 158.112304688 699.345703125 222 703 c 1
 222 584.446252944 l 1
 282.560331468 658.368053343 344.11951078 693 442 693 c 0
 500 693 594 651 594 564 c 0xec
 594 490 486 388 408 357 c 1
 519 345 641 270 641 183 c 0
 641 82.55078125 554 -22 326 -22 c 0
 170.842015997 -22 139 33.4325977444 139 78 c 2
 139 605 l 2
 139 641 137 668 60 668 c 2
 23.8544921875 668 l 1xda
222 518.713040497 m 1
 222 71 l 2
 222 43 248 28 332 28 c 0
 395 28 541 30.654296875 541 184 c 0xea
 541 290 402 344 310 344 c 1
 270 366 l 1
 440 394 497 500 497 564 c 0
 497 617 450 652 395 652 c 0xec
 348.630884052 652 280.124462261 603.407966355 222 518.713040497 c 1
EndSplineSet
EndChar

StartChar: Sigma
Encoding: 931 931 84
Width: 722
Flags: W
HStem: -22 31<335.141 507.57> 674 31<334.604 502.446>
VStem: 56 103<217.113 465.425> 623 32<500.003 557.532>
LayerCount: 2
Fore
SplineSet
655 591 m 1
 655 524 l 2
 655 503 655 500 639 500 c 0
 625 500 627.076171875 503.458007812 623 517 c 0
 592 620 524 674 415 674 c 0
 354 674 159 640 159 341 c 0
 159 43 355 9 416 9 c 0
 525 9 581.71875 57.5146484375 632.755859375 131.109375 c 4
 638.483398438 139.368164062 641.229492188 144.71875 650.912109375 139.498046875 c 4
 662.354492188 133.329101562 659.033203125 127.16796875 654.287109375 118.365234375 c 4
 608.254882812 32.9833984375 537 -22 404 -22 c 4
 218 -22 56 135 56 342 c 0
 56 546 217 705 404 705 c 0
 500 705 587 700 655 591 c 1
EndSplineSet
EndChar

StartChar: Gamma
Encoding: 915 915 85
Width: 625
Flags: W
HStem: -100 32<32 129.448 231.002 353> 648 32<32 128.498 227.017 472.182>
VStem: 135 90<92.303 643.852> 556 26<454 532.307>
LayerCount: 2
Fore
SplineSet
135 619 m 1
 125 649 109 648 50 648 c 2
 32 648 l 1
 32 680 l 1
 42 680 l 2
 55 677 133 677 406 680 c 2
 554 680 l 1
 554 676 l 2
 557 670 580 463 582 458 c 2
 582 454 l 1
 556 454 l 1
 556 458 l 1
 551 493 544 577 504 612 c 0
 463 651 403 647 335 648 c 0
 242 648 237 652 226 631 c 1
 225 347 l 2
 225 32 224 -43 231 -52 c 4
 239 -64 264 -68 331 -68 c 6
 353 -68 l 5
 353 -100 l 5
 341 -100 l 6
 324 -97 64 -96 42 -100 c 5
 32 -100 l 5
 32 -68 l 5
 50 -68 l 6
 122 -68 127 -63 135 -39 c 5
 135 619 l 1
EndSplineSet
EndChar

StartChar: Epsilon
Encoding: 917 917 86
Width: 722
Flags: W
HStem: -22 31<335.309 507.57> 328 51<227.215 473.485> 338 31<159.593 317.202> 674 31<336.194 502.446>
VStem: 56 103.007<217.893 338 369 460.529> 493 25<221 296.71 409.87 486> 623 32<500.003 557.532>
LayerCount: 2
Fore
SplineSet
655 591 m 1xbe
 655 524 l 2
 655 503 655 500 639 500 c 0
 625 500 627.076171875 503.458007812 623 517 c 0
 592 620 524 674 415 674 c 0
 355.959385 674 171.388959353 642.149152522 159.592677774 369 c 1xbe
 385 379 l 6
 480.811426238 383.250590677 493 400 493 486 c 1
 518 486 l 1
 518 221 l 1
 493 221 l 1
 493 306 480.812401053 323.76038851 385 328 c 6xde
 159.006648327 338 l 1
 160.31783708 42.7715154789 355.205309564 9 416 9 c 0
 525 9 581.71875 57.5146484375 632.755859375 131.109375 c 0
 638.483398438 139.368164062 641.229492188 144.71875 650.912109375 139.498046875 c 0
 662.354492188 133.329101562 659.033203125 127.16796875 654.287109375 118.365234375 c 0
 608.254882812 32.9833984375 537 -22 404 -22 c 0
 218 -22 56 135 56 342 c 0
 56 546 217 705 404 705 c 0
 500 705 587 700 655 591 c 1xbe
EndSplineSet
EndChar

StartChar: Zeta
Encoding: 918 918 87
Width: 611
Flags: W
HStem: 0 34<159 323 323 415.5> 652 31<213 295 295 452>
VStem: 56 504<8.5 267>
LayerCount: 2
Fore
SplineSet
560 267 m 1
 543 0 l 1
 82 0 l 2
 61 0 56 0 56 17 c 0
 56 25 56 26 63 37 c 2
 452 652 l 1
 295 652 l 2
 131 652 101 571 94 458 c 1
 69 458 l 1
 80 683 l 1
 528 683 l 2
 548 683 554 683 554 667 c 0
 554 660 554 659 547 648 c 2
 159 34 l 1
 323 34 l 2
 508 34 527 128 535 267 c 1
 560 267 l 1
EndSplineSet
EndChar

StartChar: uni0394
Encoding: 916 916 88
Width: 750
Flags: W
HStem: 0 32<18 72.3675 206.543 479.412 644.263 731> 649 34<160.394 230.093>
LayerCount: 2
Fore
SplineSet
731 0 m 25
 18 0 l 1
 18 32 l 1
 37 32 64 34 81 57 c 0
 197.999441516 215.293362051 251.151975764 317.475441657 355.368524365 479.615767544 c 1
 333.182228914 527.209639635 318.653705703 550.43675616 317 553 c 0
 277 615 218.393554688 649 160.393554688 649 c 1
 160.393554688 683 l 1
 217.683626545 680.490736816 285.327148438 678.8125 358.5390625 683 c 1
 637.92578125 58 l 2
 647.787109375 35.9052734375 663.200195312 32 715.200195312 32 c 2
 731 32 l 1
 731 0 l 25
540 63 m 1
 515.446289062 119.719726562 412.618164062 351.188476562 379 430 c 1
 288.869140625 302.94140625 173.430664062 95.869140625 173.430664062 64.701171875 c 0
 173.430664062 41.701171875 294.430664062 37.701171875 367.430664062 37.701171875 c 0
 435.731445312 37.701171875 510 51 540 63 c 1
EndSplineSet
EndChar

StartChar: Eta
Encoding: 919 919 89
Width: 750
Flags: W
HStem: 0 31<33 57> 340 31<225 524 225 524> 652 31<33 57 33 33>
VStem: 136 89<78 340 371 605> 524 89<78 340 340 340 371 605>
LayerCount: 2
Fore
SplineSet
716 0 m 1
 681 3 606 3 568 3 c 0
 530 3 456 3 421 0 c 1
 421 31 l 1
 445 31 l 2
 522 31 524 42 524 78 c 2
 524 340 l 1
 225 340 l 1
 225 78 l 2
 225 42 227 31 304 31 c 2
 328 31 l 1
 328 0 l 1
 293 3 218 3 180 3 c 0
 142 3 68 3 33 0 c 1
 33 31 l 1
 57 31 l 2
 134 31 136 42 136 78 c 2
 136 605 l 2
 136 641 134 652 57 652 c 2
 33 652 l 1
 33 683 l 1
 68 680 143 680 181 680 c 0
 219 680 293 680 328 683 c 1
 328 652 l 1
 304 652 l 2
 227 652 225 641 225 605 c 2
 225 371 l 1
 524 371 l 1
 524 605 l 2
 524 641 522 652 445 652 c 2
 421 652 l 1
 421 683 l 1
 456 680 531 680 569 680 c 0
 607 680 681 680 716 683 c 1
 716 652 l 1
 692 652 l 2
 615 652 613 641 613 605 c 2
 613 78 l 2
 613 42 615 31 692 31 c 2
 716 31 l 1
 716 0 l 1
EndSplineSet
EndChar

StartChar: Theta
Encoding: 920 920 90
Width: 778
Flags: W
HStem: -22 27<322.674 453.782> 324 63<158.974 617.198> 680 25<323.563 452.895>
VStem: 55 103.686<211.421 324 387 467.192> 617.222 103.778<215.26 324 387 467.592>
LayerCount: 2
Fore
SplineSet
55 339 m 0
 55 547 209 705 388 705 c 0
 565 705 721 548 721 339 c 0
 721 130 564 -22 388 -22 c 0
 212 -22 55 131 55 339 c 0
158.68577601 324 m 1
 162.57415994 245.329289179 175.86817172 147.178630374 244 74 c 0
 271 45 320 5 388 5 c 0
 491 5 594 98 614 279 c 0
 615.625307656 293.709034286 616.483548711 308.983820799 617.222306957 324 c 1
 158.68577601 324 l 1
617.197734698 387 m 1
 612.598867984 465.238942253 594.596253201 548.558827238 535 612 c 0
 473 678 406 680 388 680 c 0
 298 680 230 615 197 548 c 0
 169.052907093 491.258932583 162.243245625 436.121626344 158.974405085 387 c 1
 617.197734698 387 l 1
EndSplineSet
EndChar

StartChar: Iota
Encoding: 921 921 91
Width: 361
Flags: W
HStem: 0 32<28 38 28 46 38 46 46 78.5 314 322 322 332> 651 32<28 38 38 46 28 38 279 314 314 322 322 332>
VStem: 135 91<58 626 58 626>
LayerCount: 2
Fore
SplineSet
135 626 m 1
 123 645 121 651 46 651 c 2
 28 651 l 1
 28 683 l 1
 38 683 l 2
 56 680 302 680 322 683 c 2
 332 683 l 1
 332 651 l 1
 314 651 l 2
 244 651 235 646 226 626 c 1
 226 58 l 1
 232 39 239 32 314 32 c 2
 332 32 l 1
 332 0 l 1
 322 0 l 2
 304 3 58 3 38 0 c 2
 28 0 l 1
 28 32 l 1
 46 32 l 2
 111 32 125 35 135 58 c 1
 135 626 l 1
EndSplineSet
EndChar

StartChar: Kappa
Encoding: 922 922 92
Width: 778
Flags: W
HStem: 0 32<32 42 32 50 42 50 50 86 310 318 318 328 477 487 487 490 718 728 728 736> 651 32<32 42 42 50 32 42 279 310 310 318 318 328 509 513 689 716 716 717 717 722>
VStem: 135 90<110 157 157 253 455 538>
LayerCount: 2
Fore
SplineSet
135 622 m 1
 125 652 109 651 50 651 c 2
 32 651 l 1
 32 683 l 1
 42 683 l 2
 60 680 298 680 318 683 c 2
 328 683 l 1
 328 651 l 1
 310 651 l 2
 248 651 233 646 227 628 c 0
 225 622 225 621 225 455 c 2
 226 289 l 1
 385 441 l 2
 489 540 545 594 547 598 c 0
 551 604 554 612 554 619 c 0
 554 644 521 651 513 651 c 2
 509 651 l 1
 509 683 l 1
 518 683 l 1
 538 679 708 680 716 683 c 2
 722 683 l 1
 722 651 l 1
 717 651 l 2
 661 651 614 620 593 602 c 0
 588 598 564 576 540 553 c 2
 449 466 l 2
 422 441 401 419 401 419 c 2
 401 417 628 82 635 73 c 0
 656 47 668 34 718 32 c 2
 736 32 l 1
 736 0 l 1
 728 0 l 1
 714 4 501 3 487 0 c 2
 477 0 l 1
 477 32 l 1
 490 32 l 2
 510 33 535 38 535 61 c 0
 535 66 533 73 529 81 c 0
 524 90 341 362 340 362 c 0
 339 362 314 337 282 307 c 2
 225 253 l 1
 225 157 l 2
 225 63 225 61 227 55 c 0
 233 38 248 32 310 32 c 2
 328 32 l 1
 328 0 l 1
 318 0 l 2
 300 3 62 3 42 0 c 2
 32 0 l 1
 32 32 l 1
 50 32 l 2
 122 32 127 37 135 61 c 1
 135 622 l 1
EndSplineSet
EndChar

StartChar: Lambda
Encoding: 923 923 93
Width: 694
Flags: W
HStem: 0 32<32 94.723 182 239 393 472.301 581.538 661> 649 34<173.394 259.242>
LayerCount: 2
Fore
SplineSet
291 595 m 0
 265 645 231.393554688 649 173.393554688 649 c 5
 173.393554688 683 l 5
 230.68359375 680.491210938 298.327148438 679.8125 371.5390625 684 c 4
 372.5390625 683 409.967629037 569.989598551 463 405 c 0
 580 41 574 62 577 55 c 0
 586 38 598 34 639 32 c 2
 661 32 l 1
 661 0 l 1
 653 0 l 2
 643 3 427 4 404 0 c 1
 393 0 l 1
 393 32 l 1
 405 32 l 2
 434 32 478 36 478 62 c 0
 477 68 317 568 316 567 c 0
 315 567 281 459 239 328 c 2
 162 90 l 1
 162 81 l 2
 164 55 191 35 229 32 c 2
 239 32 l 1
 239 0 l 1
 230 0 l 1
 209 4 45 2 38 0 c 2
 32 0 l 1
 32 32 l 1
 43 32 l 2
 89 35 117 56 130 96 c 0
 132 100 176 239 230 405 c 0
 283.610501297 569.802652135 290 594 291 595 c 0
EndSplineSet
EndChar

StartChar: Mu
Encoding: 924 924 94
Width: 917
Flags: W
HStem: 0 31<37 88.5> 652 31<37 61 37 206 816.5 855 855 879>
VStem: 140 28<105 605 605 623> 430 28 695 81<78 605>
LayerCount: 2
Fore
SplineSet
879 0 m 1
 842 3 775 3 736 3 c 0
 697 3 629 3 592 0 c 1
 592 31 l 1
 616 31 l 2
 693 31 695 42 695 78 c 2
 695 652 l 1
 694 652 l 1
 448 19 l 2
 444 8 441 0 430 0 c 0
 420 0 415 9 410 22 c 2
 169 644 l 1
 168 644 l 1
 168 105 l 2
 168 78 168 31 271 31 c 1
 271 0 l 1
 154 3 l 1
 37 0 l 1
 37 31 l 1
 140 31 140 78 140 105 c 2
 140 605 l 2
 140 641 138 652 61 652 c 2
 37 652 l 1
 37 683 l 1
 206 683 l 2
 229 683 232 683 241 661 c 2
 458 101 l 1
 677 664 l 2
 684 682 684 683 710 683 c 2
 879 683 l 1
 879 652 l 1
 855 652 l 2
 778 652 776 641 776 605 c 2
 776 78 l 2
 776 42 778 31 855 31 c 2
 879 31 l 1
 879 0 l 1
EndSplineSet
EndChar

StartChar: Nu
Encoding: 925 925 95
Width: 750
Flags: W
HStem: 0 31<33 84.5> 652 31<33 62 33 203>
VStem: 136 28<105 625> 585 28<151 578>
LayerCount: 2
Fore
SplineSet
716 652 m 1
 613 652 613 605 613 578 c 2
 613 26 l 2
 613 7 613 0 599 0 c 0
 592 0 591 1 582 13 c 2
 174 613 l 2
 170 619 169 620 164 625 c 1
 164 105 l 2
 164 78 164 31 267 31 c 1
 267 0 l 1
 150 3 l 1
 33 0 l 1
 33 31 l 1
 136 31 136 78 136 105 c 2
 136 627 l 2
 136 646 135 647 112 650 c 0
 97 651 77 652 62 652 c 2
 33 652 l 1
 33 683 l 1
 203 683 l 2
 222 683 223 682 232 670 c 2
 585 151 l 1
 585 578 l 2
 585 605 585 652 482 652 c 1
 482 683 l 1
 599 680 l 1
 716 683 l 1
 716 652 l 1
EndSplineSet
EndChar

StartChar: Omicron
Encoding: 927 927 96
Width: 778
Flags: W
HStem: -22 26<341 435 341 479> 680 25<346.5 431.5>
VStem: 56 103<236.5 442> 618 103<238 441 238 481>
LayerCount: 2
Fore
SplineSet
721 339 m 0
 721 137 570 -22 388 -22 c 0
 210 -22 56 134 56 339 c 0
 56 545 209 705 388 705 c 0
 570 705 721 543 721 339 c 0
618 353 m 0
 618 609 475 680 388 680 c 0
 305 680 159 612 159 353 c 0
 159 92 293 4 389 4 c 0
 481 4 618 88 618 353 c 0
EndSplineSet
EndChar

StartChar: Pi
Encoding: 928 928 97
Width: 750
Flags: W
HStem: 0 32<32 42 32 50 42 50 50 86 310 318 318 328 421 431 431 439 439 475 699 707 707 717> 648 30
VStem: 135 90<61 619 619 619> 524 90<61 619 61 648 61 648>
LayerCount: 2
Fore
SplineSet
135 619 m 1
 125 649 109 648 50 648 c 2
 32 648 l 1
 32 680 l 1
 42 680 l 2
 47 679 168 676 200 678 c 0
 216 679 252 680 375 680 c 0
 594 680 523 676 633 678 c 0
 668 679 701 679 707 680 c 2
 717 680 l 1
 717 648 l 1
 699 648 l 2
 626 648 622 642 614 619 c 1
 614 61 l 1
 624 32 639 32 699 32 c 2
 717 32 l 1
 717 0 l 1
 707 0 l 2
 689 3 451 3 431 0 c 2
 421 0 l 1
 421 32 l 1
 439 32 l 2
 511 32 516 37 524 61 c 1
 524 648 l 1
 225 648 l 1
 225 61 l 5
 235 32 250 32 310 32 c 6
 328 32 l 5
 328 0 l 5
 318 0 l 6
 300 3 62 3 42 0 c 6
 32 0 l 5
 32 32 l 5
 50 32 l 6
 122 32 127 37 135 61 c 5
 135 619 l 1
EndSplineSet
EndChar

StartChar: Rho
Encoding: 929 929 98
Width: 681
Flags: W
HStem: 0 31<35 132.733 232.267 330> 315 27<325 440.233> 651 32<34 130.498 228.063 447.016>
VStem: 138 89<35.9118 646.655> 520 104<421.647 574.723>
LayerCount: 2
Fore
SplineSet
138 78 m 2
 137 622 l 1
 127 652 111 651 52 651 c 2
 34 651 l 1
 34 683 l 1
 44 683 l 1
 78 677 229 683 340 683 c 0
 369 683 437 686 487 666 c 0
 522 653 624 604 624 496 c 0
 624 424 563 344 452 321 c 0
 425.112087393 315.428630721 430 316 325 315 c 1
 325 342 l 1
 355 342 432.092292824 336.89037207 482 379 c 0
 514 406 520 452 520 496 c 0
 520 559 512 631 400 649 c 0
 391 650 380 650 322 651 c 0
 285 651 254 650 251 650 c 0
 231 648 228.008986078 638.996259428 228 634 c 2
 227 78 l 2
 227 42 229 31 306 31 c 2
 330 31 l 1
 330 0 l 1
 295 3 220 3 182 3 c 0
 144 3 70 3 35 0 c 1
 35 31 l 1
 59 31 l 2
 136 31 138 42 138 78 c 2
EndSplineSet
EndChar

StartChar: Tau
Encoding: 932 932 99
Width: 722
Flags: W
HStem: 0 31<171 211> 452 21G<36 61 36 36 660 685 660 660> 646 31<165.5 250 470.5 555.5>
VStem: 36 25<452 452> 316 89<79 606> 660 25<452 452>
LayerCount: 2
Fore
SplineSet
685 452 m 1
 660 452 l 1
 646 613 631 646 480 646 c 0
 461 646 434 646 423 644 c 0
 405 640 405 626 405 606 c 2
 405 79 l 2
 405 45 405 31 510 31 c 2
 550 31 l 1
 550 0 l 1
 509 3 406 3 360 3 c 0
 314 3 212 3 171 0 c 1
 171 31 l 1
 211 31 l 2
 316 31 316 45 316 79 c 2
 316 606 l 2
 316 629 316 640 295 644 c 0
 285 646 259 646 241 646 c 0
 90 646 75 613 61 452 c 1
 36 452 l 1
 55 677 l 1
 666 677 l 1
 685 452 l 1
EndSplineSet
EndChar

StartChar: Phi
Encoding: 934 934 100
Width: 722
Flags: W
HStem: -100 32<188 308.739 406.002 528> 136 24<267.069 315.652 400 412> 523 24<270.045 315.512 400 412> 751 32<188 309.998 407.261 528>
VStem: 55 101<265.069 419.607> 316 84<-61.7015 136 160.027 522.993 547 744.702> 564 102<263.412 418.634>
LayerCount: 2
Fore
SplineSet
517 -100 m 2
 498 -97 218 -97 199 -100 c 2
 188 -100 l 1
 188 -68 l 1
 210 -68 l 2
 321 -68 316 -60 316 -1 c 2
 316 136 l 1
 267 144 234 147 179 175 c 0
 99 215 55 277 55 342 c 0
 55 465 195 533 316 547 c 1
 316 684 l 6
 316 725 316 727 310 735 c 4
 302 747 278 751 210 751 c 6
 188 751 l 5
 188 783 l 5
 199 783 l 6
 218 780 498 780 517 783 c 6
 528 783 l 5
 528 751 l 5
 506 751 l 6
 395 751 400 743 400 684 c 6
 400 547 l 1
 412 546 l 2
 523 534 666 464 666 341 c 0
 666 219 523 149 412 137 c 2
 400 136 l 1
 400 -1 l 2
 400 -42 400 -44 406 -52 c 0
 414 -64 438 -68 506 -68 c 2
 528 -68 l 1
 528 -100 l 1
 517 -100 l 2
524 468 m 0
 486 507 424 523 404 523 c 1
 400 524 l 1
 400 159 l 1
 404 160 l 2
 406 160 414 161 422 163 c 0
 568 193 564 312 564 342 c 0
 564 417 540 450 524 468 c 0
316 342 m 0
 316 514 316 523 314 523 c 0
 295 523 233 504 197 468 c 0
 181 450 156 415 156 342 c 0
 156 266 181 233 197 215 c 0
 222 189 257 171 299 163 c 0
 307 161 314 160 315 160 c 0
 316 160 316 197 316 342 c 0
EndSplineSet
EndChar

StartChar: uni03A9
Encoding: 937 937 101
Width: 1000
Flags: W
HStem: -22 27<264.86 386.292 613.638 731.538> 525 30<406 453.127 545.047 593> 680 25<275.773 330.972 668.028 726.131>
VStem: 55 103<193.887 483.508> 457 84<86.171 522.638> 840 104<194.532 485.075>
LayerCount: 2
Fore
SplineSet
684 705 m 16
 761 705 828.785540412 658.86044873 877 585 c 0
 924 513 944 426 944 341 c 0
 944 142 837 -22 694 -22 c 0
 577 -22 524 43 499 86 c 1
 447 -13 345 -22 305 -22 c 0
 161 -22 55 141 55 341 c 0
 55 547 173 705 315 705 c 8
 321.403320312 705 331 701.083007812 331 693 c 0
 331 685 325.280273438 680 318 680 c 16
 254 680 158 607 158 345 c 0
 158 136 220 5 313 5 c 0
 389 5 443 45 454 66 c 0
 457 73 457 81 457 88 c 2
 457 489 l 6
 456 525 441 524 406 525 c 5
 406 555 l 5
 435 553 463 553 492 553 c 4
 516 553 560 552 593 555 c 5
 593 525 l 5
 558 524 542 524 541 489 c 6
 541 88 l 2
 541 68 542 64 560 48 c 0
 597 16 648 5 686 5 c 2
 687 5 l 2
 779 5 840 138 840 345 c 0
 840 609 745 680 681 680 c 8
 673.719726562 680 668 685 668 693 c 0
 668 701.083007812 677.596679688 705 684 705 c 16
EndSplineSet
EndChar

StartChar: Psi
Encoding: 936 936 102
Width: 778
Flags: W
HStem: -100 32<216 336.739 434.002 556> 530 23<55.0185 93.8849 682.363 721.98> 751 32<216 337.998 434.002 556>
VStem: 124 82<285.16 508.92> 344 84<-61.7015 136 162 741.356> 569 82<282.716 507.052>
LayerCount: 2
Fore
SplineSet
55 542 m 0
 55 554 61 553 103 553 c 0
 139 552 142 552 148 550 c 0
 179 540 198 508 206 454 c 0
 206 438 209 365 213 339 c 0
 219 295 238 197 333 166 c 2
 344 162 l 1
 344 491 l 6
 344 745 345 726 338 735 c 4
 330 747 306 751 238 751 c 6
 216 751 l 5
 216 783 l 5
 227 783 l 6
 246 780 526 780 545 783 c 6
 556 783 l 5
 556 751 l 5
 534 751 l 6
 466 751 442 746 434 735 c 4
 427 726 428 745 428 491 c 6
 428 162 l 1
 443 167 467 171 499 198 c 0
 522 219 542 252 553 289 c 0
 564 323 568 353 569 409 c 0
 570 429 571 447 571 454 c 0
 579 508 598 540 629 550 c 0
 635 552 638 552 675 553 c 2
 715 553 l 1
 722 546 722 547 722 542 c 0
 722 532 715 530 710 530 c 0
 660 530 660 454 654 442 c 0
 654 440 654 425 653 408 c 0
 653 390 651 370 651 363 c 0
 624 144 433 139 430 136 c 2
 428 136 l 1
 428 -1 l 2
 428 -42 428 -44 434 -52 c 0
 442 -64 466 -68 534 -68 c 2
 556 -68 l 1
 556 -100 l 1
 545 -100 l 2
 526 -97 246 -97 227 -100 c 2
 216 -100 l 1
 216 -68 l 1
 238 -68 l 2
 349 -68 344 -60 344 -1 c 2
 344 136 l 1
 330 139 l 1
 134 172 124 350 124 408 c 0
 124 461 113 530 67 530 c 0
 60 530 55 536 55 542 c 0
EndSplineSet
EndChar

StartChar: Upsilon
Encoding: 933 933 103
Width: 778
Flags: W
HStem: 0 32<216 337.998 440.002 562> 461 83<605.364 682.946>
VStem: 55 32<536.046 588.029> 344 90<38.7426 459.98> 684 38<527.808 604.085>
LayerCount: 2
Fore
SplineSet
684 573 m 0
 684 621 565.874580689 657.060037507 501 588 c 0
 470 555 449 500 440 429 c 0
 435 393 435 394 434 224 c 0
 434 45 433 57 440 48 c 0
 448 36 472 32 540 32 c 2
 562 32 l 1
 562 0 l 1
 551 0 l 2
 532 3 247 3 227 0 c 2
 216 0 l 1
 216 32 l 1
 238 32 l 2
 306 32 330 37 338 48 c 0
 344 57 344 46 344 212 c 0
 344 300 344 370 343 380 c 0
 333 534 280 627 186 627 c 0
 166 627 95 616 87 552 c 0
 86 538 84 536 71 536 c 0
 59 535 55 537 55 550 c 0
 55 609 91 691 167 704 c 1
 276 715 357 632 386 475 c 1
 389 463 l 1
 390 464 392 474 394 486 c 0
 414 583 463.898184589 701.600892017 584 705 c 0
 690 708 722 602 722 545 c 0
 722 510.615317958 710 461 646 461 c 0
 610 461 601 485 601 503 c 0
 601 526 616 542 645 544 c 0
 666.970528942 545.515208893 684 553.159670332 684 573 c 0
EndSplineSet
EndChar

StartChar: Chi
Encoding: 935 935 104
Width: 750
Flags: W
HStem: 0 31<24 74.5> 652 31<37 56 37 37>
VStem: 24 702<0 31 0 31>
LayerCount: 2
Fore
SplineSet
726 0 m 1
 726 0 596 3 596 3 c 2
 558 3 485 3 450 0 c 1
 450 31 l 1
 493 32 515 49 515 61 c 0
 515 64 512 68 510 72 c 2
 352 311 l 1
 210 101 l 2
 203 90 200 86 200 77 c 0
 200 59 217 32 263 31 c 1
 263 0 l 1
 227 3 172 3 135 3 c 2
 24 0 l 1
 24 31 l 1
 125 31 155 77 169 97 c 2
 333 339 l 1
 149 617 l 2
 130 645 111 652 56 652 c 2
 37 652 l 1
 37 683 l 1
 37 683 167 680 167 680 c 2
 205 680 278 680 313 683 c 1
 313 652 l 1
 270 651 248 634 248 622 c 0
 248 618 253 610 255 607 c 2
 384 414 l 1
 498 583 l 2
 505 594 507 596 507 606 c 0
 507 629 485 651 445 652 c 1
 445 683 l 1
 485 680 533 680 573 680 c 2
 684 683 l 1
 684 652 l 1
 595 651 561 619 539 587 c 2
 402 386 l 1
 613 67 l 2
 634 36 655 31 707 31 c 2
 726 31 l 1
 726 0 l 1
EndSplineSet
EndChar

StartChar: upsilon
Encoding: 965 965 105
Width: 536
Flags: W
HStem: -195 31<152 224.828 302.064 375> 247.024 61.2148<420.631 481.736>
VStem: 16.3252 24.2549<302.503 343.424> 230 67<-159.676 247.422> 481.79 27.7207<296.689 353.161>
LayerCount: 2
Fore
SplineSet
296.990234375 68 m 2
 297 -117 l 2
 297.003770885 -155.999999635 302 -164 368 -164 c 2
 375 -164 l 1
 375 -195 l 1
 337 -193 298 -192 260 -192 c 0
 238 -192 206 -192 152 -195 c 1
 152 -164 l 1
 156 -164 l 2
 223 -164 230 -157 230 -117 c 2
 230 68 l 2
 230 133 230 181.189453125 228.845703125 188.120117188 c 0
 221.915039062 302.46484375 182.645507812 370.609375 113.345703125 370.609375 c 0
 98.330078125 370.609375 46.35546875 362.524414062 40.580078125 315.169921875 c 0
 39.42578125 304.774414062 37.115234375 302.46484375 27.875 302.46484375 c 0
 18.6357421875 301.309570312 16.3251953125 303.620117188 16.3251953125 312.859375 c 0
 16.3251953125 356.75 42.890625 417.96484375 99.4853515625 427.205078125 c 1
 180.3359375 435.290039062 239.240234375 372.919921875 261.185546875 257.419921875 c 1
 263.495117188 249.334960938 l 1
 264.650390625 250.489257812 265.805664062 256.264648438 266.9609375 265.504882812 c 0
 281.975585938 337.114257812 318.935546875 426.049804688 407.870117188 428.359375 c 0
 486.41015625 430.669921875 509.510742188 350.974609375 509.510742188 309.39453125 c 0
 509.510742188 283.984375 500.270507812 247.024414062 452.915039062 247.024414062 c 0
 426.350585938 247.024414062 419.420898438 264.349609375 419.420898438 278.209960938 c 0
 419.420898438 295.53515625 430.970703125 307.084960938 452.915039062 308.239257812 c 0
 469.0859375 309.39453125 481.790039062 315.169921875 481.790039062 330.184570312 c 0
 481.790039062 365.989257812 394.010742188 392.5546875 345.5 341.734375 c 0
 322.400390625 317.479492188 307.385742188 275.899414062 300.455078125 223.924804688 c 0
 296.990234375 197.359375 297 194 296.990234375 68 c 2
EndSplineSet
Substitution2: "'salt' Stylistic Alternatives lookup 1-1" upsilon.alt
EndChar

StartChar: chi
Encoding: 967 967 106
Width: 528
Flags: W
HStem: 0 23<12 12> 408 22<17 23 17 17>
LayerCount: 2
Fore
SplineSet
12 0 m 1
 12 23 l 1
 113 28 139 99 234 209 c 1
 111 368 l 2
 87 398 72 408 23 408 c 2
 17 408 l 1
 17 430 l 1
 45 429 73 428 110 428 c 0
 147 428 184 428 221 430 c 1
 221 408 l 1
 197 405 185 392 185 379 c 0
 185 369 181 374 272 256 c 1
 325 327 350 344 350 374 c 0
 350 402 326 406 319 408 c 1
 319 430 l 1
 351 428 384 428 416 428 c 0
 444 428 471 428 498 430 c 1
 498 408 l 1
 399 404 371 332 288 236 c 1
 288 235 l 1
 421 63 l 2
 445 33 460 23 509 23 c 2
 516 23 l 1
 516 0 l 1
 484 2 452 3 419 3 c 0
 383 3 347 2 311 0 c 1
 311 23 l 1
 335 26 347 37 347 52 c 0
 347 71 301 117 250 188 c 1
 172 91 160 81 160 57 c 0
 160 30 184 25 191 23 c 1
 191 0 l 1
 159 2 127 3 95 3 c 0
 67 3 40 2 12 0 c 1
EndSplineSet
EndChar

StartChar: alpha
Encoding: 945 945 107
Width: 526
Flags: W
HStem: 0 31<436.258 512> 401 31<77 155.818>
LayerCount: 2
Fore
SplineSet
320 88 m 1
 228.12890625 68.1357421875 138.041992188 53.02734375 47.83984375 -12.7998046875 c 1
 37.599609375 -12.7998046875 25.4404296875 -8.3203125 22.240234375 5.759765625 c 1
 87.51953125 112.639648438 176 181 195 320 c 24
 203 377 145 401 77 401 c 1
 77 432 l 5
 188 430 l 2
 212 430 219.007608115 423.547906531 233 398 c 2
 411 73 l 2
 433.650858349 31.6430957119 479 31 512 31 c 1
 512 0 l 1
 369 0 l 1
 328 88 l 1
 320 88 l 1
310 122 m 1
 294.306640625 157.997070312 251.98828125 236.947265625 238.959960938 267.280273438 c 1
 232.559570312 267.280273438 228.719726562 267.280273438 228.719726562 267.280273438 c 25
 186.479492188 199.440429688 130.799804688 97.6796875 130.799804688 93.2001953125 c 0
 130.799804688 89.4814453125 134.817382812 90.45703125 137.200195312 91.4013671875 c 0
 199.919921875 116.240234375 290.16015625 123.280273438 310 122 c 1
EndSplineSet
EndChar

StartChar: beta
Encoding: 946 946 108
Width: 453
VWidth: 640
Flags: W
HStem: -14 32<145.374 299.106> 417 27<7 66.4303 212.385 295.344>
VStem: 72 70<23.6582 368.974 374 414.434> 318 78<301.205 403.394> 346 77<57.1299 167.231>
LayerCount: 2
Fore
SplineSet
7 418 m 1xe8
 7 449 l 1
 51 447 101 448 142 450 c 1
 142 374 l 1
 181 421 220 444 283 444 c 0
 320 444 396 417 396 361 c 0xf0
 396 314 350 251 261 228 c 1
 344 226 423 173 423 117 c 0
 423 53 355 -14 209 -14 c 0
 110 -14 72 21 72 50 c 2
 72 377 l 2
 72 400 69.5514025186 418 21 418 c 2
 21 418 7 418 7 418 c 1xe8
142 342 m 1
 142 45 l 2
 142 27 158 18 212 18 c 0
 252 18 346 20 346 118 c 0xe8
 346 186 257 220 198 220 c 1
 173 234 l 1
 282 252 318 320 318 361 c 0
 318 395 288 417 253 417 c 0
 223 417 179 396 142 342 c 1
EndSplineSet
EndChar

StartChar: iota
Encoding: 953 953 109
Width: 286
Flags: W
HStem: 0 23<33 101.585 191.12 259> 410 22<33 100.042 191.12 259>
VStem: 111 70<27.6945 405.266>
LayerCount: 2
Fore
SplineSet
33 0 m 1
 33 23 l 1
 41 23 l 2
 100 23 111 30 111 69 c 2
 111 364 l 6
 111 405 96 410 38 410 c 6
 33 410 l 5
 33 432 l 5
 69 430 105 430 142 430 c 4
 181 430 220 430 259 432 c 5
 259 410 l 5
 252 410 l 6
 182 410 181 401 181 345 c 6
 181 89 l 2
 181 33 182 23 252 23 c 2
 259 23 l 1
 259 0 l 1
 220 2 182 3 143 3 c 0
 99 3 66 1 33 0 c 1
EndSplineSet
EndChar

StartChar: epsilon
Encoding: 949 949 110
Width: 457
Flags: W
HStem: -14 25<213.882 333.343> 217.119 20.0348<117.395 205.809> 427 24<209.596 324.954>
VStem: 36 81.0009<121.686 217.119 237.154 315.71> 305.52 26<141.44 197.292 254.657 311.04> 395 24<317.131 359.324>
LayerCount: 2
Fore
SplineSet
419 378 m 1
 419 335 l 2
 419 322 419 317 409 317 c 0
 400 317 398 322 395 331 c 0
 375 397 329 427 259 427 c 0
 231.00033945 427 124.695799904 410.220383072 117.395279623 237.154148046 c 1
 246.400390625 245.559570312 l 2
 304.916919213 249.372257488 305.51953125 256 305.51953125 311.040039062 c 1
 331.51953125 311.040039062 l 1
 331.51953125 141.440429688 l 1
 305.51953125 141.440429688 l 1
 305.51953125 195.83984375 304.878449628 202.310599825 246.400390625 206.919921875 c 2
 117.000851941 217.119373721 l 1
 117.369153767 26.9507886565 237.044632125 11 266 11 c 0
 336 11 368 37 401 84 c 0
 405 89 411 92 417 89 c 0
 424 85 422 82 419 76 c 0
 390 21 344 -14 259 -14 c 0
 140 -14 36 87 36 219 c 0
 36 350 139 451 259 451 c 0
 320 451 375 448 419 378 c 1
EndSplineSet
EndChar

StartChar: omicron
Encoding: 959 959 111
Width: 500
Flags: W
HStem: -11 25<194.976 303.41> 426 22<198.857 300.319>
VStem: 28 83<117.95 313.472> 388 83<118.022 313.836>
LayerCount: 2
Fore
SplineSet
28 214 m 0
 28 339 125 448 250 448 c 0
 371 448 471 342 471 214 c 0
 471 87 370 -11 249 -11 c 0
 132 -11 28 85 28 214 c 0
111 222 m 0
 111 186 111 125 136 81 c 0
 163 35 207 14 250 14 c 0
 300 14 344 43 366 88 c 0
 388 132 388 186 388 222 c 0
 388 260 388 318 362 361 c 0
 336 404 293 426 249 426 c 0
 209 426 162 405 135 359 c 0
 111 315 111 261 111 222 c 0
EndSplineSet
EndChar

StartChar: sigma1
Encoding: 962 962 112
Width: 457
Flags: W
HStem: -14 25<213.829 333.343> 427 24<209.952 324.954>
VStem: 36 81<121.812 314.993> 395 24<317.131 359.324>
LayerCount: 2
Fore
SplineSet
419 378 m 1
 419 335 l 2
 419 322 419 317 409 317 c 0
 400 317 398 322 395 331 c 0
 375 397 329 427 259 427 c 0
 230 427 117 409 117 218 c 0
 117 27 237 11 266 11 c 0
 336 11 368 37 401 84 c 0
 405 89 411 92 417 89 c 0
 424 85 422 82 419 76 c 0
 390 21 344 -14 259 -14 c 0
 140 -14 36 87 36 219 c 0
 36 350 139 451 259 451 c 0
 320 451 375 448 419 378 c 1
EndSplineSet
EndChar

StartChar: sigma
Encoding: 963 963 113
Width: 457
Flags: W
HStem: -14 25<213.829 333.343> 427 24<209.952 324.954>
VStem: 36 81<121.812 314.993> 395 24<317.131 359.324>
LayerCount: 2
Fore
SplineSet
419 378 m 1
 419 335 l 2
 419 322 419 317 409 317 c 0
 400 317 398 322 395 331 c 0
 375 397 329 427 259 427 c 0
 230 427 117 409 117 218 c 0
 117 27 237 11 266 11 c 0
 336 11 368 37 401 84 c 0
 405 89 411 92 417 89 c 0
 424 85 422 82 419 76 c 0
 390 21 344 -14 259 -14 c 0
 140 -14 36 87 36 219 c 0
 36 350 139 451 259 451 c 0
 320 451 375 448 419 378 c 1
EndSplineSet
EndChar

StartChar: gamma
Encoding: 947 947 114
Width: 444
Flags: W
HStem: 0 23<25 93.5852 185.223 270> 408 22<25 91.9456 179 339.278>
VStem: 103 70<29.6377 403.306> 393 25<270 349.863>
LayerCount: 2
Fore
SplineSet
25 0 m 1
 25 23 l 1
 33 23 l 2
 92 23 103 30 103 69 c 2
 103 362 l 2
 102 401 91 408 32 408 c 2
 25 408 l 1
 25 430 l 5
 407 430 l 1
 418 270 l 1
 393 270 l 1
 385 378 370 408 264 408 c 2
 215 408 l 2
 175 408 173 398 173 350 c 2
 173 71 l 2
 174 30 187 23 260 23 c 2
 270 23 l 1
 270 0 l 1
 226 2 183 3 139 3 c 0
 128 3 93 3 25 0 c 1
EndSplineSet
EndChar

StartChar: delta
Encoding: 948 948 115
Width: 576
VWidth: 2048
Flags: W
HStem: 0 39<138.255 383.792> 0 32<10 64.3675 475.731 555> 467 23<101 159.729>
LayerCount: 2
Fore
SplineSet
384.798828125 56.708984375 m 1xa0
 367.611328125 96.4130859375 297 241 267 284 c 1
 203.908203125 195.05859375 138.200195312 79.7177734375 138.200195312 57.900390625 c 0
 138.200195312 41.7998046875 212.900390625 39 264 39 c 0
 311.810546875 39 363.798828125 48.3095703125 384.798828125 56.708984375 c 1xa0
101 490 m 1
 200 488 l 6
 224 488 231.0078125 481.547851562 245 456 c 6
 454 73 l 2
 475.566189718 31.0718240504 522 31 555 31 c 1
 555 0 l 1
 10 0 l 1
 10 32 l 1x60
 29 32 56.0000119691 33.9999911533 73 57 c 0
 189.999023438 215.29296875 138.784179688 161.859375 243 324 c 1
 182 452 169 467 101 467 c 1
 101 490 l 1
EndSplineSet
EndChar

StartChar: zeta
Encoding: 950 950 116
Width: 419
Flags: W
HStem: 384.444 45.5556<68.5 316>
VStem: 26 25<289 353.803> 87.7451 77.2549<95.5879 213.837> 281.155 55.8447<12.4587 96.5>
LayerCount: 2
Fore
SplineSet
281.155273438 27.5810546875 m 0
 281.155273438 98 87.7451171875 45.17578125 87.7451171875 146 c 0
 87.7451171875 254 257.383789062 346.645507812 316 374 c 5
 316 384 l 5
 276 384 187.111111111 384.444444444 145.333333333 384.444444444 c 0
 124.444444444 384.444444444 110.333333333 384.333333333 110 384 c 0
 74 384 55 360 51 289 c 1
 26 289 l 1
 33 430 l 1
 387 430 l 1
 387 377 l 1
 312 344 165 258 165 186 c 0
 165 138 230 130 265 128 c 0
 296.5234375 126.198242188 337 117 337 76 c 0
 337 13 274 -39 233 -62 c 1
 219 -38 l 1
 243.884765625 -23.8984375 281.155273438 -2.029296875 281.155273438 27.5810546875 c 0
EndSplineSet
EndChar

StartChar: eta
Encoding: 951 951 117
Width: 555
Flags: W
HStem: 0 23<25 33> 226 22<173 380 173 380> 408 22<25 32 25 25>
VStem: 103 70<69 71 71 226 248 362> 380 70<89 226 226 226 248 362 69 383>
LayerCount: 2
Fore
SplineSet
25 0 m 1
 25 23 l 1
 33 23 l 2
 92 23 103 30 103 69 c 2
 103 362 l 2
 102 401 91 408 32 408 c 2
 25 408 l 1
 25 430 l 1
 62 428 99 428 136 428 c 0
 174 428 212 428 250 430 c 1
 250 408 l 1
 247 408 l 2
 190 408 173 404 173 362 c 2
 173 248 l 1
 380 248 l 1
 380 362 l 2
 380 404 364 408 307 408 c 2
 303 408 l 1
 303 430 l 1
 340 428 376 428 413 428 c 0
 451 428 490 428 528 430 c 1
 528 408 l 1
 521 408 l 2
 461 408 451 400 450 362 c 2
 450 69 l 2
 451 30 461 23 520 23 c 2
 528 23 l 1
 528 0 l 1
 489 2 451 3 412 3 c 2
 408 3 l 2
 394 3 361 3 303 0 c 1
 303 23 l 1
 308 23 l 2
 367 23 381 29 381 71 c 0
 381 77 380 83 380 89 c 2
 380 226 l 1
 173 226 l 1
 173 71 l 2
 173 28 186 23 245 23 c 2
 250 23 l 1
 250 0 l 1
 211 2 173 3 134 3 c 2
 130 3 l 2
 116 3 83 3 25 0 c 1
EndSplineSet
EndChar

StartChar: theta
Encoding: 952 952 118
Width: 500
Flags: W
HStem: -11 26<193.777 303.463> 218 31<111.014 386.969> 424 23<195.053 302.192>
VStem: 27 84.0097<118.113 218 249 309.988> 387 84<117.684 218 249 310.942>
LayerCount: 2
Fore
SplineSet
27 213 m 0
 27 332 118 447 249 447 c 0
 377 447 471 336 471 213 c 0
 471 82 365 -11 249 -11 c 0
 133 -11 27 83 27 213 c 0
111.009663543 218 m 1
 111.18932835 156.620260398 114.535752306 84.4041913995 172 40 c 0
 194 23 222 15 249 15 c 0
 291 15 326 34 350 64 c 0
 381 103 387 156 387 204 c 2
 387 218 l 1
 111.009663543 218 l 1
386.968721164 249 m 1
 384.213628538 400.209464436 294.798823335 424 249 424 c 0
 202.10326111 424 113.390871255 400.105342306 111.01444075 249 c 1
 386.968721164 249 l 1
EndSplineSet
EndChar

StartChar: kappa
Encoding: 954 954 119
Width: 555
Flags: W
HStem: 0 23<25 33> 408 22<25 32 25 25>
VStem: 103 67<69 94 94 163 212 359>
LayerCount: 2
Fore
SplineSet
25 0 m 1
 25 23 l 1
 33 23 l 2
 92 23 103 30 103 69 c 2
 103 362 l 2
 102 401 91 408 32 408 c 2
 25 408 l 1
 25 430 l 1
 63 428 101 428 140 428 c 0
 161 428 194 427 248 430 c 1
 248 408 l 1
 243 408 l 2
 183 408 170 402 170 359 c 2
 170 212 l 1
 338 344 338 344 350 358 c 0
 357 367 365 377 365 389 c 0
 365 400 355 405 348 408 c 1
 348 430 l 1
 472 428 l 1
 515 430 l 1
 515 408 l 1
 436 403 369 332 290 274 c 1
 483 26 473 24 538 23 c 1
 538 0 l 1
 509 2 478 3 448 3 c 0
 412 3 377 2 341 0 c 1
 341 23 l 1
 358 24 375 27 375 46 c 0
 375 77 319 127 241 235 c 1
 169 179 171 183 170 163 c 2
 170 94 l 2
 170 31 169 23 243 23 c 2
 248 23 l 1
 248 0 l 1
 210 2 172 3 134 3 c 0
 112 3 79 3 25 0 c 1
EndSplineSet
EndChar

StartChar: lambda
Encoding: 955 955 120
Width: 475
Flags: W
HStem: 0 31<32 80.6079 150.977 190 240 295.873 390.042 450> 468 22<101 162.661>
LayerCount: 2
Fore
SplineSet
198 357 m 2
 221.571789075 430.298576985 175 468 106 468 c 2
 101 468 l 1
 101 490 l 5
 212 490 l 2
 237 490 240 484 249 458 c 2
 372 87 l 2
 389.895686201 32.9654523432 395 32 450 31 c 1
 450 0 l 1
 423 2 396 3 369 3 c 0
 356 3 342 2 240 0 c 1
 240 31 l 1
 286 31 299 41 299 58 c 0
 299 67 295.12587107 77.5152213072 291 90 c 2
 214 323 l 1
 210 309 205 295 200 281 c 2
 145 107 l 2
 141.735812232 97.0887389577 138 87 138 77 c 0
 138 58 149 35 190 31 c 1
 190 0 l 1
 161 2 132 3 103 3 c 0
 79 3 55 2 32 0 c 1
 32 31 l 1
 97 35 107.749903992 77.0841649469 125 130 c 2
 198 357 l 2
EndSplineSet
EndChar

StartChar: uni03BC
Encoding: 956 956 121
Width: 749
Flags: W
HStem: -8 54<310.558 428.163> -6 35<26.613 110.589> -4 43<615.428 697.351> 407 23<111 161.607 584.877 635>
VStem: 189 62<126.159 390.849> 496 63<151.457 392.182>
LayerCount: 2
Fore
SplineSet
559 297 m 0x9c
 559 187 581 39 658 39 c 0
 678 39 689 44 707 58 c 9
 716 35 l 17
 696 15 678 -4 641 -4 c 0x3c
 571 -4 524 59 505 118 c 9
 497 120 l 17
 472 46 441 -8 362 -8 c 0x9c
 290 -8 244 53 219 110 c 9
 205 111 l 17
 184 55 146 -6 75 -6 c 0
 57 -6 39 -2 26 6 c 1
 26 30 l 17
 30 30 34 29 38 29 c 0x5c
 173 27 189 164 189 269 c 0
 189 401 170 401 111 407 c 9
 111 430 l 5
 158 428 238 427 255 428 c 1
 252 403 251 383 251 350 c 0
 251 200 251 46 377 46 c 0
 461 46 496 187 496 299 c 0
 496 349 489 414 487 428 c 1
 521 428 589 428 635 429 c 1
 636 405 l 1
 585 403 559 406 559 297 c 0x9c
EndSplineSet
EndChar

StartChar: nu
Encoding: 957 957 122
Width: 552
Flags: W
HStem: 0 31<23 78.6578 150.75 207 469.75 526> 401 31<23 101 342 397.723 470.72 526>
VStem: 101 28<53.6637 371> 420 28<118 378.165>
LayerCount: 2
Fore
SplineSet
453 0 m 0
 441 0 425.819407768 9.9435562228 397 45 c 2
 129 371 l 1
 129 103 l 2
 129 45 161 32 207 31 c 1
 207 0 l 1
 176 2 144 3 113 3 c 0
 83 3 53 2 23 0 c 1
 23 31 l 1
 87 33 101 61 101 104 c 2
 101 395 l 1
 77 401 51 401 26 401 c 2
 23 401 l 1
 23 432 l 1
 138 432 l 2
 161 432 169.609285296 423.220493319 191 398 c 2
 420 118 l 5
 420 323 l 2
 420 361 416 399 342 401 c 1
 342 432 l 1
 373 430 405 429 436 429 c 0
 466 429 496 430 526 432 c 1
 526 401 l 1
 453 399 448 360 448 327 c 2
 448 103 l 2
 448 45 480 32 526 31 c 1
 526 0 l 1
 495 1 484 0 453 0 c 0
EndSplineSet
EndChar

StartChar: xi
Encoding: 958 958 123
Width: 402
VWidth: 2048
Flags: W
HStem: 0 51.1562<117.024 333.768> 380.416 50.1562<56.2472 286.602>
VStem: 27.8916 16.5361<306.72 370.213> 217.864 90.7842<158.878 225.645> 362.248 16.5361<-73.6172 -7.23338>
LayerCount: 2
Fore
SplineSet
117.024414062 60.6962890625 m 1
 117.024414062 51.15625 l 1
 177.870117188 51.1201171875 372.673828125 51.0537109375 372.696289062 50.5947265625 c 9
 378.784179688 -73.6171875 l 1
 362.248046875 -73.6171875 l 1
 362.248046875 -66.62109375 l 2
 360.33984375 -38.63671875 359.521484375 -13.2919921875 354.251953125 -6.9208984375 c 0
 348.528320312 0 334.880859375 -0.22265625 288.744140625 0.013671875 c 1
 265.396484375 0 239.301757812 -0 211.788085938 0 c 2
 31.7998046875 0 l 1
 31.7998046875 42.251953125 l 1
 106 83 217.864257812 133.204101562 217.864257812 171.811523438 c 0
 217.864257812 200.095703125 180.16015625 211.696289062 146.727539062 211.696289062 c 0
 114.703125 211.696289062 97.9443359375 203.51953125 66.7802734375 189.528320312 c 1
 62.9638671875 195.887695312 l 1
 62.9638671875 217.51171875 l 1
 286.6015625 380.336914062 l 1
 269.3359375 380.393554688 236.126953125 380.416015625 211.788085938 380.416015625 c 0
 82.0439453125 380.416015625 61.6923828125 379.780273438 55.9677734375 376.599609375 c 0
 50.244140625 374.692382812 44.427734375 325.1640625 44.427734375 307.9921875 c 0
 44.427734375 306.719726562 43.7919921875 306.719726562 36.16015625 306.719726562 c 2
 27.8916015625 306.719726562 l 1
 34.98046875 430.572265625 l 1
 363.791992188 430.572265625 l 1
 363.791992188 406.4921875 l 1
 156.0078125 254.219726562 l 1
 158.551757812 248.49609375 l 1
 183.083984375 255.311523438 194.573242188 258.036132812 218.3359375 258.036132812 c 0
 258.864257812 258.036132812 308.6484375 246.041015625 308.6484375 205.248046875 c 0
 308.6484375 139.740234375 177.8984375 88.962890625 117.024414062 60.6962890625 c 1
EndSplineSet
Substitution2: "'salt' Stylistic Alternatives lookup 1-1" xi.alt
EndChar

StartChar: Xi
Encoding: 926 926 124
Width: 637
Flags: W
HStem: 0 71<184 420.863> 0 57<50 98.0879> 336 65<191.973 340.658> 606 71<95.4355 450.631>
VStem: 47 26<520 598.504> 374 94<258.691 350.07> 568 26<-96.8818 -11.3595>
LayerCount: 2
Fore
SplineSet
184 86 m 1x7e
 184 71 l 1
 279.669921875 70.9443359375 585.965460997 70.8391657495 586 70.1181640625 c 9
 594 -96.8818359375 l 1
 568 -96.8818359375 l 1
 568 -85.8818359375 l 2
 565 -41.8818359375 565.285288862 -20.8995197254 557 -10.8818359375 c 0
 548 0 526.541992188 -0.349609375 454 0.021484375 c 1
 417.289984074 2.42861286637e-17 376.260037537 -5.29782665009e-15 333 0 c 2xbe
 50 0 l 1
 50 57 l 1
 169 109 374 189 374 267 c 0
 374 311.470712993 310 336 248 336 c 0
 189.784881689 336 154 320 105 298 c 1
 99 308 l 1
 99 342 l 1
 450.630859375 605.875 l 1
 423.484375 605.96484375 371.268389045 606 333 606 c 0
 129 606 97 605 88 600 c 0
 79 597 73 549 73 522 c 0
 73 520 72 520 60 520 c 2
 47 520 l 1
 55 677 l 1
 572 677 l 1
 572 647 l 1
 228 395 l 1
 232 386 l 1
 269 392 288.636916615 401 326 401 c 0
 374 401 468 382.140470843 468 318 c 0
 468 215 279.71484375 130.4453125 184 86 c 1x7e
EndSplineSet
Substitution2: "'salt' Stylistic Alternatives lookup 1-1" Xi.alt
EndChar

StartChar: pi
Encoding: 960 960 125
Width: 555
Flags: W
HStem: 0 23<25 33> 408 22<25 32 25 528 195.5 211 211 330 491 521 521 528>
VStem: 103 70<69 362 362 362> 380 70<108 362 69 363 69 383.5>
LayerCount: 2
Fore
SplineSet
25 0 m 1
 25 23 l 1
 33 23 l 2
 92 23 103 30 103 69 c 2
 103 362 l 2
 102 401 91 408 32 408 c 2
 25 408 l 1
 25 430 l 1
 528 430 l 1
 528 408 l 1
 521 408 l 2
 461 408 451 400 450 362 c 2
 450 69 l 2
 451 30 461 23 520 23 c 2
 528 23 l 1
 528 0 l 1
 489 2 451 3 412 3 c 2
 408 3 l 2
 394 3 361 3 303 0 c 1
 303 23 l 1
 309 23 l 2
 379 23 381 35 381 82 c 0
 381 91 380 99 380 108 c 2
 380 363 l 2
 380 404 374 408 330 408 c 2
 211 408 l 2
 180 408 174 399 173 370 c 2
 173 69 l 2
 174 30 184 23 243 23 c 2
 250 23 l 1
 250 0 l 1
 211 2 173 3 134 3 c 2
 130 3 l 2
 116 3 83 3 25 0 c 1
EndSplineSet
EndChar

StartChar: rho
Encoding: 961 961 126
Width: 500
Flags: W
HStem: 0 23<25 93.5852 182.415 251> 182 22.5605<275 320.363> 407 23<25 93.5852 177.719 312.677>
VStem: 103 70<27.2854 402.65> 381 84<246.035 363.902>
LayerCount: 2
Fore
SplineSet
251 23 m 1
 251 0 l 1
 212 2 174 3 135 3 c 0
 91 3 58 1 25 0 c 1
 25 23 l 1
 33 23 l 2
 92 23 103 30.052734375 103 69 c 2
 103 361 l 2
 103 399.999593445 92 407 33 407 c 2
 25 407 l 1
 25 430 l 1
 283 430 l 2
 392 430 465 373 465 305 c 0
 465 260 425 182 275 182 c 1
 275 204.560546875 l 1
 355.185546875 209.717773438 381 266.260502488 381 304 c 0
 381 344 352 405 260 405 c 2
 202 405 l 2
 179 405 173 400 173 361 c 2
 173 69 l 2
 173 30 184 23 243 23 c 2
 251 23 l 1
EndSplineSet
EndChar

StartChar: tau
Encoding: 964 964 127
Width: 500
Flags: W
HStem: 0 23<105 117> 408 22<113 182.5 307 327 327 336>
VStem: 25 25<269 269> 215 70<74 317 74 370 74 370> 449 25<269 269>
LayerCount: 2
Fore
SplineSet
25 269 m 1
 36 430 l 1
 463 430 l 1
 474 269 l 1
 449 269 l 1
 442 369 436 408 336 408 c 2
 327 408 l 2
 287 408 284 402 284 350 c 0
 284 339 285 328 285 317 c 2
 285 74 l 2
 286 31 297 23 382 23 c 2
 395 23 l 1
 395 0 l 1
 344 2 294 3 243 3 c 0
 215 3 188 3 105 0 c 1
 105 23 l 1
 117 23 l 2
 199 23 215 30 215 74 c 2
 215 370 l 2
 214 407 202 408 163 408 c 0
 63 408 57 369 50 269 c 1
 25 269 l 1
EndSplineSet
EndChar

StartChar: phi
Encoding: 966 966 128
Width: 458
Flags: W
HStem: 0 31<95 185.303 268.242 359> 80 23<153.692 192 262 304.67> 328 23<262 302.279> 399 31<95 185.209 269.016 359>
VStem: 27 71<146.775 282.092> 192 70<36.6629 80 103 327 351 393.533> 360 71<148.43 283.918>
LayerCount: 2
Fore
SplineSet
262 79 m 1
 262 76 l 2
 262 38 272 31 343 31 c 2
 359 31 l 1
 359 0 l 1
 290 3 252 3 236 3 c 2
 232 3 l 2
 186 3 141 2 95 0 c 1
 95 31 l 1
 110 31 l 2
 183 31 192 40 192 76 c 2
 192 80 l 1
 191 80 l 1
 110 88 27 127 27 215 c 0
 27 273 68 337 191 350 c 1
 192 351 l 1
 192 353 l 2
 192 394 178 399 105 399 c 2
 95 399 l 1
 95 430 l 5
 141 428 186 427 232 427 c 0
 257 427 295 427 359 430 c 1
 359 399 l 1
 349 399 l 2
 274 399 262 393 262 353 c 2
 262 351 l 1
 377 338 431 286 431 216 c 0
 431 142 372 91 262 79 c 1
98 216 m 0
 98 151 119 116 192 103 c 1
 192 327 l 1
 119 314 98 276 98 216 c 0
262 102 m 1
 307 110 360 126 360 214 c 0
 360 281 336 316 262 328 c 1
 262 102 l 1
EndSplineSet
EndChar

StartChar: psi
Encoding: 968 968 129
Width: 583
Flags: W
HStem: 0 31<156 246.303 329.242 420> 399 31<156 246.209 330.016 420>
VStem: 253 70<36.6629 114.47 136 393.533>
LayerCount: 2
Fore
SplineSet
253 110 m 1
 192 120 156.123046875 145.501953125 128 183 c 0
 107 211 102.344726562 236.841796875 88 263 c 0
 71 294 24 307 24 318 c 0
 24 328 37 329 50 329 c 2
 64 329 l 2
 98 329 133.954101562 295.15234375 152 258 c 0
 169 223 178 161 253 136 c 1
 253 353 l 2
 253 394 239 399 166 399 c 2
 156 399 l 1
 156 430 l 5
 202 428 247 427 293 427 c 0
 318 427 356 427 420 430 c 1
 420 399 l 1
 410 399 l 2
 335 399 323 393 323 353 c 2
 323 136 l 1
 398 161 407 223 424 258 c 0
 442.045586088 295.152677241 478 329 512 329 c 2
 526 329 l 2
 539 329 552 328 552 318 c 0
 552 307 505 294 488 263 c 0
 473.655384285 236.842171344 469 211 448 183 c 0
 419.876700051 145.502266735 384 120 323 110 c 1
 323 76 l 2
 323 38 333 31 404 31 c 2
 420 31 l 1
 420 0 l 1
 351 3 313 3 297 3 c 2
 293 3 l 2
 247 3 202 2 156 0 c 1
 156 31 l 1
 171 31 l 2
 244 31 253 40 253 76 c 2
 253 110 l 1
EndSplineSet
EndChar

StartChar: omega
Encoding: 969 969 130
Width: 779
Flags: W
HStem: -11 26<192.53 298.061 478.618 585.96> 310 23<303 347.437 429.224 473> 409 23<199.941 259.972 517.028 576.436>
VStem: 33 84<109.462 308.918> 355 67<84.5435 307.221> 660 84<110.066 309.559>
CounterMasks: 1 1c
LayerCount: 2
Fore
SplineSet
531 409 m 8
 523.719726562 409 517 412 517 420 c 0
 517 428.083007812 526.596679688 432 533 432 c 16
 636 432 744 350 744 210 c 0
 744 92 662 -11 544 -11 c 0
 507 -11 430 1 389 83 c 1
 388 83 l 1
 347 1 270 -11 233 -11 c 0
 124 -11 33 82 33 210 c 0
 33 348 139 432 244 432 c 8
 250.403320312 432 260 428.083007812 260 420 c 0
 260 412 253.280273438 409 246 409 c 16
 194 409 117 372 117 211 c 0
 117 89 166 15 239 15 c 0
 295 15 355 52 355 92 c 2
 355 265 l 6
 355 308 339 309 303 310 c 5
 303 333 l 5
 321 332 348 330 393 330 c 4
 420 330 446 331 473 333 c 5
 473 310 l 5
 437 309 422 309 422 265 c 6
 422 92 l 2
 422 78 422 73 437 57 c 0
 465 28 503 15 538 15 c 0
 587 15 660 53 660 211 c 0
 660 373 583 409 531 409 c 8
EndSplineSet
EndChar

StartChar: omegatonos
Encoding: 974 974 131
Width: 779
Flags: W
HStem: -11 26<192.53 298.061 478.618 585.96> 409 23<199.941 259.972 303 348.039 428.645 473 517.028 576.436>
VStem: 33 84<109.462 308.918> 355 67<84.5435 407.221> 660 84<110.066 309.559>
LayerCount: 2
Fore
SplineSet
531 409 m 8
 523.719726562 409 517 412 517 420 c 0
 517 428.083007812 526.596679688 432 533 432 c 16
 636 432 744 350 744 210 c 0
 744 92 662 -11 544 -11 c 0
 507 -11 430 1 389 83 c 1
 388 83 l 1
 347 1 270 -11 233 -11 c 0
 124 -11 33 82 33 210 c 0
 33 348 139 432 244 432 c 8
 250.403320312 432 260 428.083007812 260 420 c 0
 260 412 253.280273438 409 246 409 c 16
 194 409 117 372 117 211 c 0
 117 89 166 15 239 15 c 0
 295 15 355 52 355 92 c 2
 355 265 l 6
 355 308 339 309 303 310 c 5
 303 333 l 5
 321 332 348 330 393 330 c 4
 420 330 446 331 473 333 c 5
 473 310 l 5
 437 309 422 309 422 265 c 6
 422 92 l 2
 422 78 422 73 437 57 c 0
 465 28 503 15 538 15 c 0
 587 15 660 53 660 211 c 0
 660 373 583 409 531 409 c 8
EndSplineSet
EndChar

StartChar: upsilontonos
Encoding: 973 973 132
Width: 536
Flags: W
HStem: 0 20.48<138.24 216.319 281.601 359.68> 295.04 53.12<387.433 437.085>
VStem: 35.2 20.48<343.069 376.339> 220.16 57.6<24.7953 294.387> 437.76 24.32<337.797 386.614>
LayerCount: 2
Fore
SplineSet
296.990234375 68 m 2
 297 -117 l 2
 297.003770885 -155.999999635 302 -164 368 -164 c 2
 375 -164 l 1
 375 -195 l 1
 337 -193 298 -192 260 -192 c 0
 238 -192 206 -192 152 -195 c 1
 152 -164 l 1
 156 -164 l 2
 223 -164 230 -157 230 -117 c 2
 230 68 l 2
 230 133 230 181.189453125 228.845703125 188.120117188 c 0
 221.915039062 302.46484375 182.645507812 370.609375 113.345703125 370.609375 c 0
 98.330078125 370.609375 46.35546875 362.524414062 40.580078125 315.169921875 c 0
 39.42578125 304.774414062 37.115234375 302.46484375 27.875 302.46484375 c 0
 18.6357421875 301.309570312 16.3251953125 303.620117188 16.3251953125 312.859375 c 0
 16.3251953125 356.75 42.890625 417.96484375 99.4853515625 427.205078125 c 1
 180.3359375 435.290039062 239.240234375 372.919921875 261.185546875 257.419921875 c 1
 263.495117188 249.334960938 l 1
 264.650390625 250.489257812 265.805664062 256.264648438 266.9609375 265.504882812 c 0
 281.975585938 337.114257812 318.935546875 426.049804688 407.870117188 428.359375 c 0
 486.41015625 430.669921875 509.510742188 350.974609375 509.510742188 309.39453125 c 0
 509.510742188 283.984375 500.270507812 247.024414062 452.915039062 247.024414062 c 0
 426.350585938 247.024414062 419.420898438 264.349609375 419.420898438 278.209960938 c 0
 419.420898438 295.53515625 430.970703125 307.084960938 452.915039062 308.239257812 c 0
 469.0859375 309.39453125 481.790039062 315.169921875 481.790039062 330.184570312 c 0
 481.790039062 365.989257812 394.010742188 392.5546875 345.5 341.734375 c 0
 322.400390625 317.479492188 307.385742188 275.899414062 300.455078125 223.924804688 c 0
 296.990234375 197.359375 297 194 296.990234375 68 c 2
EndSplineSet
Substitution2: "'salt' Stylistic Alternatives lookup 1-1" upsilontonos.alt
EndChar

StartChar: omicrontonos
Encoding: 972 972 133
Width: 500
Flags: W
HStem: -11 25<194.976 303.41> 426 22<198.857 300.319>
VStem: 28 83<117.95 313.472> 388 83<118.022 313.836>
LayerCount: 2
Fore
SplineSet
28 214 m 0
 28 339 125 448 250 448 c 0
 371 448 471 342 471 214 c 0
 471 87 370 -11 249 -11 c 0
 132 -11 28 85 28 214 c 0
111 222 m 0
 111 186 111 125 136 81 c 0
 163 35 207 14 250 14 c 0
 300 14 344 43 366 88 c 0
 388 132 388 186 388 222 c 0
 388 260 388 318 362 361 c 0
 336 404 293 426 249 426 c 0
 209 426 162 405 135 359 c 0
 111 315 111 261 111 222 c 0
EndSplineSet
EndChar

StartChar: Alphatonos
Encoding: 902 902 134
Width: 710
Flags: W
HStem: -20 21G<58 136.47> 0 32<604.263 691> 649 34<120.394 200.196>
LayerCount: 2
Fore
SplineSet
465 139 m 1x60
 321.451171875 107.961914062 206.940429688 82.8544921875 66 -20 c 1xa0
 50 -20 31 -13 26 9 c 1
 128 176 302 420 302 502 c 0
 302 525.76953125 295 546 280 568 c 0
 243.21484375 621.952148438 178.393554688 649 120.393554688 649 c 1
 120.393554688 683 l 1
 177.68359375 680.491210938 245.327148438 678.8125 318.5390625 683 c 5
 597.92578125 58 l 2
 607.787109375 35.9052734375 623.200195312 32 675.200195312 32 c 2
 691 32 l 1
 691 0 l 1
 685 0 l 1
 665.650390625 4 526.737304688 3 514 0 c 0
 512.045898438 -0.4599609375 483.6796875 96.0087890625 465 139 c 1x60
452 179 m 1
 427.478515625 235.24609375 365.356445312 368.604492188 343 416 c 1
 333 416 323 416 323 416 c 1
 257 310 144 132.810546875 144 125.810546875 c 0
 144 120 150.27734375 121.525390625 154 123 c 0
 251.997070312 161.818359375 421 181 452 179 c 1
EndSplineSet
EndChar

StartChar: Epsilontonos
Encoding: 904 904 135
Width: 722
Flags: W
HStem: -22 31<335.309 507.57> 328 51<227.215 473.485> 338 31<159.593 317.202> 674 31<336.194 502.446>
VStem: 56 103.007<217.893 338 369 460.529> 493 25<221 296.71 409.87 486> 623 32<500.003 557.532>
LayerCount: 2
Fore
SplineSet
655 591 m 1xbe
 655 524 l 2
 655 503 655 500 639 500 c 0
 625 500 627.076171875 503.458007812 623 517 c 0
 592 620 524 674 415 674 c 0
 355.959385 674 171.388959353 642.149152522 159.592677774 369 c 1xbe
 385 379 l 6
 480.811426238 383.250590677 493 400 493 486 c 1
 518 486 l 1
 518 221 l 1
 493 221 l 1
 493 306 480.812401053 323.76038851 385 328 c 6xde
 159.006648327 338 l 1
 160.31783708 42.7715154789 355.205309564 9 416 9 c 0
 525 9 581.71875 57.5146484375 632.755859375 131.109375 c 0
 638.483398438 139.368164062 641.229492188 144.71875 650.912109375 139.498046875 c 0
 662.354492188 133.329101562 659.033203125 127.16796875 654.287109375 118.365234375 c 0
 608.254882812 32.9833984375 537 -22 404 -22 c 0
 218 -22 56 135 56 342 c 0
 56 546 217 705 404 705 c 0
 500 705 587 700 655 591 c 1xbe
EndSplineSet
EndChar

StartChar: Etatonos
Encoding: 905 905 136
Width: 750
Flags: W
HStem: 0 31<33 57> 340 31<225 524 225 524> 652 31<33 57 33 33>
VStem: 136 89<78 340 371 605> 524 89<78 340 340 340 371 605>
LayerCount: 2
Fore
SplineSet
716 0 m 1
 681 3 606 3 568 3 c 0
 530 3 456 3 421 0 c 1
 421 31 l 1
 445 31 l 2
 522 31 524 42 524 78 c 2
 524 340 l 1
 225 340 l 1
 225 78 l 2
 225 42 227 31 304 31 c 2
 328 31 l 1
 328 0 l 1
 293 3 218 3 180 3 c 0
 142 3 68 3 33 0 c 1
 33 31 l 1
 57 31 l 2
 134 31 136 42 136 78 c 2
 136 605 l 2
 136 641 134 652 57 652 c 2
 33 652 l 1
 33 683 l 1
 68 680 143 680 181 680 c 0
 219 680 293 680 328 683 c 1
 328 652 l 1
 304 652 l 2
 227 652 225 641 225 605 c 2
 225 371 l 1
 524 371 l 1
 524 605 l 2
 524 641 522 652 445 652 c 2
 421 652 l 1
 421 683 l 1
 456 680 531 680 569 680 c 0
 607 680 681 680 716 683 c 5
 716 652 l 1
 692 652 l 2
 615 652 613 641 613 605 c 2
 613 78 l 2
 613 42 615 31 692 31 c 2
 716 31 l 1
 716 0 l 1
EndSplineSet
EndChar

StartChar: Iotatonos
Encoding: 906 906 137
Width: 361
Flags: W
HStem: 0 32<28 38 28 46 38 46 46 78.5 314 322 322 332> 651 32<28 38 38 46 28 38 279 314 314 322 322 332>
VStem: 135 91<58 626 58 626>
LayerCount: 2
Fore
SplineSet
135 626 m 1
 123 645 121 651 46 651 c 2
 28 651 l 1
 28 683 l 1
 38 683 l 2
 56 680 302 680 322 683 c 2
 332 683 l 1
 332 651 l 1
 314 651 l 2
 244 651 235 646 226 626 c 1
 226 58 l 1
 232 39 239 32 314 32 c 2
 332 32 l 1
 332 0 l 1
 322 0 l 2
 304 3 58 3 38 0 c 2
 28 0 l 1
 28 32 l 1
 46 32 l 2
 111 32 125 35 135 58 c 1
 135 626 l 1
EndSplineSet
EndChar

StartChar: Omicrontonos
Encoding: 908 908 138
Width: 778
Flags: W
HStem: -22 26<341 435 341 479> 680 25<346.5 431.5>
VStem: 56 103<236.5 442> 618 103<238 441 238 481>
LayerCount: 2
Fore
SplineSet
721 339 m 0
 721 137 570 -22 388 -22 c 0
 210 -22 56 134 56 339 c 0
 56 545 209 705 388 705 c 0
 570 705 721 543 721 339 c 0
618 353 m 0
 618 609 475 680 388 680 c 0
 305 680 159 612 159 353 c 0
 159 92 293 4 389 4 c 0
 481 4 618 88 618 353 c 0
EndSplineSet
EndChar

StartChar: Omegatonos
Encoding: 911 911 139
Width: 1000
Flags: W
HStem: -22 27<264.86 386.292 613.638 731.538> 680 25<275.773 330.972 406 447.809 551.261 593 668.028 726.131>
VStem: 55 103<193.887 483.508> 457 84<86.171 672.638> 840 104<194.532 485.075>
LayerCount: 2
Fore
SplineSet
684 705 m 16
 761 705 828.785540412 658.86044873 877 585 c 0
 924 513 944 426 944 341 c 0
 944 142 837 -22 694 -22 c 0
 577 -22 524 43 499 86 c 1
 447 -13 345 -22 305 -22 c 0
 161 -22 55 141 55 341 c 0
 55 547 173 705 315 705 c 8
 321.403320312 705 331 701.083007812 331 693 c 0
 331 685 325.280273438 680 318 680 c 16
 254 680 158 607 158 345 c 0
 158 136 220 5 313 5 c 0
 389 5 443 45 454 66 c 0
 457 73 457 81 457 88 c 2
 457 489 l 6
 456 525 441 524 406 525 c 5
 406 555 l 5
 435 553 463 553 492 553 c 4
 516 553 560 552 593 555 c 5
 593 525 l 5
 558 524 542 524 541 489 c 6
 541 88 l 2
 541 68 542 64 560 48 c 0
 597 16 648 5 686 5 c 2
 687 5 l 2
 779 5 840 138 840 345 c 0
 840 609 745 680 681 680 c 8
 673.719726562 680 668 685 668 693 c 0
 668 701.083007812 677.596679688 705 684 705 c 16
EndSplineSet
EndChar

StartChar: Iotadieresis
Encoding: 938 938 140
Width: 361
Flags: W
HStem: 0 32<28 38 28 46 38 46 46 78.5 314 322 322 332> 651 32<28 38 38 46 28 38 279 314 314 322 322 332>
VStem: 135 91<58 626 58 626>
LayerCount: 2
Fore
SplineSet
139 784 m 4
 139 761 121 736 90 736 c 4
 63 736 42 759 42 784 c 4
 42 806 60 831 91 831 c 4
 118 831 139 808 139 784 c 4
317 784 m 4
 317 761 299 736 268 736 c 4
 241 736 220 759 220 784 c 4
 220 806 238 831 269 831 c 4
 296 831 317 808 317 784 c 4
EndSplineSet
Refer: 91 921 N 1 0 0 1 0 0 3
EndChar

StartChar: Upsilondieresis
Encoding: 939 939 141
Width: 778
Flags: W
HStem: 0 32<216 227 216 238 227 238 238 272 540 551 551 562> 727 106<282 305 282 306 479 502>
VStem: 344 90<134.5 224 134.5 256>
LayerCount: 2
Fore
SplineSet
349 784 m 4
 349 761 331 736 300 736 c 4
 273 736 252 759 252 784 c 4
 252 806 270 831 301 831 c 4
 328 831 349 808 349 784 c 4
527 784 m 4
 527 761 509 736 478 736 c 4
 451 736 430 759 430 784 c 4
 430 806 448 831 479 831 c 4
 506 831 527 808 527 784 c 4
EndSplineSet
Refer: 103 933 N 1 0 0 1 0 0 3
EndChar

StartChar: periodcentered
Encoding: 183 183 142
Width: 278
Flags: W
HStem: 323 107<124 152.5>
VStem: 85 107<362 390.5>
LayerCount: 2
Fore
SplineSet
85 375 m 0
 85 406 109 430 139 430 c 0
 168 430 192 406 192 377 c 0
 192 347 168 323 137 323 c 0
 109 323 85 347 85 375 c 0
EndSplineSet
EndChar

StartChar: tonos
Encoding: 900 900 143
Width: 167
Flags: W
HStem: 680 20G<112.5 125.5>
LayerCount: 2
Fore
SplineSet
121 700 m 4
 130 700 164 693 164 662 c 4
 164 644 159 643 94 561 c 6
 29 480 l 6
 28 479 16 486 16 487 c 4
 16 489 89 675 92 680 c 4
 95 686 104 700 121 700 c 4
EndSplineSet
EndChar

StartChar: dieresistonos
Encoding: 901 901 144
Width: 278
Flags: W
HStem: 483 78<41 64 215 216.5> 680 20G<196 222.5>
VStem: 13 78<518 526.5> 186 79<511.5 530>
LayerCount: 2
Fore
SplineSet
267.064453125 522.91796875 m 0
 267.064453125 503.680664062 252.009765625 482.770507812 226.08203125 482.770507812 c 0
 203.499023438 482.770507812 185.935546875 502.008789062 185.935546875 522.91796875 c 0
 185.935546875 541.319335938 200.990234375 562.229492188 226.91796875 562.229492188 c 0
 249.500976562 562.229492188 267.064453125 542.991210938 267.064453125 522.91796875 c 0
92.064453125 522.91796875 m 0
 92.064453125 503.680664062 77.009765625 482.770507812 51.08203125 482.770507812 c 0
 28.4990234375 482.770507812 10.935546875 502.008789062 10.935546875 522.91796875 c 0
 10.935546875 541.319335938 25.990234375 562.229492188 51.91796875 562.229492188 c 0
 74.5009765625 562.229492188 92.064453125 542.991210938 92.064453125 522.91796875 c 0
112 479 m 1
 99 487 l 2
 99 488 173 677 175 680 c 0
 177 686 186 700 206 700 c 0
 239 700 247 671 247 663 c 0
 247 657 246 652 243 646 c 0
 242 643 212 604 176 560 c 2
 112 479 l 1
EndSplineSet
EndChar

StartChar: dieresis
Encoding: 168 168 145
Width: 320
Flags: W
HStem: 557 95<31.0769 111.432 209.077 289.432>
VStem: 22.5 97<565.433 643.613> 200.5 97<565.433 643.613>
LayerCount: 2
Fore
SplineSet
119.5 605 m 0
 119.5 582 101.5 557 70.5 557 c 0
 43.5 557 22.5 580 22.5 605 c 0
 22.5 627 40.5 652 71.5 652 c 0
 98.5 652 119.5 629 119.5 605 c 0
297.5 605 m 0
 297.5 582 279.5 557 248.5 557 c 0
 221.5 557 200.5 580 200.5 605 c 0
 200.5 627 218.5 652 249.5 652 c 0
 276.5 652 297.5 629 297.5 605 c 0
EndSplineSet
EndChar

StartChar: iotadieresis
Encoding: 970 970 146
Width: 286
Flags: W
HStem: 0 23<33 101.585 191.12 259> 410 22<33 100.042 191.12 259> 518 95<14.5769 94.9316 192.577 272.932>
VStem: 6 97<526.433 604.613> 111 70<27.6945 405.266> 184 97<526.433 604.613>
LayerCount: 2
Fore
SplineSet
103 566 m 4
 103 543 85 518 54 518 c 4
 27 518 6 541 6 566 c 4
 6 588 24 613 55 613 c 4
 82 613 103 590 103 566 c 4
281 566 m 4
 281 543 263 518 232 518 c 4
 205 518 184 541 184 566 c 4
 184 588 202 613 233 613 c 4
 260 613 281 590 281 566 c 4
EndSplineSet
Refer: 109 953 N 1 0 0 1 0 0 3
EndChar

StartChar: upsilondieresis
Encoding: 971 971 147
Width: 536
Flags: W
HStem: -195 31<152 224.828 302.064 375> 247.024 61.2148<420.631 481.736> 518 95<135.577 215.932 313.577 393.932>
VStem: 16.3252 24.2549<302.503 343.424> 127 97<526.433 604.613> 230 67<-159.676 247.422> 305 97<526.433 604.613> 481.79 27.7207<296.689 353.161>
LayerCount: 2
Fore
SplineSet
224 566 m 4
 224 543 206 518 175 518 c 4
 148 518 127 541 127 566 c 4
 127 588 145 613 176 613 c 4
 203 613 224 590 224 566 c 4
402 566 m 4
 402 543 384 518 353 518 c 4
 326 518 305 541 305 566 c 4
 305 588 323 613 354 613 c 4
 381 613 402 590 402 566 c 4
EndSplineSet
Refer: 105 965 N 1 0 0 1 0 0 3
Substitution2: "'salt' Stylistic Alternatives lookup 1-1" upsilondieresis.alt
EndChar

StartChar: Xi.alt
Encoding: 1114112 -1 148
Width: 637
Flags: W
HStem: 0 71<184 420.863> 0 57<50 93.0834> 446 74<253.914 382.653> 606 71<95.4355 572>
VStem: 47 26<520 598.504> 155 22<332 349.062> 414 94<326.521 416.1> 568 26<-96.8818 -11.3595>
LayerCount: 2
Fore
SplineSet
572 606 m 1x3f
 544.853515625 606.08984375 333 606 333 606 c 2
 129 606 97 605 88 600 c 0
 79 597 73 549 73 522 c 0
 73 520 72 520 60 520 c 2
 47 520 l 1
 55 677 l 1
 572 677 l 1
 572 606 l 1x3f
348 520 m 0
 427.16 520 508 476.140625 508 392 c 0
 508 269 276 137 184 86 c 1
 184 71 l 1
 279.669921875 70.9443359375 585.965460997 70.8391657495 586 70.1181640625 c 9
 594 -96.8818359375 l 1
 568 -96.8818359375 l 1
 568 -85.8818359375 l 2
 565 -41.8818359375 565.285288862 -20.8995197254 557 -10.8818359375 c 0
 548 0 526.541992188 -0.349609375 454 0.021484375 c 1
 417.289984074 2.42861286637e-17 376.260037537 -5.29782665009e-15 333 0 c 2xbf
 50 0 l 1
 50 57 l 1x7f
 169 109 414 259 414 367 c 0
 414 411.470703125 373 446 311 446 c 0
 252.78515625 446 211 413 177 326 c 1
 155 332 l 1
 155 366 l 1
 201 493 274 520 348 520 c 0
EndSplineSet
EndChar

StartChar: xi.alt
Encoding: 1114113 -1 149
Width: 402
VWidth: 2048
Flags: W
HStem: 0 51<117 353.714> 276 56<148.076 242.382> 380 51<56.2919 364>
VStem: 28 16<307 368.726> 91 19<215.789 225.209> 249 78<201.316 268.481> 362 17<-74 -7.29583>
LayerCount: 2
Fore
SplineSet
364 380 m 1
 347 380 212 380 212 380 c 2
 82 380 62 380 56 377 c 0
 50 375 44 325 44 308 c 0
 44 307 44 307 36 307 c 2
 28 307 l 1
 35 431 l 1
 364 431 l 1
 364 380 l 1
96 248 m 1
 111 293 161 332 225 332 c 0
 276 332 327 305 327 254 c 0
 327 178 168 84 117 61 c 1
 117 51 l 1
 178 51 373 51 373 51 c 9
 379 -74 l 1
 362 -74 l 1
 362 -67 l 2
 360 -39 359 -13 354 -7 c 0
 348 0 335 0 289 0 c 1
 266 0 240 0 212 0 c 2
 32 0 l 1
 32 42 l 1
 106 83 249 174 249 233 c 0
 249 261 224 276 201 276 c 0
 159 276 127 239 110 212 c 1
 91 218 l 1
 96 248 l 1
EndSplineSet
EndChar

StartChar: uni0374
Encoding: 884 884 150
Width: 194
Flags: W
HStem: 680 20G<134.5 154.5>
LayerCount: 2
Fore
SplineSet
50 480 m 0
 46 481 38 486 38 488 c 0
 39 493 112 679 115 683 c 0
 118 689 126 700 143 700 c 0
 166 700 185 685 185 662 c 0
 185 654 185 652 183 647 c 0
 159 612 51 480 50 480 c 0
EndSplineSet
EndChar

StartChar: uni0375
Encoding: 885 885 151
Width: 194
Flags: W
HStem: -214 218
VStem: 22 147
LayerCount: 2
Fore
SplineSet
157 4 m 1
 167 -3 169 -2 169 -5 c 0
 169 -6 95 -194 93 -198 c 0
 91 -203 83 -211 78 -214 c 0
 73 -216 71 -216 62 -216 c 0
 39 -216 22 -202 22 -179 c 0
 22 -161 28 -156 92 -77 c 2
 157 4 l 1
EndSplineSet
EndChar

StartChar: uni037E
Encoding: 894 894 152
Width: 278
Flags: W
HStem: 0 21G<116.5 144>
LayerCount: 2
Fore
SplineSet
86 376 m 0
 86 408 111 430 139 430 c 0
 168 430 192 406 192 377 c 0
 192 332 150 323 139 323 c 0
 108 323 86 347 86 376 c 0
85 53 m 0
 85 82 106 106 138 106 c 0
 184 106 194 60 194 2 c 0
 194 -75 162 -145 125 -184 c 0
 119 -191 115 -194 112 -194 c 0
 109 -194 107 -193 104 -190 c 0
 97 -183 98 -181 110 -167 c 0
 178 -87 172 11 171 10 c 0
 160 3 149 0 139 0 c 0
 94 0 85 42 85 53 c 0
EndSplineSet
EndChar

StartChar: anoteleia
Encoding: 903 903 153
Width: 278
Flags: W
HStem: 323 107<124 152.5>
VStem: 85 107<362 390.5>
LayerCount: 2
Fore
SplineSet
85 375 m 0
 85 406 109 430 139 430 c 0
 168 430 192 406 192 377 c 0
 192 347 168 323 137 323 c 0
 109 323 85 347 85 375 c 0
EndSplineSet
EndChar

StartChar: ampersand.alt
Encoding: 1114114 -1 154
Width: 880
Flags: W
HStem: -22 31<335.645 508.351> -7.67969 24.7197<625.532 718.438> 388.08 45.2002<166.123 570.96 673.588 810.12> 674 31<335.635 503.183>
VStem: 56 103<217.113 383.532> 468.8 83<78.7088 254.909> 818.767 25.7139<450.127 469.301>
LayerCount: 2
Fore
SplineSet
470.428710938 433.280273438 m 2x3e
 539.567382812 433.280273438 610 456.175251016 610 513 c 0
 610 582 554 674 415 674 c 0
 360.957908685 673.114064077 201.741567729 647.111889433 166.122958612 433.280273438 c 1
 470.428710938 433.280273438 l 2x3e
554.451939538 11.912199275 m 1
 515.420945224 -9.8441136332 466.535865818 -22 404 -22 c 0xbe
 218 -22 56 135 56 342 c 0
 56 546 217 704 404 705 c 0
 500 705 668 678.78515625 668 539 c 0
 668 503.264648438 653.359375 474.140625 627 453.901367188 c 1
 627.428710938 433.280273438 l 1
 760.639648438 433.280273438 l 2
 768.993148627 433.280273438 808 435 818.766601562 471.494140625 c 1
 844.48046875 468.48046875 l 1
 823.360351562 377.83984375 l 1
 800.959960938 386.16015625 794.559570312 388.080078125 765.759765625 388.080078125 c 0
 638.0078125 388.080078125 551.799804688 281.599609375 551.799804688 167.040039062 c 0
 551.799804688 62.53125 619.51953125 17.0400390625 673.120117188 17.0400390625 c 0
 713.987304688 17.0400390625 747.830078125 39.962890625 785.639648438 111.48046875 c 1
 806.120117188 98.0400390625 820.799804688 78.080078125 825.407226562 55.275390625 c 1
 758.080078125 -5.1201171875 681.793945312 -7.6796875 649.280273438 -7.6796875 c 0x7e
 613.415749011 -7.6796875 581.298471896 -0.847377374002 554.451939538 11.912199275 c 1
524.175430613 30.5475888896 m 1
 489.222951635 57.9737776623 468.799804688 99.0917979833 468.799804688 150.400390625 c 0
 468.799804688 281.64453125 538.639648438 326.799804688 618 378 c 1
 618.200195312 388.080078125 l 1
 160.72398376 388.080078125 l 1
 159.593054777 373.169541644 159 357.489264593 159 341 c 0
 159 43 355 9 416 9 c 0
 459.351008571 9 494.432286226 16.6739383254 524.175430613 30.5475888896 c 1
EndSplineSet
EndChar

StartChar: upsilon.alt
Encoding: 1114115 -1 155
Width: 528
Flags: W
HStem: -195 31<152 156> 408 22<8 31>
VStem: 230 67<-117 -16>
LayerCount: 2
Fore
SplineSet
8 408 m 1
 8 430 l 1
 40 428 72 428 104 428 c 0
 141 428 177 428 214 430 c 1
 214 408 l 1
 200 408 157 409 157 378 c 0
 157 374 158 370 159 365 c 0
 163 352 280 55 286 41 c 1
 291 55 297 69 302 82 c 2
 394 318 l 2
 399 332 406 346 406 361 c 0
 406 389 387 405 358 408 c 1
 358 430 l 1
 387 428 416 428 445 428 c 0
 470 428 495 428 519 430 c 1
 519 408 l 1
 451 403 436 355 415 300 c 2
 304 16 l 2
 298 1 297 -3 297 -16 c 2
 297 -117 l 2
 297 -156 302 -164 368 -164 c 2
 375 -164 l 1
 375 -195 l 1
 337 -193 298 -192 260 -192 c 0
 238 -192 206 -192 152 -195 c 1
 152 -164 l 1
 156 -164 l 2
 223 -164 230 -157 230 -117 c 2
 230 -16 l 2
 230 -3 229 1 223 16 c 2
 88 362 l 2
 70 407 54 408 8 408 c 1
EndSplineSet
EndChar

StartChar: upsilondieresis.alt
Encoding: 1114117 -1 157
Width: 528
Flags: W
HStem: -195 31<152 224.828 302.062 375> 408 22<8 65.9144 165.602 214 358 388.688 479.162 519> 518 95<135.577 215.932 313.577 393.932>
VStem: 127 97<526.433 604.613> 230 67<-159.676 51.5> 305 97<526.433 604.613>
LayerCount: 2
Fore
SplineSet
224 566 m 4
 224 543 206 518 175 518 c 4
 148 518 127 541 127 566 c 4
 127 588 145 613 176 613 c 4
 203 613 224 590 224 566 c 4
402 566 m 4
 402 543 384 518 353 518 c 4
 326 518 305 541 305 566 c 4
 305 588 323 613 354 613 c 4
 381 613 402 590 402 566 c 4
8 408 m 1
 8 430 l 1
 40 428 72 428 104 428 c 0
 141 428 177 428 214 430 c 1
 214 408 l 1
 200 408 157 409 157 378 c 0
 157 374 158 370 159 365 c 0
 163 352 280 55 286 41 c 1
 291 55 297 69 302 82 c 2
 394 318 l 2
 399 332 406 346 406 361 c 0
 406 389 387 405 358 408 c 1
 358 430 l 1
 387 428 416 428 445 428 c 0
 470 428 495 428 519 430 c 1
 519 408 l 1
 451 403 436 355 415 300 c 2
 304 16 l 2
 298 1 297 -3 297 -16 c 2
 297 -117 l 2
 297 -156 302 -164 368 -164 c 2
 375 -164 l 1
 375 -195 l 1
 337 -193 298 -192 260 -192 c 0
 238 -192 206 -192 152 -195 c 1
 152 -164 l 1
 156 -164 l 2
 223 -164 230 -157 230 -117 c 2
 230 -16 l 2
 230 -3 229 1 223 16 c 2
 88 362 l 2
 70 407 54 408 8 408 c 1
EndSplineSet
EndChar

StartChar: upsilondieresistonos.alt
Encoding: 1114118 -1 158
Width: 528
Flags: W
HStem: -195 31<152 224.828 302.062 375> 408 22<8 65.9144 165.602 214 358 388.688 479.162 519> 518 95<135.577 215.932 313.577 393.932>
VStem: 127 97<526.433 604.613> 230 67<-159.676 51.5> 305 97<526.433 604.613>
LayerCount: 2
Fore
SplineSet
224 566 m 4
 224 543 206 518 175 518 c 4
 148 518 127 541 127 566 c 4
 127 588 145 613 176 613 c 4
 203 613 224 590 224 566 c 4
402 566 m 4
 402 543 384 518 353 518 c 4
 326 518 305 541 305 566 c 4
 305 588 323 613 354 613 c 4
 381 613 402 590 402 566 c 4
8 408 m 1
 8 430 l 1
 40 428 72 428 104 428 c 0
 141 428 177 428 214 430 c 1
 214 408 l 1
 200 408 157 409 157 378 c 0
 157 374 158 370 159 365 c 0
 163 352 280 55 286 41 c 1
 291 55 297 69 302 82 c 2
 394 318 l 2
 399 332 406 346 406 361 c 0
 406 389 387 405 358 408 c 1
 358 430 l 1
 387 428 416 428 445 428 c 0
 470 428 495 428 519 430 c 1
 519 408 l 1
 451 403 436 355 415 300 c 2
 304 16 l 2
 298 1 297 -3 297 -16 c 2
 297 -117 l 2
 297 -156 302 -164 368 -164 c 2
 375 -164 l 1
 375 -195 l 1
 337 -193 298 -192 260 -192 c 0
 238 -192 206 -192 152 -195 c 1
 152 -164 l 1
 156 -164 l 2
 223 -164 230 -157 230 -117 c 2
 230 -16 l 2
 230 -3 229 1 223 16 c 2
 88 362 l 2
 70 407 54 408 8 408 c 1
EndSplineSet
EndChar

StartChar: Upsilontonos
Encoding: 910 910 159
Width: 778
Flags: W
HStem: 0 32<216 337.998 440.002 562> 461 83<605.364 682.946>
VStem: 55 32<536.046 588.029> 344 90<38.7426 459.98> 684 38<527.808 604.085>
LayerCount: 2
Fore
SplineSet
684 573 m 0
 684 621 565.874580689 657.060037507 501 588 c 0
 470 555 449 500 440 429 c 0
 435 393 435 394 434 224 c 0
 434 45 433 57 440 48 c 0
 448 36 472 32 540 32 c 2
 562 32 l 1
 562 0 l 1
 551 0 l 2
 532 3 247 3 227 0 c 2
 216 0 l 1
 216 32 l 1
 238 32 l 2
 306 32 330 37 338 48 c 0
 344 57 344 46 344 212 c 0
 344 300 344 370 343 380 c 0
 333 534 280 627 186 627 c 0
 166 627 95 616 87 552 c 0
 86 538 84 536 71 536 c 0
 59 535 55 537 55 550 c 0
 55 609 91 691 167 704 c 1
 276 715 357 632 386 475 c 1
 389 463 l 1
 390 464 392 474 394 486 c 0
 414 583 463.898184589 701.600892017 584 705 c 0
 690 708 722 602 722 545 c 0
 722 510.615317958 710 461 646 461 c 0
 610 461 601 485 601 503 c 0
 601 526 616 542 645 544 c 0
 666.970528942 545.515208893 684 553.159670332 684 573 c 0
EndSplineSet
EndChar

StartChar: iotadieresistonos
Encoding: 912 912 160
Width: 286
Flags: W
HStem: 0 23<33 101.585 191.12 259> 410 22<33 100.042 191.12 259> 518 95<14.5769 94.9316 192.577 272.932>
VStem: 6 97<526.433 604.613> 111 70<27.6945 405.266> 184 97<526.433 604.613>
LayerCount: 2
Fore
SplineSet
103 566 m 4
 103 543 85 518 54 518 c 4
 27 518 6 541 6 566 c 4
 6 588 24 613 55 613 c 4
 82 613 103 590 103 566 c 4
281 566 m 4
 281 543 263 518 232 518 c 4
 205 518 184 541 184 566 c 4
 184 588 202 613 233 613 c 4
 260 613 281 590 281 566 c 4
EndSplineSet
Refer: 109 953 N 1 0 0 1 0 0 3
EndChar

StartChar: alphatonos
Encoding: 940 940 161
Width: 526
Flags: W
HStem: 0 31<436.258 512> 401 31<77 155.818>
LayerCount: 2
Fore
SplineSet
320 88 m 1
 228.12890625 68.1357421875 138.041992188 53.02734375 47.83984375 -12.7998046875 c 1
 37.599609375 -12.7998046875 25.4404296875 -8.3203125 22.240234375 5.759765625 c 1
 87.51953125 112.639648438 176 181 195 320 c 24
 203 377 145 401 77 401 c 1
 77 432 l 5
 188 430 l 2
 212 430 219.007608115 423.547906531 233 398 c 2
 411 73 l 2
 433.650858349 31.6430957119 479 31 512 31 c 1
 512 0 l 1
 369 0 l 1
 328 88 l 1
 320 88 l 1
310 122 m 1
 294.306640625 157.997070312 251.98828125 236.947265625 238.959960938 267.280273438 c 1
 232.559570312 267.280273438 228.719726562 267.280273438 228.719726562 267.280273438 c 25
 186.479492188 199.440429688 130.799804688 97.6796875 130.799804688 93.2001953125 c 0
 130.799804688 89.4814453125 134.817382812 90.45703125 137.200195312 91.4013671875 c 0
 199.919921875 116.240234375 290.16015625 123.280273438 310 122 c 1
EndSplineSet
EndChar

StartChar: epsilontonos
Encoding: 941 941 162
Width: 457
Flags: W
HStem: -14 25<213.829 333.343> 427 24<209.952 324.954>
VStem: 101.765 15.2354<218.32 236.16> 305.52 26<141.44 197.292 254.657 311.04> 395 24<317.131 359.324>
LayerCount: 2
Fore
SplineSet
101.764648438 218.3203125 m 5
 102.139648438 236.16015625 l 5
 246.400390625 245.559570312 l 6
 304.916919213 249.372257488 305.51953125 256 305.51953125 311.040039062 c 5
 331.51953125 311.040039062 l 5
 331.51953125 141.440429688 l 5
 305.51953125 141.440429688 l 5
 305.51953125 195.83984375 304.878449628 202.310599825 246.400390625 206.919921875 c 6
 101.764648438 218.3203125 l 5
419 378 m 1
 419 335 l 2
 419 322 419 317 409 317 c 0
 400 317 398 322 395 331 c 0
 375 397 329 427 259 427 c 0
 230 427 117 409 117 218 c 0
 117 27 237 11 266 11 c 0
 336 11 368 37 401 84 c 0
 405 89 411 92 417 89 c 0
 424 85 422 82 419 76 c 0
 390 21 344 -14 259 -14 c 0
 140 -14 36 87 36 219 c 0
 36 350 139 451 259 451 c 0
 320 451 375 448 419 378 c 1
EndSplineSet
EndChar

StartChar: etatonos
Encoding: 942 942 163
Width: 555
Flags: W
HStem: 0 23<25 33> 226 22<173 380 173 380> 408 22<25 32 25 25>
VStem: 103 70<69 71 71 226 248 362> 380 70<89 226 226 226 248 362 69 383>
LayerCount: 2
Fore
SplineSet
25 0 m 1
 25 23 l 1
 33 23 l 2
 92 23 103 30 103 69 c 2
 103 362 l 2
 102 401 91 408 32 408 c 2
 25 408 l 1
 25 430 l 1
 62 428 99 428 136 428 c 0
 174 428 212 428 250 430 c 1
 250 408 l 1
 247 408 l 2
 190 408 173 404 173 362 c 2
 173 248 l 1
 380 248 l 1
 380 362 l 2
 380 404 364 408 307 408 c 2
 303 408 l 1
 303 430 l 1
 340 428 376 428 413 428 c 0
 451 428 490 428 528 430 c 1
 528 408 l 1
 521 408 l 2
 461 408 451 400 450 362 c 2
 450 69 l 2
 451 30 461 23 520 23 c 2
 528 23 l 1
 528 0 l 1
 489 2 451 3 412 3 c 2
 408 3 l 2
 394 3 361 3 303 0 c 1
 303 23 l 1
 308 23 l 2
 367 23 381 29 381 71 c 0
 381 77 380 83 380 89 c 2
 380 226 l 1
 173 226 l 1
 173 71 l 2
 173 28 186 23 245 23 c 2
 250 23 l 1
 250 0 l 1
 211 2 173 3 134 3 c 2
 130 3 l 2
 116 3 83 3 25 0 c 1
EndSplineSet
EndChar

StartChar: iotatonos
Encoding: 943 943 164
Width: 286
Flags: W
HStem: 0 23<33 101.585 191.12 259> 410 22<33 100.042 191.12 259>
VStem: 111 70<27.6945 405.266>
LayerCount: 2
Fore
SplineSet
33 0 m 1
 33 23 l 1
 41 23 l 2
 100 23 111 30 111 69 c 2
 111 364 l 6
 111 405 96 410 38 410 c 6
 33 410 l 5
 33 432 l 5
 69 430 105 430 142 430 c 4
 181 430 220 430 259 432 c 5
 259 410 l 5
 252 410 l 6
 182 410 181 401 181 345 c 6
 181 89 l 2
 181 33 182 23 252 23 c 2
 259 23 l 1
 259 0 l 1
 220 2 182 3 143 3 c 0
 99 3 66 1 33 0 c 1
EndSplineSet
EndChar

StartChar: upsilondieresistonos
Encoding: 944 944 165
Width: 536
Flags: W
HStem: -195 31<152 224.828 302.064 375> 247.024 61.2148<420.631 481.736> 518 95<135.577 215.932 313.577 393.932>
VStem: 16.3252 24.2549<302.503 343.424> 127 97<526.433 604.613> 230 67<-159.676 247.422> 305 97<526.433 604.613> 481.79 27.7207<296.689 353.161>
LayerCount: 2
Fore
SplineSet
224 566 m 4
 224 543 206 518 175 518 c 4
 148 518 127 541 127 566 c 4
 127 588 145 613 176 613 c 4
 203 613 224 590 224 566 c 4
402 566 m 4
 402 543 384 518 353 518 c 4
 326 518 305 541 305 566 c 4
 305 588 323 613 354 613 c 4
 381 613 402 590 402 566 c 4
EndSplineSet
Refer: 105 965 N 1 0 0 1 0 0 3
Substitution2: "'salt' Stylistic Alternatives lookup 1-1" upsilondieresistonos.alt
EndChar

StartChar: l.alt
Encoding: 1114119 -1 167
Width: 490
Flags: W
HStem: 0 26<35 99.4062 180.357 354.698> 407 26<35 98.7221 184.828 264>
VStem: 107 70<30.0793 401.864> 437 26<126.75 195>
LayerCount: 2
Fore
SplineSet
35 0 m 1
 35 26 l 1
 43 26 l 2
 91 26 107 31 107 68 c 2
 107 364 l 2
 107 401 91 407 43 407 c 2
 35 407 l 1
 35 433 l 1
 71 431 105 430 142 430 c 0
 184 430 222 431 264 433 c 1
 264 407 l 1
 253 407 l 2
 177 407 177 394 177 355 c 2
 177 67 l 2
 177 28 182 26 231 26 c 2
 264 26 l 2
 333 26 374 38 403 75 c 0
 429 109 433 154 437 195 c 1
 463 195 l 1
 443 0 l 1
 35 0 l 1
EndSplineSet
EndChar

StartChar: l_l
Encoding: 1114120 -1 168
Width: 953
Flags: W
HStem: 0 26<35 99.4062 180.357 354.698 498 562.406 643.357 817.698> 407 26<498 561.722 647.828 727> 656 26<35 98.7221 184.828 264>
VStem: 107 70<30.0793 650.864> 437 26<126.75 195> 570 70<30.0793 401.864> 900 26<126.75 195>
LayerCount: 2
Fore
SplineSet
498 0 m 1
 498 26 l 1
 506 26 l 2
 554 26 570 31 570 68 c 2
 570 364 l 2
 570 401 554 407 506 407 c 2
 498 407 l 1
 498 433 l 1
 534 431 568 430 605 430 c 0
 647 430 685 431 727 433 c 1
 727 407 l 1
 716 407 l 2
 640 407 640 394 640 355 c 2
 640 67 l 2
 640 28 645 26 694 26 c 2
 727 26 l 2
 796 26 837 38 866 75 c 0
 892 109 896 154 900 195 c 1
 926 195 l 1
 906 0 l 1
 498 0 l 1
35 0 m 1
 35 26 l 1
 43 26 l 2
 91 26 107 31 107 68 c 2
 107 613 l 2
 107 650 91 656 43 656 c 2
 35 656 l 1
 35 682 l 1
 71 680 105 679 142 679 c 0
 184 679 222 680 264 682 c 1
 264 656 l 1
 253 656 l 2
 177 656 177 643 177 604 c 2
 177 67 l 2
 177 28 182 26 231 26 c 2
 264 26 l 2
 333 26 374 38 403 75 c 0
 429 109 433 154 437 195 c 1
 463 195 l 1
 443 0 l 1
 35 0 l 1
EndSplineSet
Ligature2: "'liga' Standard Ligatures lookup 1-1" l l
EndChar
